{"glyphs":{"0":{"ha":836,"x_min":63,"x_max":697,"o":"m 614 535 q 594 667 607 614 q 550 783 578 738 q 469 856 518 833 q 325 871 411 882 q 260 831 293 868 q 201 732 228 794 q 146 424 143 593 q 219 150 149 246 q 440 82 296 49 q 511 137 476 90 q 572 258 546 183 q 607 399 596 326 q 613 521 618 472 q 614 535 611 528 m 696 522 q 690 385 701 464 q 651 232 678 306 q 578 88 621 144 q 460 1 525 17 q 153 100 261 -44 q 63 422 65 217 q 125 764 60 610 q 201 890 157 843 q 317 954 254 947 q 619 828 525 978 q 675 685 656 769 q 697 536 689 625 q 696 522 697 529 z "},"1":{"ha":618,"x_min":196,"x_max":481,"o":"m 318 724 q 288 714 301 718 q 251 700 269 708 q 220 699 236 693 q 197 722 204 706 q 197 753 190 738 q 219 776 203 769 q 263 793 240 786 l 294 803 q 326 818 317 810 q 396 938 351 840 q 401 947 399 943 q 415 958 407 954 q 433 963 424 963 q 447 960 440 963 q 460 954 454 958 q 472 940 467 949 q 476 922 476 932 q 475 913 476 917 q 461 486 451 800 q 469 288 464 404 q 471 251 469 283 q 474 184 472 218 q 476 138 476 150 q 481 26 481 63 q 469 -3 481 8 q 440 -16 457 -15 q 410 -4 422 -17 q 397 25 397 8 q 393 133 397 60 q 391 180 393 146 q 388 247 389 214 q 386 285 386 281 q 378 483 381 401 q 376 751 372 644 q 318 724 356 735 z "},"2":{"ha":872,"x_min":65,"x_max":735,"o":"m 82 650 q 214 869 114 789 q 416 944 304 942 q 603 881 528 947 q 675 683 685 807 q 593 500 667 585 q 442 372 547 447 q 416 354 438 369 q 392 336 394 339 q 236 207 285 261 q 165 94 188 153 q 190 94 178 94 q 239 90 218 96 q 469 86 269 83 q 617 92 560 88 q 664 97 647 94 q 674 99 671 99 q 719 94 699 111 q 734 67 732 85 q 725 36 736 50 q 697 19 715 24 q 676 14 689 17 q 622 8 656 11 q 471 3 564 4 q 219 8 260 0 q 190 11 208 11 q 142 7 168 11 q 124 4 132 6 q 121 3 122 3 q 119 3 119 3 l 118 3 l 117 3 l 115 1 q 113 1 114 1 q 108 1 111 1 q 97 3 106 1 q 90 4 94 3 q 79 11 86 7 q 74 18 76 14 q 68 28 71 22 q 65 40 67 33 q 67 50 65 46 q 174 263 89 167 q 343 404 229 324 q 368 422 347 407 q 393 440 389 438 q 531 556 490 508 q 592 690 586 618 q 547 819 599 772 q 418 861 497 864 q 267 804 333 858 q 164 632 189 742 q 145 606 160 615 q 113 601 131 597 q 87 619 96 604 q 82 650 78 633 z "},"3":{"ha":843,"x_min":74,"x_max":703,"o":"m 76 719 q 164 877 106 815 q 303 960 222 939 q 444 963 372 976 q 574 907 515 949 q 664 803 636 864 q 675 678 692 742 q 539 514 651 586 q 621 461 585 496 q 703 293 692 392 q 650 107 715 186 q 431 -4 576 18 q 154 63 254 -29 q 74 249 74 136 q 86 278 74 265 q 116 290 99 290 q 145 278 133 290 q 157 249 157 265 q 211 124 157 174 q 418 79 281 58 q 585 160 533 96 q 621 283 629 213 q 563 401 613 353 q 443 447 511 451 q 419 454 431 447 q 390 443 404 449 q 358 445 374 438 q 337 469 343 453 q 338 500 331 485 q 363 522 346 515 q 533 613 472 561 q 594 699 583 654 q 585 773 603 736 q 525 839 567 810 q 428 880 482 869 q 324 878 374 890 q 157 696 201 847 q 136 671 151 679 q 105 667 121 663 q 81 688 89 672 q 76 719 72 703 z "},"4":{"ha":842,"x_min":40,"x_max":701,"o":"m 453 325 q 461 799 447 601 q 294 556 374 675 q 153 326 203 415 q 201 328 175 328 q 365 326 251 328 l 367 326 q 453 325 422 325 m 556 899 q 535 471 536 818 q 536 325 535 394 q 539 325 538 325 q 650 335 619 326 q 681 331 667 339 q 701 306 696 322 q 697 274 706 289 q 672 254 689 260 q 540 242 632 243 q 538 242 539 242 q 554 31 543 81 q 548 -1 557 14 q 522 -19 539 -15 q 491 -13 506 -22 q 472 13 476 -4 q 454 242 460 69 q 365 243 422 242 q 363 243 364 243 q 201 244 250 244 q 90 236 124 243 q 76 235 83 235 q 63 240 69 236 q 49 251 54 244 q 40 265 43 257 q 40 281 39 274 q 43 294 40 288 q 225 601 86 390 q 465 947 344 785 q 493 964 476 961 q 524 956 510 967 q 533 947 529 953 q 553 927 547 940 q 556 899 560 914 z "},"5":{"ha":833,"x_min":81,"x_max":694,"o":"m 207 946 q 369 943 258 942 q 378 943 375 943 q 488 942 449 943 q 597 932 549 940 q 624 915 614 929 q 631 884 633 901 q 614 857 628 867 q 583 850 600 847 q 379 860 517 861 q 369 860 376 860 q 239 861 281 858 q 235 832 236 844 q 221 750 226 785 q 213 635 213 681 q 207 606 213 628 q 201 571 204 583 q 225 583 215 581 q 398 605 313 613 q 551 556 483 597 q 663 435 625 511 q 694 265 700 360 q 579 54 686 131 q 364 -10 490 -8 q 161 42 243 -11 q 91 116 113 72 q 81 211 69 160 q 98 238 83 228 q 129 244 113 247 q 156 226 146 240 q 161 194 165 211 q 206 113 153 147 q 363 74 268 72 q 531 122 463 75 q 611 271 606 175 q 508 485 621 417 q 390 522 457 517 q 254 506 324 528 l 253 504 q 246 500 250 503 q 222 482 238 494 q 219 479 221 481 q 212 474 218 479 q 204 468 206 468 q 190 457 196 461 q 178 447 183 450 q 169 442 174 444 q 161 439 165 440 q 142 439 151 438 q 115 454 126 442 q 108 469 111 461 q 106 485 106 476 q 107 510 106 494 q 115 565 108 529 q 118 579 117 571 l 125 621 q 128 635 128 629 q 129 638 129 636 q 139 763 129 690 q 153 847 144 799 q 161 894 154 861 q 163 899 161 897 q 161 908 161 904 q 176 936 163 925 q 207 946 189 947 z "},"6":{"ha":856,"x_min":92,"x_max":715,"o":"m 169 357 q 174 339 172 347 q 225 195 190 257 q 306 103 260 133 q 406 76 351 71 q 542 136 469 82 q 632 315 643 211 q 601 405 628 361 q 533 481 575 449 q 349 528 444 550 q 169 357 238 503 m 567 799 q 485 876 526 854 q 383 885 438 903 q 190 672 247 838 q 160 499 163 592 q 329 610 232 588 q 461 607 394 624 q 585 547 528 590 q 674 446 639 504 q 715 325 708 388 q 592 69 731 174 q 416 -6 501 3 q 260 33 331 -15 q 156 149 199 74 q 92 322 113 224 q 111 699 50 521 q 207 865 144 797 q 356 963 269 933 q 525 950 444 993 q 635 847 583 918 q 642 815 644 832 q 624 788 639 799 q 593 781 610 778 q 567 799 576 785 z "},"7":{"ha":851,"x_min":56,"x_max":713,"o":"m 701 847 q 456 451 550 635 q 282 32 361 268 q 261 8 276 15 q 230 6 246 0 q 206 26 214 11 q 203 58 197 42 q 367 461 278 283 q 590 833 456 639 q 319 831 472 824 q 86 860 167 839 q 60 880 69 865 q 56 911 51 894 q 75 937 60 928 q 107 942 90 946 q 383 913 199 918 q 664 926 568 907 q 695 921 681 931 q 713 894 710 911 q 710 867 715 879 q 701 847 708 857 z "},"8":{"ha":842,"x_min":60,"x_max":701,"o":"m 400 546 q 444 556 424 549 q 551 642 515 579 q 567 767 586 704 q 456 885 544 840 q 453 886 454 885 q 306 876 383 904 q 182 789 226 847 q 156 679 139 732 q 278 568 174 615 q 374 544 326 546 q 396 547 385 549 q 400 546 399 546 m 201 514 q 75 656 100 572 q 115 839 47 749 q 278 954 175 918 q 488 963 388 994 q 503 954 496 960 q 647 792 615 894 q 624 601 676 694 q 529 503 589 540 q 644 414 601 468 q 701 210 718 325 q 604 32 685 104 q 408 -37 519 -44 q 167 56 263 -28 q 60 242 78 132 q 103 436 42 351 q 201 514 140 486 m 310 457 q 171 386 215 447 q 142 256 129 331 q 221 118 156 175 q 414 46 296 53 q 549 94 489 40 q 618 222 607 146 q 581 361 631 300 q 394 463 522 433 q 331 465 363 461 q 310 457 321 458 z "},"9":{"ha":817,"x_min":51,"x_max":674,"o":"m 592 585 q 590 601 592 593 q 551 749 581 685 q 479 849 522 814 q 382 883 436 883 q 242 836 318 883 q 135 665 133 769 q 219 492 136 568 q 400 429 303 415 q 592 585 513 444 m 158 179 q 233 93 193 119 q 333 76 279 64 q 544 272 474 111 q 590 442 579 349 q 411 346 510 360 q 281 360 346 338 q 163 431 215 382 q 82 539 111 478 q 51 664 53 600 q 88 799 50 736 q 197 907 125 863 q 379 967 293 965 q 532 914 465 968 q 674 611 649 821 q 621 238 697 410 q 354 -4 533 39 q 186 24 263 -26 q 88 136 131 61 q 82 168 78 151 q 101 194 86 185 q 133 198 117 203 q 158 179 150 193 z "}," ":{"ha":417,"x_min":0,"x_max":0,"o":""},"!":{"ha":469,"x_min":147,"x_max":328,"o":"m 217 139 q 267 138 240 146 q 311 114 293 131 q 326 90 322 103 q 328 51 335 71 q 306 22 322 35 q 276 8 293 14 q 211 11 244 0 q 160 47 178 22 q 147 81 149 64 q 167 125 146 108 q 217 139 185 140 m 260 951 q 258 699 250 860 q 265 581 260 653 q 275 410 274 453 q 275 360 275 382 l 278 354 q 279 347 279 350 q 279 339 281 343 q 279 336 279 338 q 279 332 279 335 q 278 324 278 329 q 269 285 275 311 q 256 261 267 271 q 229 251 244 251 q 221 253 225 251 q 197 267 207 256 q 188 292 188 278 q 186 297 188 294 q 189 318 185 308 q 192 328 190 322 l 192 407 q 182 575 190 449 q 175 694 176 649 q 176 960 167 863 q 192 988 179 978 q 223 997 206 999 q 251 982 240 996 q 260 951 261 968 z "},"\"":{"ha":517,"x_min":63,"x_max":379,"o":"m 143 982 q 160 892 154 942 q 164 804 161 863 q 164 782 164 790 q 172 679 165 718 q 174 678 174 679 q 174 676 174 678 l 174 675 q 175 669 175 672 q 174 649 176 658 q 156 622 169 632 q 138 613 149 617 q 106 615 122 607 q 86 639 90 624 q 89 674 79 657 q 81 779 82 714 q 81 803 81 788 q 76 883 79 857 q 63 960 72 926 q 67 991 58 976 q 92 1010 75 1006 q 124 1007 108 1015 q 143 982 139 999 m 371 972 q 375 907 374 963 q 378 797 376 860 q 379 689 379 732 q 378 650 379 665 q 378 638 378 643 q 371 615 376 624 q 346 596 363 600 q 314 600 329 592 q 294 644 288 615 q 294 654 294 649 q 296 689 296 667 q 294 796 296 732 q 292 904 293 857 q 290 940 292 928 q 290 950 290 947 q 294 981 286 967 q 318 1000 303 994 q 350 997 335 1004 q 371 972 365 989 z "},"#":{"ha":936,"x_min":-10,"x_max":797,"o":"m 331 611 q 260 383 288 474 q 414 386 333 385 q 483 611 442 478 q 439 611 464 611 q 331 611 374 611 m 424 933 q 394 858 407 901 q 375 775 388 832 q 372 763 374 767 q 356 694 363 719 q 440 694 388 694 q 510 694 481 694 q 528 771 517 721 q 531 783 529 775 q 551 872 543 842 q 588 963 567 924 q 611 983 594 978 q 643 980 628 988 q 664 956 658 972 q 661 924 669 939 q 632 849 644 892 q 613 765 624 822 q 610 753 610 757 q 596 693 601 715 q 756 693 682 693 q 785 681 774 693 q 797 651 797 668 q 785 622 797 633 q 756 610 774 610 q 571 610 674 610 q 501 386 528 475 q 676 388 581 388 q 706 375 693 388 q 718 345 718 363 q 706 316 718 328 q 676 304 693 304 q 476 303 567 304 q 401 26 433 153 q 383 1 397 10 q 351 -4 368 -8 q 325 15 333 0 q 321 47 317 31 q 390 303 350 165 q 236 300 308 301 q 164 36 194 157 q 145 10 160 19 q 114 6 131 1 q 88 25 97 10 q 83 57 79 40 q 149 297 111 168 q 35 293 92 296 q 5 303 18 292 q -9 333 -8 315 q 2 363 -10 350 q 32 376 14 375 q 172 381 101 379 q 243 613 201 478 q 124 613 183 613 q 94 624 107 613 q 82 653 82 636 q 94 683 82 671 q 124 696 107 696 q 269 696 193 696 q 290 781 279 725 q 293 793 292 785 q 315 882 306 851 q 350 972 329 932 q 374 992 358 988 q 406 990 390 997 q 426 965 421 982 q 424 933 432 949 z "},"$":{"ha":822,"x_min":39,"x_max":682,"o":"m 408 -19 q 408 -78 397 -43 q 406 -110 414 -94 q 382 -131 399 -125 q 350 -128 365 -136 q 329 -104 335 -121 q 322 -15 313 -54 q 150 38 222 -8 q 39 213 51 100 q 47 242 36 229 q 75 258 58 256 q 106 249 92 260 q 121 221 119 239 q 194 107 129 149 q 351 67 258 67 q 510 103 443 65 q 586 200 576 140 q 540 408 607 335 q 367 501 490 461 q 331 513 353 507 l 314 518 q 293 525 297 524 q 157 581 199 554 q 86 703 86 628 q 171 896 86 825 q 329 957 235 949 q 322 1010 324 978 q 321 1025 322 1014 q 319 1050 321 1042 q 328 1081 318 1067 q 356 1096 339 1094 q 387 1087 374 1097 q 403 1058 400 1076 q 404 1029 403 1049 q 406 1015 406 1019 q 411 974 407 988 q 413 956 414 965 q 551 910 489 946 q 682 754 650 853 q 679 722 688 738 q 654 702 671 707 q 622 705 638 697 q 603 729 607 713 q 510 838 581 796 q 358 875 440 878 q 225 832 276 874 q 169 703 169 786 q 203 650 169 672 q 318 604 235 631 q 339 597 322 603 l 354 593 q 393 581 378 586 q 503 536 460 560 q 601 465 563 506 q 668 186 696 363 q 551 31 651 88 q 410 -14 489 -4 q 408 -19 410 -17 z "},"%":{"ha":1294,"x_min":78,"x_max":1150,"o":"m 303 831 q 238 824 274 842 q 165 750 192 801 q 156 658 140 700 q 253 583 175 608 q 360 583 319 563 q 403 642 393 600 q 394 735 414 686 q 357 792 382 767 q 347 790 351 790 q 317 801 329 789 q 303 829 304 813 l 303 831 m 364 890 q 369 888 367 889 q 385 876 376 882 q 583 897 500 885 q 799 953 703 917 q 803 956 800 954 q 814 960 808 957 q 824 963 819 961 q 843 967 835 965 q 858 967 851 968 q 885 954 874 965 q 893 904 907 932 q 892 901 892 903 q 888 893 889 897 q 871 864 879 879 q 813 756 843 811 q 635 429 717 578 q 626 414 631 421 q 374 -33 422 40 q 347 -51 364 -47 q 316 -44 331 -54 q 298 -18 301 -35 q 304 14 294 -1 q 554 454 351 83 q 563 469 558 461 q 739 796 643 617 q 772 856 756 826 q 596 815 692 831 q 456 799 532 806 q 472 767 465 783 q 485 622 501 693 q 399 510 465 543 q 228 504 328 472 q 78 629 111 542 q 90 789 49 706 q 200 899 129 864 q 356 896 285 940 q 364 890 360 893 m 1031 443 q 1035 440 1033 442 q 1138 319 1107 397 q 1150 175 1168 246 q 1065 63 1132 97 q 894 57 993 25 q 744 182 778 94 q 757 342 715 258 q 867 451 796 417 q 1022 450 950 493 q 1031 443 1026 446 m 978 379 q 904 378 946 399 q 832 303 857 354 q 822 211 806 253 q 919 138 840 163 q 1026 136 986 115 q 1069 194 1060 153 q 1061 288 1081 240 q 992 368 1040 340 q 983 375 988 372 q 978 379 981 376 z "},"&":{"ha":1036,"x_min":128,"x_max":897,"o":"m 522 835 q 381 851 467 885 q 307 807 342 836 q 256 743 272 778 q 268 629 219 675 q 563 560 340 560 q 592 547 579 560 q 604 518 604 535 q 592 489 604 501 q 563 476 579 476 q 253 381 342 476 q 215 203 185 306 q 262 119 229 156 q 336 67 294 83 q 533 117 435 29 q 561 181 560 139 q 536 265 563 222 q 531 286 531 275 q 550 322 531 310 q 572 328 561 328 q 608 308 596 328 q 717 182 647 243 q 856 110 799 110 q 885 98 874 110 q 897 69 897 86 q 885 39 897 51 q 856 26 874 26 q 663 119 768 26 q 639 140 651 129 q 589 53 628 88 q 448 -22 522 -6 q 307 -11 374 -37 q 201 63 246 13 q 136 179 156 114 q 128 316 114 247 q 192 438 143 385 q 303 514 236 485 q 210 568 246 535 q 158 668 165 611 q 181 782 151 725 q 251 869 206 829 q 351 929 297 910 q 472 946 413 954 q 578 897 532 938 q 592 869 590 886 q 581 839 593 851 q 552 825 569 826 q 522 835 535 824 z "},"'":{"ha":354,"x_min":100,"x_max":214,"o":"m 214 957 q 188 769 196 899 q 183 643 182 699 q 185 640 183 642 q 185 594 200 618 q 181 589 183 592 q 147 564 171 567 q 143 564 144 564 q 115 575 126 564 q 101 601 103 586 q 100 624 100 615 q 100 632 100 628 q 104 775 99 693 q 135 982 114 915 q 156 1006 140 999 q 187 1009 171 1014 q 211 989 203 1004 q 214 957 219 974 z "},"(":{"ha":543,"x_min":131,"x_max":406,"o":"m 382 951 q 260 722 307 886 q 214 360 214 558 q 259 1 213 156 q 386 -207 306 -153 q 405 -233 401 -217 q 399 -265 408 -250 q 372 -283 389 -279 q 340 -276 354 -286 q 178 -17 233 -204 q 131 360 129 149 q 179 740 131 568 q 326 1014 232 932 q 356 1024 339 1025 q 385 1010 374 1024 q 396 980 397 997 q 382 951 394 963 z "},")":{"ha":468,"x_min":61,"x_max":329,"o":"m 63 -246 q 209 113 167 -33 q 246 383 251 258 q 193 640 240 497 q 68 957 161 736 q 67 990 61 974 q 90 1012 74 1006 q 122 1012 106 1018 q 144 990 138 1006 q 272 667 239 765 q 329 388 324 513 q 290 94 335 250 q 138 -282 246 -61 q 114 -303 131 -297 q 82 -301 97 -308 q 61 -277 67 -293 q 63 -246 56 -261 z "},"*":{"ha":586,"x_min":67,"x_max":447,"o":"m 103 892 q 112 893 103 892 q 135 883 121 894 q 185 863 149 872 q 191 860 190 860 q 194 858 192 860 l 197 858 q 211 854 206 856 q 214 951 218 894 q 224 981 213 968 q 252 996 235 994 q 283 986 269 997 q 297 957 296 975 q 292 835 301 888 q 338 860 319 851 q 399 881 371 875 q 431 873 417 883 q 447 846 444 863 q 440 815 450 829 q 413 799 431 801 q 328 760 385 793 q 311 750 318 754 q 322 733 317 742 q 351 694 338 711 q 378 667 367 676 q 392 640 390 657 q 384 609 394 622 q 356 594 374 596 q 325 603 339 592 q 286 643 307 617 q 254 686 271 661 q 240 707 246 697 q 194 640 224 681 q 167 624 185 626 q 136 631 150 621 q 119 658 122 642 q 126 689 117 675 q 183 775 165 743 q 174 778 179 776 q 167 781 168 779 q 160 782 163 781 q 82 819 108 797 q 67 847 69 829 q 76 877 65 864 q 103 892 86 890 z "},"+":{"ha":939,"x_min":57,"x_max":799,"o":"m 108 389 q 143 385 115 388 q 219 379 172 382 q 372 375 286 376 q 368 519 367 467 q 381 682 368 610 q 397 708 383 699 q 428 715 411 718 q 455 699 444 713 q 463 668 465 685 q 451 519 451 603 q 456 375 450 468 q 643 376 565 374 q 715 381 688 379 q 738 383 729 382 l 740 383 q 772 386 756 392 q 796 365 788 381 q 799 333 804 350 q 778 310 793 317 q 646 293 753 297 q 458 292 568 290 q 461 204 461 243 q 451 49 461 118 q 435 22 449 32 q 404 13 421 11 q 377 29 388 15 q 369 61 367 43 q 378 204 378 124 q 375 292 378 243 q 215 297 286 293 q 83 310 110 301 q 59 331 67 315 q 57 363 51 346 q 78 387 63 379 q 108 389 93 394 z "},",":{"ha":419,"x_min":100,"x_max":279,"o":"m 153 7 q 103 68 114 31 q 111 122 94 99 q 160 154 126 146 q 233 138 197 163 q 278 76 268 114 q 279 31 285 50 q 267 6 275 17 q 268 -11 268 -3 q 244 -92 264 -53 q 204 -157 231 -121 l 175 -194 q 147 -210 164 -208 q 116 -202 129 -212 q 100 -174 103 -192 q 108 -143 97 -157 q 138 -107 126 -121 q 185 -10 179 -51 q 179 -8 182 -10 q 158 4 168 -3 q 153 7 156 6 z "},"-":{"ha":567,"x_min":32,"x_max":428,"o":"m 79 429 q 233 408 175 413 q 379 414 321 401 q 410 407 396 417 q 428 381 425 397 q 422 349 431 364 q 394 332 413 335 q 226 325 325 318 q 67 347 165 331 q 39 364 49 350 q 32 394 29 378 q 49 422 35 411 q 79 429 63 432 z "},".":{"ha":419,"x_min":93,"x_max":282,"o":"m 242 121 q 282 58 281 99 q 253 -4 282 24 q 192 -29 224 -29 q 147 -10 165 -29 q 115 17 128 -3 q 104 36 110 25 q 93 88 92 64 q 114 136 93 117 q 194 150 144 167 q 242 121 224 142 z "},"/":{"ha":536,"x_min":24,"x_max":396,"o":"m 24 29 q 176 542 67 197 q 318 961 286 886 q 342 984 325 978 q 374 983 358 990 q 395 960 389 976 q 394 928 401 943 q 255 515 364 857 q 104 8 146 172 q 84 -17 99 -8 q 53 -21 69 -25 q 27 -2 36 -17 q 24 29 18 13 z "},":":{"ha":450,"x_min":154,"x_max":304,"o":"m 168 667 q 186 696 172 683 q 249 711 213 719 q 304 664 285 703 q 297 590 324 622 q 242 561 278 567 q 194 565 214 558 q 157 603 167 576 q 158 646 150 624 q 168 667 161 657 m 165 126 q 183 156 169 143 q 246 171 210 179 q 301 124 282 163 q 294 50 321 82 q 239 21 275 26 q 192 25 211 18 q 154 63 164 36 q 156 106 147 83 q 165 126 158 117 z "},";":{"ha":454,"x_min":139,"x_max":315,"o":"m 168 667 q 186 696 172 683 q 249 711 213 719 q 304 664 285 703 q 297 590 324 622 q 242 561 278 567 q 194 565 214 558 q 157 603 167 576 q 158 646 150 624 q 168 667 161 657 m 313 61 l 313 60 q 315 -19 315 4 q 297 -101 313 -65 q 265 -151 286 -126 q 231 -189 250 -169 q 201 -210 214 -204 q 181 -212 190 -214 q 147 -193 158 -211 q 139 -168 139 -182 q 140 -153 139 -161 q 155 -131 144 -140 q 179 -122 165 -122 q 190 -110 185 -117 q 197 -103 194 -107 q 201 -99 200 -100 q 221 -67 214 -83 q 232 -17 231 -46 q 232 -4 232 -10 q 185 8 208 -7 q 153 49 163 24 q 164 113 140 85 q 238 140 192 144 q 304 89 290 136 q 306 82 304 86 q 313 61 311 72 z "},"<":{"ha":953,"x_min":14,"x_max":813,"o":"m 26 365 q 182 461 58 401 q 426 567 282 508 q 654 653 551 617 q 729 678 701 669 q 754 683 744 682 q 767 685 761 685 q 782 683 775 685 q 797 674 790 681 q 811 650 808 664 q 803 619 814 633 q 776 601 793 604 q 771 603 775 601 l 769 601 q 753 597 764 601 q 682 574 728 590 q 457 489 581 539 q 218 385 315 432 q 157 354 185 369 q 790 89 594 172 q 812 66 806 82 q 812 34 818 50 q 790 12 806 18 q 757 13 774 6 q 74 299 550 101 q 28 307 49 288 q 15 335 15 318 q 26 365 14 353 z "},"=":{"ha":900,"x_min":43,"x_max":761,"o":"m 104 235 q 314 236 174 238 q 540 239 465 235 q 714 256 636 243 q 744 249 731 258 q 761 222 758 239 q 754 191 764 206 q 726 174 744 176 q 544 156 644 160 q 314 153 467 151 q 107 151 175 154 q 78 163 90 151 q 65 191 65 174 q 75 222 64 208 q 104 235 86 235 m 85 518 q 715 546 415 521 q 745 536 732 547 q 760 508 758 525 q 750 477 761 490 q 722 463 739 464 q 86 435 419 438 q 56 447 68 435 q 43 477 43 460 q 56 506 43 494 q 85 518 68 518 z "},">":{"ha":946,"x_min":6,"x_max":807,"o":"m 25 67 q 222 167 111 118 q 424 247 301 201 q 465 263 442 254 l 507 278 q 672 342 615 318 q 344 496 551 407 q 143 579 228 547 q 81 601 103 594 q 75 603 79 601 l 72 604 q 51 607 61 603 q 29 629 36 614 q 29 661 22 644 q 68 688 39 688 q 82 686 75 689 q 106 681 92 685 q 172 657 129 674 q 378 572 260 624 q 789 369 681 442 q 806 342 803 360 q 800 311 810 325 q 774 293 790 297 q 768 290 771 292 q 536 200 689 257 q 494 185 504 188 q 453 169 471 175 q 256 90 333 124 q 67 -4 150 43 q 35 -9 51 -14 q 10 10 18 -4 q 6 42 1 25 q 25 67 10 58 m 96 615 q 79 606 89 608 q 96 615 89 608 z "},"?":{"ha":842,"x_min":115,"x_max":686,"o":"m 340 82 q 351 97 344 90 q 361 107 356 103 q 408 118 383 124 q 447 78 442 111 q 436 33 450 56 q 411 7 425 18 q 394 -3 403 0 q 368 -8 382 -10 q 329 21 340 -6 q 328 53 324 35 q 340 82 332 65 m 115 718 q 197 867 133 799 q 343 969 260 935 q 511 990 431 1006 q 658 892 603 972 q 686 667 731 788 q 635 571 669 622 q 568 485 611 536 q 553 467 565 481 q 542 451 542 453 q 517 421 526 433 q 476 365 490 388 q 454 288 446 315 q 451 256 460 271 q 426 235 443 240 q 394 239 410 231 q 375 264 379 247 q 374 340 364 300 q 406 408 382 372 q 451 472 422 436 q 478 506 461 486 l 489 519 q 504 538 500 533 q 565 617 544 586 q 608 696 594 660 q 590 844 638 775 q 494 908 553 897 q 374 892 439 918 q 259 812 308 865 q 196 699 210 758 q 177 673 192 682 q 146 668 163 664 q 120 687 129 672 q 115 718 111 701 z "},"@":{"ha":1374,"x_min":143,"x_max":1224,"o":"m 821 514 q 822 532 821 524 q 829 567 826 553 q 833 579 831 574 q 836 585 835 582 q 775 682 807 650 q 728 707 751 706 q 625 639 679 710 q 544 467 568 564 q 547 344 524 376 q 615 315 574 307 q 715 374 661 324 q 804 482 768 421 q 821 514 814 499 m 911 579 q 914 569 914 575 q 901 493 918 538 q 899 428 897 458 q 914 344 900 374 q 946 321 925 321 q 1124 404 1074 322 q 1143 604 1169 483 q 1025 822 1114 729 q 808 935 931 922 q 581 912 688 946 q 392 801 474 878 q 273 644 317 733 q 226 463 229 554 q 265 289 224 367 q 390 161 307 211 q 1001 118 600 36 q 1033 111 1018 121 q 1051 85 1047 101 q 1044 53 1054 68 q 1018 36 1035 39 q 349 90 585 -51 q 192 249 244 151 q 143 465 139 347 q 197 678 146 574 q 335 864 247 783 q 556 990 432 950 q 817 1017 679 1031 q 1086 879 969 1001 q 1224 622 1190 769 q 1194 363 1258 469 q 946 238 1121 239 q 839 308 872 238 q 821 363 826 332 q 772 313 797 335 q 631 233 699 246 q 479 294 538 215 q 464 486 433 357 q 558 689 492 600 q 733 790 640 797 q 914 615 842 783 q 911 579 921 597 z "},"A":{"ha":1021,"x_min":69,"x_max":882,"o":"m 276 407 q 406 400 317 406 q 432 399 422 400 q 636 394 565 392 q 551 610 601 478 q 536 650 544 626 q 531 663 535 654 q 525 681 528 672 l 521 690 q 449 878 475 814 q 357 633 411 793 q 350 614 354 625 q 343 594 350 613 q 294 454 313 503 q 276 407 288 435 m 69 47 q 121 268 63 128 q 153 339 133 297 q 161 358 153 340 q 178 392 169 375 q 189 417 186 410 q 217 483 207 458 q 265 621 235 531 q 271 640 271 638 q 278 660 275 651 q 392 951 343 850 l 392 954 q 394 958 393 957 q 401 971 397 965 q 413 988 407 981 q 426 1001 418 996 q 469 1006 447 1015 q 499 979 488 999 q 508 958 503 971 q 510 952 508 957 q 513 944 511 947 l 514 940 q 599 719 544 863 q 603 710 600 718 q 609 692 606 701 q 614 679 613 683 q 629 640 624 657 q 744 350 697 460 q 878 72 811 194 q 881 42 886 58 q 861 17 876 25 q 829 13 846 8 q 804 33 813 18 q 669 313 738 156 q 426 315 585 307 q 400 318 418 317 q 238 325 289 324 q 228 304 229 306 q 197 235 210 264 q 153 56 147 115 q 143 24 154 38 q 115 10 132 11 q 84 19 97 8 q 69 47 71 31 z "},"B":{"ha":989,"x_min":124,"x_max":850,"o":"m 210 593 l 215 593 q 335 590 290 593 q 443 583 393 589 q 519 585 485 582 q 657 615 604 590 q 693 678 679 625 q 696 686 694 681 q 697 692 696 688 l 699 694 q 701 707 700 701 q 692 826 724 781 q 589 892 663 868 q 432 919 525 914 q 288 921 364 925 q 267 921 282 921 q 231 919 243 921 q 207 918 217 919 q 208 914 208 917 q 208 903 208 910 q 211 890 210 893 q 211 876 211 881 q 210 631 211 794 q 210 593 210 610 m 213 119 q 219 119 215 119 q 247 116 224 118 q 275 113 271 114 q 411 101 357 104 q 649 128 576 92 q 726 193 690 147 q 767 281 764 242 q 689 428 772 374 q 474 496 614 475 q 438 500 456 497 q 347 504 403 500 q 332 504 342 504 q 210 510 249 508 q 208 424 208 465 q 213 119 208 250 m 210 36 q 174 13 200 13 q 144 23 157 11 q 131 53 131 35 q 131 63 131 57 q 125 86 124 74 q 129 101 125 94 q 125 424 125 239 q 126 632 125 493 q 128 876 128 794 l 126 894 q 125 907 125 901 q 124 935 124 924 q 126 950 124 943 q 138 974 129 964 q 183 999 151 992 q 226 1003 201 1001 q 267 1004 240 1004 q 283 1004 279 1004 q 438 1003 364 1008 q 615 971 542 996 q 760 875 715 939 q 782 683 814 796 q 779 672 781 679 l 778 669 q 776 664 776 665 q 774 654 775 658 q 750 593 763 617 q 692 539 728 557 q 671 531 682 535 q 733 497 706 515 q 850 275 858 417 q 792 142 846 210 q 686 53 744 81 q 406 18 593 7 q 267 31 350 21 q 238 33 261 31 q 211 36 215 36 l 210 36 z "},"C":{"ha":1063,"x_min":83,"x_max":924,"o":"m 847 717 q 586 932 739 894 q 329 883 451 965 q 164 646 206 800 q 197 286 117 474 q 357 108 253 158 q 556 88 447 64 q 736 184 661 111 q 821 347 811 257 q 837 375 824 364 q 867 384 850 386 q 896 369 885 382 q 904 338 907 356 q 798 128 892 221 q 574 7 704 35 q 321 33 438 -24 q 121 253 189 96 q 83 667 29 467 q 283 953 133 851 q 607 1013 436 1056 q 918 760 792 967 q 924 728 928 744 q 904 702 919 711 q 872 697 889 693 q 847 717 856 701 z "},"D":{"ha":1033,"x_min":104,"x_max":896,"o":"m 183 35 q 176 32 181 33 q 145 37 160 28 q 126 63 131 46 q 104 511 101 160 q 133 946 107 865 q 154 970 139 963 q 186 972 169 978 q 671 929 504 1015 q 896 500 886 819 q 671 61 906 156 q 435 22 578 24 q 183 35 343 21 m 207 892 q 188 510 189 782 q 201 117 185 239 q 433 106 349 104 q 639 139 561 107 q 768 250 726 174 q 813 497 817 340 q 633 856 804 768 q 207 892 492 928 z "},"E":{"ha":972,"x_min":132,"x_max":835,"o":"m 221 961 q 369 988 286 982 q 525 986 433 992 q 601 982 551 986 q 756 976 707 976 q 785 964 774 976 q 797 934 797 951 q 785 905 797 917 q 756 893 774 893 q 597 899 704 893 q 521 903 547 903 q 240 881 342 913 q 229 879 235 879 q 224 681 225 796 q 225 583 224 647 q 306 589 256 589 q 447 582 363 589 q 542 572 489 578 q 608 563 556 569 q 668 557 661 557 q 696 541 685 554 q 705 510 707 528 q 689 483 703 493 q 658 474 675 472 q 599 481 651 474 q 532 489 546 488 q 440 499 481 494 q 306 506 358 506 q 231 499 247 506 q 225 496 228 497 q 224 382 225 433 q 221 240 222 314 q 217 161 219 221 q 215 96 215 101 q 215 93 215 94 q 229 96 222 94 q 293 106 274 106 l 329 106 q 531 104 464 106 q 797 92 683 103 q 825 77 814 90 q 835 47 836 64 q 820 18 833 29 q 789 8 807 7 q 531 21 678 19 q 329 22 464 22 l 293 22 q 249 14 282 22 q 211 7 224 8 q 168 6 186 3 q 135 35 143 10 q 132 46 133 40 q 132 60 132 51 q 132 99 132 72 q 134 164 132 104 q 138 243 136 224 q 140 383 139 315 q 142 576 142 449 q 140 681 140 646 q 150 936 142 831 q 165 964 151 953 q 194 974 178 975 q 221 961 210 972 z "},"F":{"ha":954,"x_min":143,"x_max":817,"o":"m 240 556 q 457 563 311 556 q 565 568 529 567 q 679 571 628 571 q 708 558 696 571 q 721 528 721 546 q 708 499 721 511 q 679 488 696 488 q 569 485 631 488 q 461 479 533 483 q 240 472 313 472 q 229 474 235 472 q 226 400 228 432 q 228 57 218 193 q 217 27 229 40 q 188 13 206 14 q 158 24 171 13 q 144 51 146 35 q 143 403 135 192 q 149 519 144 442 q 156 724 154 657 q 150 794 157 732 q 147 828 147 814 q 143 899 143 871 q 158 965 144 944 q 190 986 168 981 q 214 990 199 989 q 278 997 238 994 q 464 1003 349 1001 q 779 999 706 1006 q 807 984 796 997 q 817 953 818 971 q 801 925 815 936 q 771 915 788 914 q 464 919 703 922 q 283 914 353 918 q 226 908 247 911 q 226 897 226 904 q 229 835 226 875 q 233 803 231 822 q 233 797 233 801 q 234 790 233 793 q 235 783 235 786 l 235 779 q 238 758 236 767 q 239 722 240 733 q 233 556 238 660 q 240 556 236 556 z "},"G":{"ha":1085,"x_min":99,"x_max":947,"o":"m 847 728 q 815 796 840 765 q 747 853 793 821 q 497 917 622 940 q 296 794 383 897 q 181 556 208 693 q 201 290 151 413 q 360 121 249 172 q 582 92 463 71 q 779 194 701 113 q 863 408 863 281 q 863 418 863 413 q 863 422 863 419 q 863 428 863 426 q 864 449 864 440 q 863 461 864 456 q 750 463 833 472 q 710 457 735 460 q 683 453 694 454 q 657 450 668 451 q 610 447 628 447 q 580 459 592 447 q 568 488 568 471 q 580 518 568 506 q 610 531 592 531 q 699 540 628 531 q 740 544 724 543 q 829 550 794 551 q 913 529 882 547 q 943 488 935 517 q 947 450 947 471 q 946 422 947 439 q 946 408 946 411 q 839 136 946 247 q 597 10 743 36 q 324 44 451 -15 q 124 258 183 111 q 99 572 65 404 q 232 849 131 731 q 482 999 340 974 q 796 921 642 1028 q 878 849 850 882 q 929 742 918 801 q 922 711 932 725 q 895 694 913 697 q 864 701 878 692 q 847 728 850 711 z "},"H":{"ha":1047,"x_min":124,"x_max":908,"o":"m 871 919 q 871 575 861 767 q 871 547 871 560 q 888 510 890 533 q 875 485 886 494 q 894 228 881 403 q 908 42 904 104 q 899 12 910 25 q 870 -3 888 -1 q 840 8 853 -4 q 825 36 826 19 q 811 221 821 97 q 792 478 797 396 q 224 471 453 507 q 239 61 239 200 q 227 32 239 44 q 198 19 215 19 q 168 32 181 19 q 156 61 156 44 q 140 472 156 197 q 128 701 131 625 q 124 933 122 829 q 125 972 124 953 q 138 1001 125 989 q 167 1013 150 1013 q 197 1000 185 1013 q 208 969 208 988 q 207 932 207 951 q 211 704 206 831 q 218 554 214 642 q 788 561 451 590 q 788 571 788 567 q 788 925 778 767 q 801 953 789 942 q 831 964 814 965 q 860 950 849 963 q 871 919 871 938 z "},"I":{"ha":396,"x_min":140,"x_max":258,"o":"m 239 940 q 224 718 224 840 q 232 490 222 624 q 240 381 235 453 q 253 213 250 268 q 258 46 258 119 q 246 16 258 28 q 217 4 233 4 q 188 16 200 4 q 175 46 175 28 q 169 207 175 117 q 157 374 167 263 q 149 483 151 446 q 140 718 139 621 q 157 953 140 846 q 174 980 160 969 q 204 988 188 990 q 231 971 221 985 q 239 940 242 957 z "},"J":{"ha":756,"x_min":50,"x_max":615,"o":"m 133 292 q 144 179 135 215 q 192 94 157 128 q 267 56 222 65 q 347 63 311 46 q 506 253 461 113 q 532 563 542 371 q 510 790 526 650 l 508 797 q 507 812 508 803 q 504 833 506 821 q 501 855 503 844 q 499 875 500 865 q 497 889 497 885 q 488 978 490 943 q 497 1008 486 994 q 526 1022 508 1021 q 556 1013 543 1024 q 571 985 569 1001 q 579 899 574 951 q 582 881 581 893 q 585 856 583 869 q 588 831 586 843 q 592 810 590 818 l 592 801 q 615 567 610 658 q 585 228 625 360 q 381 -14 531 51 q 252 -26 321 -40 q 135 33 183 -12 q 64 158 82 83 q 50 289 51 204 q 60 319 49 307 q 90 332 72 332 q 119 320 107 332 q 133 292 132 308 z "},"K":{"ha":971,"x_min":115,"x_max":832,"o":"m 465 613 q 510 508 469 579 q 611 357 546 446 q 653 299 631 329 q 750 172 683 260 q 825 75 806 103 q 832 44 835 61 q 815 17 829 26 q 784 10 801 7 q 757 26 767 13 q 685 122 739 53 q 588 249 617 210 q 543 307 564 281 q 438 467 476 401 q 393 558 407 521 q 301 464 372 538 q 199 361 229 390 q 218 49 203 190 q 209 19 219 32 q 181 3 199 6 q 151 12 164 1 q 135 40 138 22 q 115 371 118 190 q 115 383 115 378 q 115 539 115 457 q 124 826 117 636 q 128 975 126 926 q 141 1003 128 992 q 171 1015 154 1015 q 199 1001 188 1014 q 211 972 211 989 q 207 824 210 924 q 199 538 200 633 q 199 479 199 507 q 242 522 215 496 q 392 675 347 631 q 436 719 414 699 q 743 978 653 933 q 774 981 758 986 q 799 960 790 975 q 801 928 807 944 q 781 904 796 911 q 494 660 701 864 q 461 628 478 644 q 465 613 465 621 z "},"L":{"ha":894,"x_min":122,"x_max":757,"o":"m 206 958 q 222 210 197 610 q 222 176 222 204 q 222 133 222 153 q 225 93 222 108 q 300 90 251 90 q 464 94 360 90 q 528 97 490 96 q 715 104 682 104 q 744 92 732 104 q 757 63 757 81 q 744 33 757 46 q 715 21 732 21 q 531 14 683 21 q 468 11 494 13 q 182 17 232 1 q 160 33 168 21 q 150 49 154 40 q 143 76 146 60 q 139 132 139 97 q 139 178 139 150 q 139 204 139 201 q 122 960 114 608 q 136 990 124 978 q 166 1001 149 1001 q 195 988 183 1000 q 206 958 207 975 z "},"M":{"ha":1183,"x_min":111,"x_max":1044,"o":"m 1031 931 q 1044 64 1017 447 q 1035 33 1046 46 q 1006 19 1024 21 q 976 29 989 18 q 961 58 963 40 q 944 811 938 400 q 896 706 919 763 q 801 446 854 607 q 785 394 794 424 q 776 369 783 390 q 768 344 769 349 q 682 94 717 181 q 680 88 682 93 q 678 81 678 83 q 669 63 674 71 q 639 19 657 35 q 567 7 607 -8 q 501 76 533 19 q 451 189 479 117 q 401 336 431 246 q 375 417 390 368 l 364 453 q 349 500 351 490 q 271 732 301 651 q 203 886 233 833 q 213 728 211 815 q 207 511 213 653 q 207 503 207 508 q 201 275 200 350 q 224 56 204 151 q 217 24 226 39 q 190 7 207 10 q 159 13 174 4 q 142 40 144 22 q 118 274 121 143 q 124 507 117 351 q 124 515 124 513 q 129 726 129 654 q 111 931 128 842 q 118 963 108 949 q 146 979 128 976 q 164 979 154 981 q 171 989 167 985 q 201 1001 183 1001 q 229 989 218 1001 q 265 944 247 972 q 349 761 304 883 q 428 525 379 678 q 443 478 432 515 l 454 442 q 481 361 469 393 q 529 218 508 274 q 574 117 554 151 q 590 92 583 100 q 594 99 592 94 q 600 111 597 104 q 602 118 600 113 q 604 125 604 124 q 689 369 638 208 q 697 394 690 374 q 706 421 704 415 q 722 471 715 450 q 819 739 775 636 q 953 986 881 883 q 980 1003 963 1000 q 1011 996 997 1006 q 1026 950 1035 978 q 1031 931 1031 940 z "},"N":{"ha":1015,"x_min":115,"x_max":878,"o":"m 864 954 q 878 444 879 751 q 876 293 876 394 q 874 53 874 133 q 862 23 874 35 q 832 11 850 11 q 800 25 813 11 q 653 172 746 50 q 464 449 581 267 q 432 500 449 472 q 389 567 415 528 q 349 632 357 618 q 271 754 300 710 q 199 861 228 819 q 214 501 201 747 q 215 469 214 481 q 228 53 228 201 q 216 24 228 36 q 187 11 204 11 q 157 24 169 11 q 144 53 144 36 q 132 465 144 200 q 131 497 131 476 q 115 946 115 796 q 127 976 115 964 q 157 988 139 988 q 161 988 158 988 q 189 993 174 996 q 214 979 204 990 q 340 800 256 931 q 418 676 369 754 l 460 611 q 503 544 485 572 q 535 494 519 517 q 719 222 650 314 q 790 136 760 168 q 793 294 792 189 q 794 446 793 396 q 781 949 796 749 q 792 978 781 965 q 820 993 803 992 q 850 983 838 994 q 864 954 863 971 z "},"O":{"ha":1126,"x_min":72,"x_max":986,"o":"m 515 1008 q 544 1018 528 1018 q 892 832 769 1000 q 986 479 1000 682 q 843 142 972 276 q 469 3 697 -8 q 163 176 275 13 q 72 518 63 322 q 204 857 82 721 q 515 1008 324 989 m 578 928 q 267 801 382 928 q 156 514 164 688 q 232 224 147 346 q 474 86 321 94 q 783 200 664 76 q 903 485 892 313 q 824 783 915 657 q 583 929 738 901 q 578 928 581 928 z "},"P":{"ha":996,"x_min":122,"x_max":851,"o":"m 218 901 q 206 744 208 839 q 207 521 203 653 q 314 515 242 519 q 335 514 328 514 q 483 508 429 508 q 683 565 603 508 q 771 686 754 614 q 742 811 786 756 q 569 903 689 879 q 368 910 494 918 q 319 907 353 910 q 218 901 250 903 m 210 438 q 214 350 211 403 q 224 69 224 140 q 211 40 224 51 q 181 28 199 28 q 152 40 164 28 q 140 69 140 51 q 131 346 140 138 q 125 482 126 431 q 122 747 118 643 q 146 964 126 885 q 166 989 151 981 q 197 993 181 997 q 214 985 207 990 q 314 990 244 986 q 364 993 347 993 q 586 985 500 1001 q 807 863 736 954 q 851 668 876 775 q 732 497 829 564 q 483 425 629 425 q 329 431 428 425 q 308 432 322 431 q 210 438 242 436 z "},"Q":{"ha":1147,"x_min":96,"x_max":999,"o":"m 850 106 q 901 61 881 78 q 963 26 942 31 q 988 7 979 22 q 992 -25 996 -8 q 973 -51 988 -42 q 942 -56 958 -60 q 851 -4 904 -46 q 785 51 825 15 q 711 13 750 28 q 521 -6 629 -18 q 346 33 456 3 q 206 115 265 56 q 113 264 146 175 q 96 619 50 431 q 289 928 143 821 q 696 1000 457 1053 q 718 988 710 997 l 726 983 q 817 942 785 961 q 903 868 867 913 q 998 656 974 783 q 994 396 1022 528 q 850 106 958 217 m 667 251 q 740 200 697 235 q 788 161 760 185 q 913 413 881 254 q 917 637 938 528 q 839 815 897 746 q 775 869 811 847 q 696 906 747 886 l 686 910 q 667 918 678 914 q 651 924 657 922 l 650 925 q 338 861 465 956 q 176 600 217 772 q 190 293 138 436 q 368 114 244 149 q 531 78 472 85 q 682 92 619 68 q 719 108 701 99 q 688 136 703 124 q 629 176 651 165 q 608 200 614 183 q 610 232 603 217 q 635 253 618 247 q 667 251 651 258 z "},"R":{"ha":1069,"x_min":124,"x_max":932,"o":"m 214 893 q 207 722 206 824 q 215 546 208 649 q 222 544 218 546 q 407 521 310 525 q 613 532 524 514 q 763 600 713 551 q 804 743 815 653 q 775 816 800 783 q 713 863 750 849 q 481 901 614 900 q 344 897 436 901 q 214 893 256 893 m 156 975 q 188 981 171 985 q 200 976 194 979 q 342 981 244 975 q 481 985 435 985 q 742 940 631 983 q 841 867 801 918 q 888 753 881 817 q 821 540 903 622 q 760 496 794 515 q 813 406 793 458 q 828 340 821 378 q 838 278 832 319 q 838 275 838 276 q 858 164 847 199 q 915 83 876 114 q 931 56 929 72 q 922 25 933 39 q 894 9 911 11 q 864 18 878 7 q 779 138 806 63 q 764 203 769 165 q 754 265 760 224 q 754 268 754 267 q 733 379 744 344 q 676 460 715 431 q 675 461 676 461 q 629 450 653 456 q 401 438 529 431 q 222 460 310 442 q 228 393 224 435 q 242 211 239 264 q 249 46 249 113 q 237 17 249 29 q 208 4 225 4 q 178 17 190 4 q 165 46 165 29 q 160 206 165 110 q 144 386 156 258 q 139 461 140 432 q 124 721 125 622 q 132 913 122 835 q 126 936 126 924 q 156 975 128 967 z "},"S":{"ha":954,"x_min":85,"x_max":810,"o":"m 713 760 q 639 897 710 844 q 472 950 571 947 q 304 907 374 953 q 228 774 233 858 q 296 613 221 668 q 382 567 328 588 q 492 532 418 553 q 501 529 494 531 q 621 490 582 506 q 729 432 688 465 q 810 182 839 344 q 703 35 793 86 q 522 -10 631 -7 q 331 16 425 -12 q 186 92 236 44 q 136 161 157 119 q 108 235 124 189 q 106 244 107 239 q 103 250 104 246 l 101 254 q 85 303 92 288 q 85 335 78 319 q 108 358 92 351 q 140 358 124 364 q 163 335 156 351 q 181 281 169 315 q 183 276 182 281 q 185 271 183 272 q 188 261 186 265 q 243 153 214 181 q 360 94 281 117 q 519 74 439 71 q 663 107 607 76 q 728 197 718 139 q 724 303 739 260 q 676 367 711 340 q 590 413 646 392 q 478 449 556 426 q 468 451 471 451 q 353 489 392 474 q 246 546 288 514 q 144 779 135 628 q 258 976 153 906 q 475 1033 349 1038 q 689 964 599 1029 q 796 763 792 888 q 785 733 797 746 q 756 719 774 719 q 726 730 739 718 q 713 760 714 742 z "},"T":{"ha":929,"x_min":44,"x_max":790,"o":"m 740 899 q 572 919 667 917 q 450 919 518 922 q 433 743 433 860 q 450 479 435 644 q 458 383 453 440 l 464 335 q 468 289 467 307 q 476 200 474 236 q 485 49 485 104 q 472 19 485 32 q 442 7 460 7 q 413 19 425 7 q 401 49 401 32 q 393 193 401 101 q 385 281 390 229 q 381 328 383 299 q 376 375 378 364 q 367 471 371 432 q 350 743 351 640 q 364 915 350 849 q 304 911 343 914 q 86 901 157 901 q 57 913 69 901 q 44 942 44 925 q 57 972 44 960 q 86 985 69 985 q 299 994 154 985 q 390 1000 358 999 q 575 1003 499 1006 q 758 979 678 999 q 785 961 776 976 q 790 929 794 946 q 772 903 786 913 q 740 899 757 894 z "},"U":{"ha":1029,"x_min":126,"x_max":890,"o":"m 226 951 q 210 750 208 871 q 214 643 210 714 q 217 569 215 593 q 217 540 217 560 q 225 386 219 438 q 288 160 238 238 q 383 87 321 108 q 521 78 444 65 q 656 127 594 89 q 742 217 717 165 q 807 569 806 344 q 768 943 808 760 q 773 974 764 960 q 799 992 782 989 q 831 987 817 996 q 849 961 846 978 q 890 569 892 769 q 817 179 889 325 q 705 60 782 110 q 535 -6 628 10 q 349 10 433 -21 q 217 115 264 40 q 142 379 157 211 q 133 539 136 432 q 133 568 133 557 q 131 640 132 590 q 126 750 128 713 q 146 969 125 881 q 163 996 149 986 q 195 1001 178 1006 q 222 983 213 997 q 226 951 231 968 z "},"V":{"ha":990,"x_min":88,"x_max":851,"o":"m 168 956 q 199 863 179 913 q 239 768 211 828 q 242 763 240 765 q 243 757 242 761 q 292 643 276 683 q 406 321 333 536 q 410 311 408 315 q 413 303 411 304 q 467 144 447 200 q 468 149 468 146 q 487 189 472 156 q 504 228 501 222 q 581 406 550 333 q 633 529 610 472 q 768 969 754 831 q 784 997 771 986 q 815 1006 797 1008 q 842 991 832 1004 q 851 961 853 978 q 710 499 836 811 q 658 372 686 440 q 579 193 626 300 q 563 155 578 188 q 544 115 549 122 q 514 46 526 72 q 482 21 506 24 q 469 14 476 17 q 438 15 453 8 q 415 39 422 22 q 333 276 386 122 q 331 285 332 281 l 328 293 q 214 614 254 508 q 168 724 200 651 q 165 729 165 728 q 163 735 164 732 q 121 832 135 796 q 88 936 99 888 q 92 967 83 953 q 118 986 101 982 q 149 981 135 990 q 168 956 164 972 z "},"W":{"ha":1390,"x_min":58,"x_max":1250,"o":"m 142 961 q 158 879 146 925 q 188 793 167 850 q 226 675 217 714 q 279 456 249 585 q 303 358 288 426 q 346 181 331 242 l 361 229 q 472 601 433 468 q 568 947 528 792 q 578 982 564 968 q 625 1004 593 1011 q 649 986 640 1000 q 656 956 658 972 q 682 896 669 929 q 710 814 693 867 q 710 810 710 811 l 711 808 q 711 806 711 807 q 743 711 731 742 q 890 322 797 575 q 899 296 893 314 q 942 179 926 221 q 1060 596 985 317 q 1065 617 1061 601 q 1171 996 1133 869 q 1190 1021 1175 1013 q 1222 1024 1206 1029 q 1247 1003 1239 1018 q 1250 972 1256 988 q 1146 594 1213 846 q 1140 575 1142 581 q 1068 313 1094 404 q 988 51 1026 167 q 953 22 979 26 q 922 25 938 18 q 901 47 907 32 q 821 268 874 122 q 811 293 814 286 q 665 681 719 546 q 632 782 651 714 q 631 786 631 785 q 629 790 629 788 q 621 819 624 807 q 553 578 590 708 q 440 206 514 444 q 414 119 421 139 q 388 33 399 69 q 368 8 383 17 q 336 6 353 0 q 331 7 333 6 q 294 39 301 10 q 222 339 269 140 q 199 436 206 407 q 146 654 168 565 q 110 764 136 689 q 79 856 88 824 q 58 953 63 908 q 68 984 57 971 q 97 999 79 997 q 127 989 114 1000 q 142 961 140 978 z "},"X":{"ha":1019,"x_min":85,"x_max":881,"o":"m 807 10 q 608 274 714 124 q 479 458 553 350 q 303 210 382 321 q 256 150 286 186 q 250 143 253 147 l 247 140 q 244 136 244 138 q 196 76 211 97 q 163 15 172 43 q 142 -9 157 -1 q 110 -10 126 -17 q 86 11 93 -4 q 85 43 79 26 q 128 124 97 82 q 181 192 144 149 q 183 194 182 192 l 186 197 q 192 204 190 201 q 235 257 221 238 q 429 532 319 378 q 422 543 425 539 q 420 546 421 544 q 418 549 419 547 q 415 554 417 551 q 133 954 232 824 q 126 985 124 968 q 142 1013 128 1003 q 173 1021 156 1024 q 200 1004 190 1018 q 482 604 300 872 q 528 669 503 635 l 608 781 q 751 981 697 904 q 778 997 761 994 q 810 990 796 1000 q 826 963 824 981 q 819 932 829 946 q 676 732 764 856 q 596 621 614 646 q 532 531 561 571 q 676 322 618 403 q 871 63 781 175 q 881 31 882 49 q 865 3 879 14 q 835 -6 851 -7 q 807 10 818 -4 z "},"Y":{"ha":983,"x_min":92,"x_max":843,"o":"m 524 443 q 503 344 508 403 q 499 229 500 307 q 499 226 499 228 q 494 126 497 160 q 479 26 490 69 q 460 1 475 10 q 429 -4 446 -8 q 403 15 413 0 q 399 47 394 31 q 411 132 408 82 q 415 228 414 164 q 415 231 415 229 q 419 353 417 313 q 432 429 424 394 q 431 431 432 431 q 422 450 428 438 q 399 501 414 467 q 397 504 397 503 q 385 531 394 510 l 375 553 q 367 571 369 564 q 364 575 365 574 l 364 576 q 286 699 332 633 q 196 815 257 738 l 196 817 q 99 943 131 900 q 92 974 89 957 q 108 1001 94 992 q 140 1008 122 1011 q 167 992 157 1006 q 261 868 197 950 l 261 867 q 353 747 324 788 q 436 617 403 678 q 450 588 439 613 q 458 570 451 586 q 469 546 465 554 q 528 642 494 594 q 590 724 551 676 q 607 746 597 733 q 614 753 610 747 q 622 764 618 758 l 625 768 q 704 869 678 832 q 765 972 744 925 q 788 994 772 988 q 820 993 804 1000 q 842 970 836 986 q 842 939 849 954 q 772 821 817 883 q 690 715 744 782 q 688 711 690 714 q 682 705 685 708 q 676 698 679 701 q 672 693 674 694 q 654 671 663 681 q 596 594 618 626 q 525 468 551 531 q 524 443 528 456 z "},"Z":{"ha":961,"x_min":46,"x_max":822,"o":"m 118 989 q 200 993 151 993 q 225 992 208 993 q 260 992 249 992 q 404 986 322 992 q 500 979 436 985 q 731 967 657 967 l 732 968 l 733 968 q 739 968 736 968 q 750 969 744 969 q 789 947 775 968 q 793 911 800 931 q 789 901 792 906 q 782 890 786 896 q 765 872 776 883 q 718 825 750 856 q 717 822 718 824 q 692 799 710 817 l 674 781 q 658 765 664 771 q 654 761 656 763 l 653 760 q 376 394 622 722 q 201 158 268 249 q 169 114 183 133 q 278 119 208 119 q 457 115 335 119 q 467 114 461 115 q 667 110 611 108 q 735 113 710 110 q 754 117 747 114 l 756 117 l 757 117 q 788 124 771 126 q 815 107 804 121 q 822 76 825 93 q 806 49 819 58 q 744 31 786 35 q 667 26 715 26 q 464 31 610 25 q 453 32 457 32 q 278 36 333 36 q 163 29 194 36 q 158 28 161 29 q 156 26 156 28 q 144 25 150 25 q 128 21 135 22 q 92 19 106 18 q 63 32 74 22 q 46 76 42 50 q 58 103 49 88 q 76 128 65 113 q 133 207 96 156 q 310 444 200 299 q 589 813 557 774 q 615 840 593 818 l 633 858 q 657 882 651 876 q 659 883 658 882 q 661 885 660 885 q 493 896 606 888 q 399 903 431 901 q 260 908 319 908 q 224 908 249 908 q 200 910 208 910 q 128 907 156 910 q 97 915 111 904 q 81 942 83 925 q 90 974 79 960 q 118 989 100 988 z "},"[":{"ha":494,"x_min":85,"x_max":356,"o":"m 304 885 q 271 893 283 890 q 225 900 246 899 q 182 901 199 904 q 176 901 179 901 q 175 874 176 890 q 169 744 172 828 q 168 358 167 603 q 171 18 169 203 q 174 -150 172 -67 q 174 -176 174 -164 q 189 -178 181 -178 q 222 -176 200 -178 q 310 -178 278 -175 q 338 -192 326 -179 q 347 -223 349 -206 q 333 -251 346 -240 q 303 -261 319 -262 q 225 -260 275 -258 q 189 -261 201 -261 q 128 -257 154 -261 q 102 -243 113 -254 q 92 -217 92 -232 l 92 -215 q 92 -212 92 -214 q 92 -199 92 -206 q 90 -151 90 -176 q 88 17 89 -68 q 85 358 86 201 q 86 746 83 603 q 92 879 89 831 q 96 921 93 906 q 99 938 97 931 q 114 963 103 953 q 175 985 136 982 q 235 983 200 988 q 289 974 258 981 q 324 965 301 971 q 349 947 340 963 q 355 915 358 932 q 336 890 351 899 q 304 885 321 881 z "},"\\":{"ha":565,"x_min":-33,"x_max":425,"o":"m 47 983 q 136 729 79 868 q 247 478 171 643 q 282 401 272 424 q 425 51 381 186 q 423 19 431 35 q 399 -1 415 4 q 367 1 382 -7 q 346 25 351 8 q 207 367 303 156 q 171 443 196 389 q 58 697 94 610 q -33 961 0 842 q -29 993 -37 978 q -4 1013 -21 1008 q 28 1008 13 1017 q 47 983 43 1000 z "},"]":{"ha":418,"x_min":18,"x_max":279,"o":"m 65 -197 q 125 -207 90 -201 q 157 -211 147 -211 q 196 -207 171 -212 q 188 268 197 -60 q 181 533 182 443 q 181 900 176 743 q 86 897 132 904 q 56 906 69 896 q 40 934 42 917 q 48 965 38 951 q 76 981 58 978 q 231 979 158 990 q 258 963 247 976 q 265 931 268 949 q 265 922 265 926 q 264 535 260 758 q 271 271 265 446 q 279 -236 281 -74 q 267 -265 279 -253 q 240 -278 256 -276 q 219 -287 231 -286 q 151 -294 178 -296 q 111 -289 139 -294 q 54 -281 78 -283 q 26 -264 36 -278 q 18 -233 15 -250 q 34 -206 21 -217 q 65 -197 47 -196 z "},"^":{"ha":757,"x_min":96,"x_max":617,"o":"m 96 429 q 151 575 113 496 q 224 708 175 622 q 261 775 251 756 q 279 807 271 792 q 326 893 294 835 q 353 940 343 924 q 363 957 360 951 q 368 963 365 960 q 372 969 369 967 q 383 976 378 974 q 404 981 393 982 q 435 965 422 981 q 443 931 447 950 q 476 785 449 865 q 542 628 496 729 q 582 536 571 563 q 617 443 603 485 q 615 412 622 428 q 590 390 607 396 q 558 393 574 385 q 538 417 543 401 q 504 504 525 454 q 465 594 494 529 q 399 757 418 699 q 379 817 388 789 q 353 767 360 782 q 335 735 344 751 q 296 667 324 715 q 226 538 249 583 q 176 407 192 468 q 157 382 172 390 q 125 378 142 374 q 100 397 108 382 q 96 429 92 411 z "},"_":{"ha":935,"x_min":-32,"x_max":796,"o":"m 11 -100 q 354 -106 154 -106 q 532 -104 413 -106 q 754 -103 681 -103 q 784 -115 772 -103 q 796 -144 796 -126 q 784 -174 796 -161 q 754 -186 772 -186 q 532 -187 681 -186 q 354 -189 414 -189 q 8 -183 153 -189 q -21 -169 -10 -182 q -31 -140 -32 -157 q -18 -110 -31 -122 q 11 -100 -6 -99 z "},"`":{"ha":433,"x_min":74,"x_max":294,"o":"m 150 1017 q 282 847 224 906 q 294 817 294 835 q 283 788 294 800 q 253 776 271 776 q 224 788 236 776 q 81 971 158 853 q 74 1002 71 985 q 92 1028 78 1019 q 124 1034 107 1038 q 150 1017 142 1031 z "},"a":{"ha":883,"x_min":101,"x_max":744,"o":"m 561 385 q 250 264 357 351 q 188 188 206 226 q 182 133 175 157 q 211 101 188 113 q 290 90 242 86 q 561 217 407 101 q 561 226 561 221 q 561 350 560 269 q 561 361 561 354 q 561 385 561 375 m 113 551 q 193 666 135 613 q 325 746 251 719 q 474 761 404 774 q 604 679 556 747 q 643 536 636 635 q 644 360 647 483 q 644 349 644 353 q 643 251 643 285 q 658 240 651 249 q 667 210 668 228 q 651 182 665 193 q 647 178 649 181 q 653 129 649 150 q 675 71 661 89 q 703 58 686 58 q 733 46 721 58 q 744 16 744 33 q 733 -13 744 -1 q 703 -25 721 -25 q 610 19 646 -25 q 571 113 583 53 q 569 121 571 117 q 297 7 421 18 q 172 26 225 0 q 101 110 118 54 q 111 220 86 163 q 197 328 136 278 q 563 469 325 433 q 560 531 563 503 q 536 631 554 604 q 458 679 507 671 q 353 667 411 688 q 252 607 297 647 q 192 524 207 567 q 171 501 186 508 q 139 499 156 493 q 115 519 122 504 q 113 551 107 535 z "},"b":{"ha":838,"x_min":71,"x_max":699,"o":"m 154 213 q 247 103 178 133 q 406 100 318 72 q 556 204 497 128 q 615 406 619 290 q 551 544 613 485 q 407 619 492 601 q 261 604 324 636 q 179 486 196 569 q 154 456 175 464 q 154 213 153 317 m 71 200 q 71 219 71 201 q 71 472 69 329 q 86 985 74 879 q 101 1013 88 1001 q 131 1022 114 1024 q 160 1006 149 1019 q 168 975 171 993 q 156 625 160 903 q 224 678 185 657 q 424 700 311 724 q 610 604 533 678 q 699 408 694 521 q 621 154 704 263 q 431 20 547 57 q 215 26 314 -17 q 158 60 185 40 q 163 24 169 42 q 161 19 163 21 q 135 -8 156 -1 q 121 -11 128 -11 q 82 17 92 -11 q 76 35 78 28 q 74 42 75 39 q 73 47 74 44 q 72 53 72 50 q 75 65 74 60 q 71 178 72 101 q 71 200 71 189 z "},"c":{"ha":774,"x_min":58,"x_max":632,"o":"m 554 497 q 435 629 513 606 q 289 604 367 650 q 165 465 208 556 q 140 268 118 367 q 236 108 165 160 q 376 72 297 65 q 499 124 450 79 q 536 224 544 167 q 544 254 535 240 q 572 270 554 268 q 603 262 589 272 q 619 235 617 251 q 556 64 633 136 q 383 -11 486 -1 q 188 40 274 -21 q 58 250 90 110 q 90 501 31 378 q 246 675 144 614 q 460 710 356 742 q 632 526 576 674 q 631 494 639 510 q 608 473 624 479 q 576 474 592 467 q 554 497 560 481 z "},"d":{"ha":800,"x_min":67,"x_max":663,"o":"m 622 292 q 619 190 618 240 q 628 108 621 140 q 636 85 632 93 q 639 82 638 82 q 657 56 653 72 q 653 26 661 40 q 628 6 644 11 q 596 10 611 1 q 563 46 575 21 q 547 89 553 64 q 542 113 544 100 q 369 6 471 25 q 182 43 267 -15 q 67 228 94 104 q 85 508 33 375 q 232 696 133 631 q 440 739 336 765 q 563 661 511 721 q 564 667 563 664 q 565 714 564 697 q 579 969 571 872 q 594 997 581 986 q 624 1007 607 1008 q 653 992 642 1006 q 663 963 664 979 q 649 710 654 867 q 646 664 647 694 q 631 356 639 457 q 629 342 631 349 q 622 292 626 315 m 542 540 q 421 658 496 639 q 278 626 351 675 q 163 478 201 575 q 149 246 121 369 q 229 111 168 154 q 353 88 285 74 q 476 165 425 101 q 540 304 522 221 q 547 354 543 335 q 557 524 553 431 q 542 540 547 529 z "},"e":{"ha":824,"x_min":94,"x_max":686,"o":"m 590 410 l 590 411 q 589 417 589 414 q 586 429 588 422 l 585 433 l 583 439 q 581 456 581 451 q 511 590 567 547 q 393 622 463 629 q 263 568 324 617 q 175 439 199 517 q 167 411 171 425 q 318 414 219 417 q 332 414 322 414 q 438 413 403 413 q 494 411 449 414 q 538 410 519 410 q 590 410 569 408 m 158 326 q 192 217 161 267 q 343 104 240 136 q 519 103 440 72 q 603 207 596 132 q 618 235 604 224 q 649 244 632 246 q 676 228 665 242 q 686 199 688 215 q 644 92 679 138 q 550 25 608 47 q 318 24 443 -15 q 119 174 185 65 q 94 463 44 299 q 211 633 126 567 q 386 706 290 697 q 563 656 489 714 q 663 468 644 592 q 663 465 663 467 q 665 458 664 463 q 666 453 665 457 q 667 447 667 449 q 669 435 668 440 q 671 429 671 432 q 676 400 675 411 q 678 387 678 392 q 679 376 679 382 q 676 367 678 372 q 660 346 672 354 q 600 328 640 332 q 535 326 574 325 q 489 328 517 326 q 440 329 447 331 q 331 331 403 329 q 317 331 321 331 q 158 326 213 333 z "},"f":{"ha":528,"x_min":-1,"x_max":389,"o":"m 342 913 q 251 910 279 922 q 222 871 231 900 q 213 758 211 836 q 214 708 213 736 q 222 709 217 708 q 228 710 226 710 q 338 714 299 714 q 367 701 356 714 q 379 672 379 689 q 367 642 379 654 q 338 631 356 631 q 233 626 301 631 q 226 626 231 626 q 218 625 222 625 l 221 571 q 231 335 229 436 q 222 38 232 183 q 221 26 222 32 q 210 10 217 17 q 196 0 204 4 q 181 -3 189 -3 q 168 0 174 -3 q 151 9 158 3 q 142 25 144 15 q 139 33 140 29 q 139 36 139 35 q 138 46 138 40 l 138 47 q 136 60 138 51 q 135 72 135 69 q 135 76 135 75 l 135 79 l 135 81 q 135 88 135 83 q 136 93 136 90 q 139 99 138 96 q 143 106 140 101 q 147 333 149 217 q 138 567 146 433 q 135 621 136 594 l 133 621 q 36 625 79 621 q 8 640 18 626 q -1 670 -3 653 q 13 699 0 688 q 44 707 26 710 q 131 704 82 704 q 129 757 129 735 q 142 896 128 847 q 217 986 163 961 q 353 994 267 1007 q 381 979 371 993 q 388 948 390 965 q 372 920 386 931 q 342 913 358 910 z "},"g":{"ha":796,"x_min":75,"x_max":656,"o":"m 561 524 q 449 643 517 615 q 310 635 381 672 q 192 503 235 596 q 158 272 143 400 q 176 217 161 251 q 221 146 194 176 q 360 86 283 69 q 506 200 457 108 q 557 410 547 278 q 561 524 561 461 m 656 492 q 646 400 646 463 q 649 261 644 361 q 651 143 651 185 q 643 -31 653 42 q 599 -185 631 -124 q 300 -294 514 -343 q 176 -244 217 -275 q 99 -136 136 -212 q 96 -105 90 -121 q 117 -81 101 -89 q 149 -78 132 -72 q 172 -99 165 -83 q 228 -178 201 -158 q 319 -212 253 -197 q 456 -211 403 -232 q 525 -144 499 -194 q 568 142 569 -60 q 379 6 501 33 q 249 18 311 -10 q 157 92 199 42 q 102 178 125 131 q 75 264 79 226 q 117 539 58 414 q 271 708 171 656 q 481 721 378 764 q 560 668 524 703 l 560 672 q 572 702 560 690 q 602 714 585 714 q 631 702 619 714 q 643 672 643 690 q 644 607 643 654 q 644 543 644 569 q 650 531 647 538 q 653 521 653 526 q 656 492 660 507 z "},"h":{"ha":801,"x_min":86,"x_max":663,"o":"m 183 967 q 169 749 169 875 q 174 611 169 689 q 314 711 235 679 q 471 729 397 746 q 610 626 557 710 q 663 458 656 554 q 653 290 665 397 q 650 271 651 283 q 638 144 639 185 q 649 35 636 81 q 646 3 654 18 q 621 -17 638 -12 q 590 -14 604 -22 q 569 11 575 -6 q 554 147 551 69 q 567 281 556 192 q 569 301 569 294 q 579 453 582 400 q 540 582 574 528 q 453 647 506 636 q 346 635 404 658 q 246 567 292 613 q 181 471 200 521 q 189 261 188 335 q 181 44 192 136 q 166 16 179 26 q 135 8 153 6 q 107 23 118 10 q 99 53 96 36 q 106 260 108 140 q 97 468 104 331 q 97 481 96 474 q 96 485 96 483 q 94 508 96 500 q 86 749 86 664 q 100 979 86 881 q 117 1006 103 996 q 148 1014 131 1017 q 175 997 165 1011 q 183 967 185 983 z "},"i":{"ha":346,"x_min":97,"x_max":208,"o":"m 183 931 q 185 926 185 929 q 183 895 190 911 q 160 874 176 879 q 110 885 131 863 q 99 906 101 894 q 97 918 97 911 q 104 950 97 936 q 128 971 113 965 q 160 969 144 976 q 183 931 183 957 m 181 696 q 208 354 213 563 q 203 219 207 307 q 197 38 197 94 q 185 8 197 21 q 156 -4 174 -4 q 126 8 139 -4 q 114 38 114 21 q 119 222 114 97 q 125 356 124 310 q 99 676 129 554 q 105 708 96 693 q 131 727 114 724 q 162 722 147 731 q 181 696 176 713 z "},"j":{"ha":332,"x_min":-44,"x_max":193,"o":"m 139 981 q 158 974 150 979 q 182 942 178 963 q 182 917 185 929 q 168 883 179 897 q 158 874 164 878 q 138 865 149 867 q 101 875 117 861 q 93 885 97 879 q 82 901 86 892 q 83 944 74 921 q 101 969 89 960 q 139 981 118 985 m 188 679 q 185 547 183 646 q 189 336 185 493 q 192 249 190 283 q 193 -42 196 58 q 168 -226 190 -190 q 68 -282 136 -281 q -25 -257 18 -283 q -44 -231 -40 -247 q -40 -199 -49 -214 q -14 -181 -31 -185 q 18 -186 3 -176 q 67 -199 40 -200 q 96 -185 88 -199 l 97 -182 q 99 -174 99 -179 q 104 -142 103 -161 q 110 -40 108 -104 q 108 246 113 58 q 106 335 107 281 q 101 546 101 492 q 104 689 100 650 q 119 717 106 706 q 150 726 133 728 q 178 710 167 724 q 188 679 189 697 z "},"k":{"ha":744,"x_min":82,"x_max":607,"o":"m 176 956 q 165 517 161 869 q 167 385 165 451 q 307 532 229 454 q 524 722 471 699 q 556 724 540 729 q 579 702 572 718 q 580 670 586 686 q 558 647 574 654 q 365 474 519 629 q 356 464 361 469 q 360 457 358 460 q 597 60 439 264 q 606 29 608 46 q 590 1 604 13 q 560 -8 576 -10 q 532 8 543 -6 q 293 399 378 206 q 178 268 204 304 q 171 261 175 264 q 182 43 175 110 q 173 12 183 25 q 145 -3 163 -1 q 115 6 128 -4 q 99 35 101 17 q 82 517 85 176 q 94 971 78 876 q 112 997 97 988 q 143 1004 126 1007 q 169 987 160 1001 q 176 956 179 972 z "},"l":{"ha":336,"x_min":99,"x_max":196,"o":"m 182 968 q 190 778 190 910 q 189 521 192 693 q 188 493 189 511 q 186 208 185 289 q 196 53 186 79 q 194 22 201 38 q 169 1 186 6 q 138 3 153 -4 q 117 26 122 11 q 103 208 103 65 q 104 494 101 289 q 106 522 106 513 q 107 778 108 693 q 99 957 107 903 q 108 989 97 975 q 135 1005 118 1003 q 166 997 153 1007 q 182 968 179 986 z "},"m":{"ha":1186,"x_min":83,"x_max":1046,"o":"m 571 594 q 610 640 589 619 q 746 714 671 701 q 1015 608 947 747 q 1046 476 1042 556 q 1042 331 1050 418 q 1036 261 1040 306 q 1025 143 1026 176 q 1029 60 1022 89 q 1024 28 1033 43 q 997 10 1014 14 q 966 15 981 6 q 947 42 951 25 q 942 147 939 81 q 953 269 944 183 q 960 338 957 313 q 940 572 974 506 q 885 626 922 611 q 760 632 839 644 q 670 583 713 624 q 606 485 628 542 q 604 482 606 483 q 610 449 607 467 q 618 210 625 344 q 601 29 614 110 q 585 1 599 11 q 554 -6 571 -8 q 527 10 538 -4 q 519 42 517 24 q 536 213 532 118 q 528 438 542 342 q 469 603 511 553 q 357 631 429 653 q 186 456 247 597 q 179 443 183 449 q 182 379 181 411 q 190 28 190 174 q 178 -2 190 10 q 148 -14 165 -14 q 119 -2 131 -14 q 107 28 107 10 q 99 376 107 172 q 90 556 96 438 q 83 692 86 649 q 94 722 83 710 q 123 735 106 735 q 153 725 140 736 q 167 696 167 714 q 171 596 168 657 q 193 622 182 610 q 332 710 253 686 q 535 656 458 749 q 571 594 556 631 z "},"n":{"ha":810,"x_min":85,"x_max":671,"o":"m 172 418 q 174 385 174 401 q 204 38 176 164 q 199 6 208 21 q 172 -12 189 -8 q 141 -7 156 -17 q 124 19 126 3 q 90 383 93 154 q 89 475 89 414 q 85 689 89 619 q 95 719 83 706 q 124 733 107 732 q 154 722 142 733 q 168 693 167 710 q 171 618 169 656 q 214 661 190 642 q 435 721 306 738 q 633 568 576 703 q 671 314 671 478 q 669 210 671 278 q 671 51 667 94 q 661 22 672 35 q 633 6 650 8 q 602 15 615 4 q 588 43 589 26 q 586 213 583 92 q 588 313 588 278 q 556 536 588 461 q 424 639 518 626 q 267 597 331 650 q 206 524 229 565 q 183 447 182 482 q 172 418 183 431 z "},"o":{"ha":825,"x_min":63,"x_max":685,"o":"m 499 635 q 331 675 413 701 q 192 540 246 647 q 146 307 135 429 q 247 101 157 176 q 419 57 335 26 q 554 192 501 86 q 601 417 610 300 q 511 614 593 542 q 499 635 503 622 m 586 658 q 685 424 675 565 q 629 154 694 283 q 449 -21 560 19 q 193 38 318 -69 q 63 300 78 135 q 117 578 49 446 q 306 754 188 717 q 574 682 442 799 q 586 658 583 672 z "},"p":{"ha":839,"x_min":82,"x_max":697,"o":"m 169 265 q 189 240 185 257 q 247 144 201 189 q 353 76 292 99 q 468 64 414 54 q 564 122 525 75 q 614 292 603 171 q 610 488 624 392 q 526 613 599 569 q 367 644 458 653 q 219 588 276 638 q 172 463 163 538 q 165 433 175 447 q 168 343 167 392 q 169 265 168 307 m 92 -242 q 93 -236 93 -242 q 96 -214 93 -231 l 96 -212 q 96 -74 97 -161 q 89 194 96 -4 q 85 342 86 285 q 82 699 78 565 q 94 728 82 717 q 124 740 107 740 q 153 726 142 739 q 165 696 165 714 q 164 650 164 674 l 165 650 q 360 728 242 718 q 569 683 478 738 q 693 499 675 621 q 697 283 707 394 q 628 69 683 138 q 491 -17 574 1 q 324 -1 408 -35 q 175 99 236 31 q 179 -72 179 -8 q 181 -172 181 -131 q 182 -179 182 -176 q 176 -264 183 -187 q 163 -292 175 -281 q 135 -303 150 -303 q 131 -301 132 -303 q 105 -289 115 -300 q 93 -262 94 -278 q 92 -258 93 -261 q 92 -242 90 -250 z "},"q":{"ha":810,"x_min":35,"x_max":667,"o":"m 658 683 q 658 544 656 654 q 664 303 658 489 q 667 213 665 250 q 663 -262 676 -182 q 645 -289 660 -279 q 614 -296 631 -299 q 588 -279 597 -293 q 581 -249 578 -265 q 586 72 590 -187 q 464 -8 535 19 q 282 -22 372 -44 q 110 94 181 3 q 35 303 43 179 q 76 535 26 428 q 231 699 129 650 q 489 701 346 753 q 574 643 539 683 q 575 692 574 675 q 591 719 578 708 q 621 729 604 731 q 649 714 638 728 q 658 683 660 700 m 578 368 q 565 450 569 425 q 526 567 551 525 q 461 624 501 608 q 267 624 350 663 q 151 499 193 588 q 117 312 111 413 q 175 144 124 211 q 301 58 228 76 q 435 69 367 43 q 540 146 499 94 q 578 251 581 197 q 582 271 578 261 q 581 301 581 285 q 579 361 579 342 q 578 368 578 365 z "},"r":{"ha":569,"x_min":96,"x_max":432,"o":"m 96 46 l 96 49 q 96 52 96 50 q 96 57 96 54 q 96 64 96 60 q 96 78 96 74 q 96 83 96 82 q 96 86 96 85 l 96 88 q 97 90 96 89 l 97 92 q 97 107 97 99 q 98 139 97 115 q 100 186 99 163 l 100 208 q 103 443 103 350 q 96 694 103 596 q 107 725 96 713 q 135 739 118 738 q 166 729 153 740 q 179 700 179 718 q 183 607 182 658 q 385 697 257 683 q 416 688 403 699 q 431 660 429 678 q 422 630 433 643 q 394 614 411 617 q 268 570 315 606 q 189 460 221 535 q 186 454 188 457 q 186 449 186 453 q 186 443 186 444 q 183 207 186 349 l 183 183 q 181 138 182 161 q 181 104 181 114 q 179 32 179 56 q 167 2 179 14 q 138 -10 156 -10 q 108 2 121 -10 q 96 32 96 14 l 96 35 l 96 39 l 96 46 z "},"s":{"ha":753,"x_min":50,"x_max":614,"o":"m 522 547 q 486 626 528 594 q 369 660 440 658 q 240 624 296 660 q 167 517 181 586 q 168 503 164 508 q 188 486 172 494 q 300 444 217 468 q 360 428 346 432 q 531 356 476 394 q 614 189 621 292 q 524 26 606 82 q 353 -15 454 -21 q 178 38 260 -10 q 51 172 88 90 q 51 205 44 189 q 73 228 57 221 q 105 228 89 235 q 128 207 121 222 q 218 111 153 150 q 358 68 283 72 q 476 94 431 64 q 531 196 525 128 q 483 288 535 251 q 336 347 440 318 l 276 364 q 144 414 183 390 q 96 461 111 435 q 85 532 76 493 q 194 694 106 636 q 371 743 271 743 q 535 693 468 742 q 606 539 614 635 q 591 511 604 522 q 560 501 578 500 q 532 516 543 503 q 522 547 521 529 z "},"t":{"ha":522,"x_min":-24,"x_max":383,"o":"m 224 903 q 221 731 219 824 q 299 731 267 732 q 338 726 322 729 q 356 721 349 725 q 383 690 378 711 q 378 658 388 674 q 353 639 369 643 q 319 646 335 635 q 296 647 311 647 q 224 647 267 649 q 228 564 225 610 q 229 519 228 549 q 239 254 239 342 q 242 172 239 228 q 243 85 243 114 l 243 81 q 243 75 243 79 q 243 65 243 69 q 246 63 244 64 q 253 31 256 49 q 236 4 250 14 q 185 3 210 -14 q 169 18 175 8 q 164 31 165 24 q 160 61 160 43 q 160 78 160 68 l 160 81 l 160 83 l 160 85 q 158 168 160 113 q 156 254 156 225 q 146 515 156 340 q 144 560 144 544 q 140 642 142 606 q 29 629 53 636 q -3 632 13 624 q -23 657 -18 640 q -19 689 -28 674 q 6 708 -11 704 q 138 725 39 718 q 140 907 136 825 q 155 936 142 925 q 185 947 168 947 q 214 933 203 946 q 224 903 225 919 z "},"u":{"ha":817,"x_min":99,"x_max":678,"o":"m 643 261 q 635 144 629 222 q 644 79 638 107 q 658 47 651 56 q 671 17 671 35 q 658 -12 671 0 q 628 -24 646 -24 q 600 -11 611 -24 q 564 58 576 13 q 556 96 560 75 q 513 49 536 69 q 286 -3 417 -35 q 132 118 174 25 q 99 276 101 185 q 107 433 97 331 q 108 443 107 438 q 117 571 117 529 q 107 682 118 636 q 110 713 101 699 q 136 733 119 728 q 167 728 153 738 q 188 703 182 719 q 200 569 201 646 q 192 435 200 525 q 190 426 190 429 q 182 278 181 328 q 207 153 185 204 q 307 78 233 96 q 458 111 394 56 q 556 278 518 164 q 594 506 589 382 q 579 694 599 619 q 583 726 574 711 q 608 745 592 740 q 640 742 625 750 q 658 717 654 733 q 678 514 682 635 q 644 285 674 393 q 643 261 647 274 z "},"v":{"ha":771,"x_min":17,"x_max":631,"o":"m 90 717 q 178 571 140 658 q 235 408 206 508 q 244 374 239 394 q 250 356 246 371 q 254 339 254 342 q 306 183 285 233 q 340 114 322 143 q 385 221 363 163 q 444 403 408 285 q 447 411 446 407 q 450 421 449 413 q 497 565 481 517 q 553 708 525 647 q 576 730 560 724 q 608 729 592 736 q 630 706 624 722 q 629 675 636 690 q 576 539 603 617 q 531 396 560 490 q 528 388 528 389 q 525 379 525 382 q 463 192 488 257 q 382 11 425 89 q 357 -9 374 -4 q 325 -6 340 -14 q 304 25 308 4 q 229 151 263 71 q 175 315 206 206 q 169 333 174 318 q 164 350 165 347 q 154 385 158 371 q 101 538 126 479 q 26 663 68 614 q 17 692 15 675 q 31 721 18 710 q 62 731 44 732 q 90 717 79 729 z "},"w":{"ha":1088,"x_min":19,"x_max":949,"o":"m 513 700 q 565 585 535 671 q 619 415 586 526 q 629 381 624 400 q 694 169 678 221 q 704 143 700 154 q 711 157 707 149 q 718 172 715 167 q 739 228 733 207 q 796 435 756 296 q 867 706 846 614 q 885 731 871 722 q 917 737 900 740 q 942 719 933 733 q 949 688 951 704 q 875 413 928 594 q 819 207 836 275 q 793 138 813 179 q 786 122 792 132 q 756 38 760 64 q 739 10 753 21 q 708 3 725 0 q 679 21 690 6 q 661 38 671 26 q 646 67 654 49 q 615 143 632 93 q 550 357 597 194 q 540 392 544 376 q 488 557 507 501 q 471 600 479 581 q 394 321 429 494 q 374 211 385 275 q 364 164 372 210 q 354 106 356 118 q 342 39 347 67 q 323 13 338 22 q 292 6 308 3 q 285 8 289 7 q 256 25 267 10 q 206 143 244 40 q 129 353 174 229 q 57 565 88 474 q 19 688 22 668 q 28 718 18 704 q 56 734 39 732 q 86 726 72 736 q 103 699 100 715 q 104 689 103 697 q 111 665 107 681 q 136 592 121 638 q 208 381 165 500 q 282 176 250 261 q 292 226 290 225 q 313 338 303 292 q 425 699 360 571 q 449 719 432 714 q 481 718 465 725 q 485 715 483 717 q 513 700 501 713 z "},"x":{"ha":764,"x_min":57,"x_max":625,"o":"m 122 724 q 185 660 156 701 q 231 588 204 635 q 235 579 231 586 q 239 571 239 572 q 279 506 264 526 q 321 449 299 481 q 535 728 406 567 q 562 744 544 742 q 592 735 579 746 q 608 706 606 724 q 599 676 610 689 q 371 376 461 503 q 411 318 404 328 q 614 64 532 146 q 625 35 625 53 q 613 6 625 18 q 584 -7 601 -7 q 554 6 567 -7 q 343 271 468 92 q 321 303 338 279 q 133 -8 204 133 q 110 -29 126 -24 q 78 -27 93 -35 q 57 -3 63 -19 q 58 29 51 14 q 269 376 138 188 q 213 456 236 424 q 167 531 194 481 q 162 538 165 532 q 157 546 158 544 q 118 611 133 590 q 75 656 96 640 q 58 682 61 665 q 64 713 54 699 q 91 731 74 728 q 122 724 108 733 z "},"y":{"ha":785,"x_min":33,"x_max":644,"o":"m 111 713 q 268 332 174 578 q 353 104 311 219 q 358 100 356 103 q 364 94 361 97 l 365 94 q 422 256 392 164 q 463 385 439 310 q 472 415 464 389 q 488 469 479 442 q 500 507 497 496 q 567 700 543 644 q 590 723 574 717 q 622 722 606 729 q 644 699 638 715 q 643 668 650 683 q 579 482 621 615 q 568 444 576 472 q 551 390 560 417 q 542 361 543 364 q 501 231 518 285 q 381 -81 436 33 q 222 -285 304 -239 q 154 -307 192 -303 q 111 -306 131 -310 q 67 -275 81 -299 q 61 -243 57 -260 q 79 -218 65 -226 q 108 -212 93 -210 q 132 -225 122 -214 q 143 -225 136 -225 q 182 -212 165 -222 q 306 -44 240 -179 q 315 -25 311 -35 q 304 -8 307 -18 q 190 301 254 135 q 36 676 97 544 q 34 708 28 692 q 56 732 40 725 q 87 733 71 739 q 111 713 103 728 z "},"z":{"ha":781,"x_min":46,"x_max":643,"o":"m 79 699 q 389 719 199 721 q 461 718 413 718 q 578 717 539 717 q 607 704 594 717 q 619 675 619 692 q 614 654 619 664 q 607 639 613 646 q 490 486 567 579 l 349 317 q 278 232 308 268 q 175 97 217 156 q 219 97 196 97 q 339 92 258 96 q 471 88 428 88 q 594 94 542 88 q 626 87 613 97 q 642 60 640 76 q 634 29 644 43 q 607 13 624 15 q 471 4 547 4 q 335 8 426 4 q 219 14 256 13 q 108 10 157 14 q 90 13 99 8 q 72 19 81 14 q 53 45 57 28 q 60 76 50 63 q 214 283 115 163 q 285 369 244 321 q 426 539 396 503 q 501 633 471 594 q 458 635 485 633 q 388 636 411 635 q 94 617 206 638 q 63 624 78 614 q 46 651 49 633 q 53 682 43 668 q 79 699 63 696 z "},"{":{"ha":597,"x_min":-21,"x_max":457,"o":"m 404 926 q 322 879 353 932 q 293 806 307 853 q 269 710 283 774 q 265 696 268 708 q 263 681 263 683 q 256 651 258 664 q 189 456 225 522 q 136 385 165 414 q 189 319 167 361 q 222 217 208 281 q 244 104 232 181 q 245 101 244 103 q 246 99 246 100 q 268 -17 258 21 q 299 -103 282 -72 q 336 -140 315 -132 q 403 -133 361 -149 q 434 -135 418 -128 q 456 -158 450 -142 q 456 -190 463 -174 q 432 -211 449 -206 q 226 -144 294 -264 q 186 -36 203 -104 q 163 85 176 3 q 163 90 163 86 q 142 199 150 164 q 114 282 129 251 q 81 321 99 313 q 32 322 63 332 q 21 321 26 321 q -4 329 7 321 q -19 351 -15 338 q -21 363 -21 357 q -12 388 -21 376 q 10 403 -4 399 q 115 496 75 422 q 175 671 147 553 q 181 700 178 683 q 185 715 182 703 q 188 728 188 726 q 214 831 203 794 q 250 921 229 885 q 414 1010 307 1021 q 442 994 431 1008 q 451 964 453 981 q 435 936 449 947 q 404 926 422 925 z "},"|":{"ha":339,"x_min":92,"x_max":201,"o":"m 192 964 q 175 599 168 849 q 182 432 178 535 q 190 254 189 294 q 194 168 190 231 q 196 158 194 163 q 200 72 200 101 q 200 43 200 56 q 201 32 201 38 q 194 1 201 24 q 181 -21 192 -12 q 154 -29 169 -29 q 144 -28 150 -29 q 122 -14 131 -25 q 113 13 113 -3 q 114 19 113 15 q 113 26 113 22 q 117 44 113 36 q 113 153 118 74 q 111 163 113 157 q 107 251 107 226 q 99 428 106 292 q 92 596 94 532 q 110 981 85 856 q 128 1007 114 997 q 159 1013 142 1017 q 185 995 176 1010 q 192 964 194 981 z "},"}":{"ha":614,"x_min":7,"x_max":476,"o":"m 71 1017 q 251 851 201 960 q 282 749 271 808 q 294 643 288 714 q 313 501 303 547 q 401 417 325 436 q 426 410 406 415 q 440 404 435 407 q 446 403 443 404 q 448 403 447 403 q 449 402 449 403 q 453 400 450 401 q 458 397 454 400 q 468 388 463 394 q 471 382 469 386 q 475 374 474 379 q 476 360 476 367 q 472 344 475 351 q 449 319 465 331 q 426 304 440 313 l 401 290 q 376 275 386 282 q 319 224 332 249 q 294 107 297 179 q 294 53 294 89 q 290 -39 294 -8 q 264 -135 285 -94 q 58 -278 214 -235 q 27 -275 42 -283 q 8 -250 13 -267 q 11 -218 3 -233 q 36 -199 19 -203 q 190 -97 156 -164 q 208 -31 204 -69 q 211 53 211 -4 q 211 110 211 90 q 246 261 215 200 q 332 346 268 307 q 339 350 335 349 q 231 485 250 392 q 211 635 221 536 q 200 735 206 701 q 175 817 190 782 q 38 940 139 896 q 15 963 21 947 q 15 995 8 979 q 39 1017 22 1011 q 71 1017 56 1024 z "},"~":{"ha":953,"x_min":1,"x_max":813,"o":"m 1 229 q 165 413 33 392 q 282 408 213 419 q 400 381 318 401 q 440 371 425 374 q 618 351 558 342 q 736 443 696 364 q 760 464 744 458 q 792 462 776 469 q 813 438 807 454 q 811 406 818 422 q 632 269 751 289 q 525 269 585 261 q 419 289 482 274 q 379 300 406 293 q 267 326 300 319 q 178 329 213 335 q 121 301 143 324 q 83 213 94 272 q 65 186 79 196 q 33 180 50 176 q 7 197 17 183 q 1 229 -3 211 z "},"":{"ha":435,"x_min":144,"x_max":292,"o":"m 144 643 q 144 675 140 658 q 173 726 150 706 q 226 744 196 746 q 292 701 276 742 q 290 638 303 672 q 258 592 279 611 q 232 576 246 581 q 189 578 210 568 q 149 617 158 593 q 144 643 143 629 m 267 454 q 247 65 253 308 q 244 -240 244 -74 q 233 -270 244 -258 q 203 -282 221 -282 q 174 -271 186 -282 q 161 -243 163 -260 q 161 -240 161 -242 q 160 -229 160 -235 l 161 -228 q 161 -225 161 -226 q 161 -209 161 -221 q 161 -193 161 -197 q 161 -187 161 -190 q 161 -185 161 -186 q 161 -183 161 -183 l 161 -182 q 164 68 161 -51 q 183 463 169 314 q 198 490 185 479 q 228 500 211 501 q 257 485 246 499 q 267 454 268 472 z "},"":{"ha":860,"x_min":89,"x_max":719,"o":"m 240 115 q 331 399 274 229 q 356 469 343 433 q 424 661 382 546 q 357 646 390 660 q 224 521 275 611 q 172 283 164 419 q 240 115 178 183 m 190 -128 q 215 24 189 -79 q 183 54 197 38 q 89 278 97 146 q 150 563 79 439 q 325 722 217 678 q 453 743 389 749 q 504 890 490 850 q 525 914 510 906 q 557 917 540 922 q 581 895 574 911 q 583 864 589 879 q 533 721 569 824 q 535 719 535 721 q 678 524 640 667 q 674 492 682 507 q 649 474 665 478 q 617 478 632 469 q 597 503 601 486 q 504 642 571 603 q 435 443 461 519 q 410 372 421 406 q 313 67 346 186 q 311 60 311 64 q 389 33 347 40 q 540 60 474 18 q 639 203 614 104 q 658 228 643 219 q 689 232 672 236 q 715 213 706 228 q 719 182 724 199 q 583 -12 686 50 q 375 -49 490 -69 q 289 -22 331 -42 q 274 -125 272 -94 q 262 -156 274 -143 q 233 -168 250 -168 q 203 -156 215 -168 q 190 -128 190 -144 z "},"":{"ha":846,"x_min":53,"x_max":707,"o":"m 624 703 q 549 862 618 800 q 378 924 481 924 q 233 856 289 924 q 185 756 189 803 q 203 669 182 718 q 219 635 210 656 q 231 615 224 628 q 232 611 231 614 l 235 607 q 240 596 239 600 q 264 549 256 568 q 310 551 286 550 q 549 531 489 554 q 571 508 564 524 q 572 477 578 493 q 549 454 565 461 q 517 453 533 447 q 311 468 474 471 q 294 467 303 467 q 304 421 301 443 q 299 321 310 375 q 274 232 292 289 q 263 193 265 204 q 251 160 257 175 l 253 160 q 376 114 307 154 q 608 143 504 40 q 638 156 621 156 q 667 144 654 156 q 679 115 679 132 q 667 85 679 97 q 508 1 594 13 q 335 42 422 -10 q 244 76 281 72 q 221 76 232 78 q 210 53 215 64 q 176 6 193 21 q 147 -11 163 -7 q 107 -7 126 -17 q 82 26 86 4 q 83 53 79 39 q 97 76 88 64 q 103 86 100 82 q 113 97 107 92 q 115 100 114 99 l 117 101 l 117 103 l 117 103 q 157 139 135 125 q 182 215 169 172 q 194 257 186 228 q 217 338 211 310 q 221 410 225 378 q 210 463 218 436 q 108 446 131 456 q 76 445 93 439 q 53 467 60 451 q 53 499 46 483 q 75 522 60 515 q 175 543 104 535 q 167 557 171 550 q 161 567 165 561 l 160 572 q 157 576 157 575 q 146 596 150 589 q 126 636 135 619 q 101 763 97 704 q 168 908 108 835 q 378 1007 249 1007 q 606 923 513 1007 q 707 708 699 839 q 697 678 708 692 q 669 664 686 665 q 638 674 651 663 q 624 703 625 686 z "},"":{"ha":851,"x_min":53,"x_max":714,"o":"m 128 775 q 131 772 129 774 q 188 718 150 746 q 201 707 190 715 q 229 728 215 718 q 451 753 335 799 l 453 753 q 492 736 476 757 l 493 736 q 511 724 497 732 q 550 694 536 706 q 649 810 590 771 q 681 817 664 819 q 707 799 697 814 q 713 767 717 785 q 696 742 710 750 q 614 636 647 708 q 665 546 651 593 q 631 342 696 449 q 613 315 622 328 q 683 233 656 276 q 690 202 693 219 q 673 176 688 185 q 641 169 658 167 q 615 188 624 172 q 554 256 592 222 q 369 208 481 200 q 197 263 267 218 q 143 185 164 229 q 119 163 136 168 q 88 165 103 157 q 66 188 72 172 q 68 221 60 204 q 136 319 94 276 q 128 331 132 325 q 101 549 65 425 q 146 644 115 600 q 136 651 139 650 q 64 721 92 688 q 61 725 63 724 q 53 756 51 739 q 69 784 56 774 q 101 792 83 794 q 128 775 118 789 m 424 674 q 275 658 346 706 q 243 632 258 647 q 238 624 242 628 q 228 614 233 618 q 181 525 196 575 q 197 376 156 439 q 376 292 246 303 q 483 308 440 286 q 560 386 525 329 q 586 521 606 460 q 558 572 578 547 q 547 574 553 572 q 519 613 519 583 q 464 654 500 631 q 442 669 447 665 l 440 671 q 424 674 432 671 z "},"":{"ha":860,"x_min":25,"x_max":722,"o":"m 57 628 q 71 631 64 629 q 150 635 99 635 q 186 635 174 635 l 185 636 q 42 892 58 851 q 43 924 36 908 q 66 947 50 940 q 98 946 82 953 q 119 922 114 939 q 257 678 133 888 q 351 524 313 585 q 381 478 368 496 q 583 828 447 601 l 611 874 q 639 919 628 901 q 664 938 647 933 q 695 933 681 942 q 714 908 710 925 q 710 876 718 890 q 682 831 699 858 q 656 785 661 796 q 571 643 606 701 q 615 646 585 644 q 667 649 650 647 q 675 649 671 649 q 706 641 692 651 q 722 613 719 631 q 713 582 724 596 q 685 567 701 568 q 674 565 679 565 q 618 563 656 564 q 556 558 576 561 q 525 567 539 556 q 439 410 478 483 l 440 410 q 669 413 593 413 q 699 401 688 413 q 711 372 711 389 q 699 342 711 354 q 669 329 688 329 q 443 326 594 329 q 411 325 421 325 q 394 24 394 176 q 382 -6 394 6 q 352 -18 369 -18 q 323 -6 335 -18 q 311 24 311 6 q 326 324 311 175 q 106 324 199 321 q 77 336 89 324 q 66 366 65 349 q 79 395 67 383 q 108 407 92 407 q 329 407 200 404 q 281 479 313 428 q 232 557 260 513 q 229 556 231 556 q 150 551 201 551 q 83 549 104 551 q 75 546 79 547 q 43 552 57 543 q 25 578 29 561 q 31 610 21 596 q 57 628 40 624 z "},"":{"ha":350,"x_min":104,"x_max":211,"o":"m 189 983 q 196 792 182 917 q 197 776 196 786 q 208 619 208 672 q 197 590 208 601 q 167 578 185 578 q 138 590 150 578 q 125 619 125 601 q 114 767 125 668 q 113 782 113 776 q 104 885 106 847 q 106 992 100 944 q 122 1020 108 1010 q 152 1029 135 1031 q 180 1014 169 1028 q 189 983 190 1000 m 192 360 q 192 274 189 322 q 200 182 194 243 q 203 167 201 172 q 211 35 211 83 q 199 5 211 17 q 170 -7 188 -7 q 140 5 153 -7 q 128 35 128 17 q 119 158 128 79 q 118 174 119 163 q 108 268 111 236 q 108 365 106 322 q 123 394 110 383 q 153 404 136 406 q 182 390 171 403 q 192 360 193 376 z "},"":{"ha":853,"x_min":82,"x_max":714,"o":"m 529 749 q 440 856 497 822 q 335 878 390 885 q 254 842 285 872 q 231 769 225 811 q 300 663 236 724 q 454 539 346 618 q 574 451 542 476 q 669 360 636 400 q 714 250 714 303 q 654 135 714 188 q 569 79 622 106 q 605 -90 608 11 q 524 -247 601 -192 q 364 -292 458 -296 q 203 -237 274 -287 q 107 -89 124 -181 q 113 -57 103 -71 q 140 -40 124 -43 q 171 -47 157 -36 q 189 -74 185 -57 q 251 -169 199 -132 q 368 -208 301 -206 q 475 -181 433 -211 q 522 -87 519 -149 q 472 71 526 17 q 413 113 450 93 q 333 149 388 126 l 328 150 q 322 153 324 153 q 311 157 317 156 q 225 197 257 181 q 143 258 176 225 q 82 390 89 313 q 113 533 75 467 q 217 628 150 600 q 147 760 156 696 q 190 894 138 838 q 326 961 242 951 q 482 928 408 971 q 606 781 563 881 q 606 749 613 765 q 584 726 600 733 q 552 726 568 719 q 529 749 536 732 m 269 557 q 192 503 221 547 q 165 406 163 460 q 201 317 167 353 q 265 271 226 292 q 344 235 293 256 q 354 229 349 232 q 361 228 356 229 l 365 225 q 451 186 422 201 q 517 143 489 167 q 528 151 521 149 q 600 197 574 175 q 631 250 631 225 q 604 308 631 274 q 521 386 578 342 q 406 472 490 410 q 285 564 324 531 q 269 557 278 558 z "},"":{"ha":544,"x_min":35,"x_max":404,"o":"m 47 861 q 38 881 42 869 q 35 913 33 894 q 68 972 38 950 q 149 972 108 1003 q 179 883 197 936 q 132 829 167 849 q 97 818 114 819 q 65 829 79 818 q 47 860 51 840 l 47 861 m 260 888 q 276 946 256 922 q 329 972 296 969 q 389 948 365 975 q 404 881 413 921 q 379 839 400 860 q 346 815 364 825 q 299 806 319 801 q 264 825 276 808 q 254 865 251 842 q 260 888 256 876 z "},"":{"ha":1154,"x_min":-7,"x_max":1015,"o":"m 699 872 q 553 917 636 910 q 385 899 471 924 q 225 821 296 874 q 118 701 154 768 q 76 476 72 614 q 128 249 81 342 q 315 104 181 144 q 596 100 446 65 q 842 224 749 133 q 932 449 940 319 q 885 633 925 542 q 785 785 846 724 q 763 803 778 792 q 756 808 761 804 q 722 836 735 825 q 699 872 707 853 m 769 917 q 772 910 771 913 q 806 875 778 896 q 813 869 811 871 q 843 844 832 856 q 963 667 917 771 q 1015 454 1008 563 q 900 164 1026 288 q 614 18 790 57 q 292 25 443 -21 q 53 211 122 75 q -7 474 -1 321 q 44 739 -11 633 q 172 886 88 824 q 363 979 257 949 q 572 999 468 1010 q 754 935 676 988 q 769 917 764 928 m 661 604 q 633 659 654 635 q 579 696 611 683 q 456 682 511 722 q 371 554 393 636 q 372 403 349 475 q 449 306 396 331 q 597 315 510 276 q 652 353 629 331 q 681 396 675 375 q 699 422 685 413 q 731 426 714 431 q 757 408 749 422 q 761 376 765 393 q 708 292 750 331 q 632 240 676 261 q 413 231 510 183 q 293 376 328 272 q 290 575 263 474 q 407 750 319 686 q 506 788 451 782 q 610 774 560 793 q 695 714 660 754 q 743 622 731 674 q 737 591 746 606 q 711 573 728 576 q 680 578 694 569 q 661 604 665 588 z "},"":{"ha":643,"x_min":49,"x_max":504,"o":"m 322 746 q 222 726 289 756 q 211 721 219 725 q 174 706 188 710 q 146 684 158 699 q 132 656 133 669 q 133 647 131 649 q 139 643 135 644 q 161 642 149 640 q 206 650 181 642 q 256 671 222 656 q 272 679 267 676 q 311 694 294 689 q 326 697 319 697 q 322 746 325 715 m 75 896 q 109 977 85 946 q 178 1028 133 1008 q 285 1044 238 1056 q 358 988 331 1033 q 389 901 378 956 q 400 808 396 867 q 404 772 401 797 q 422 649 411 674 q 425 644 424 647 q 442 653 432 647 q 472 658 456 663 q 499 640 489 654 q 504 608 508 625 q 486 582 500 592 q 403 563 440 554 q 346 615 365 572 q 344 618 346 617 q 339 615 342 617 q 307 603 325 611 q 290 594 301 600 q 232 571 253 578 q 164 558 196 558 q 76 587 107 557 q 49 664 44 617 q 79 735 53 701 q 143 782 106 768 q 178 797 154 788 q 189 803 186 800 q 263 828 233 822 q 315 832 290 833 q 288 944 306 914 q 265 964 278 961 q 213 953 246 968 q 174 925 186 940 q 157 879 163 910 q 139 853 153 863 q 108 847 125 843 q 81 865 90 850 q 75 896 71 879 z "},"":{"ha":760,"x_min":114,"x_max":621,"o":"m 354 471 q 208 394 294 453 q 197 383 200 388 q 200 376 197 382 q 213 360 204 369 q 256 319 224 346 q 296 282 285 293 q 331 236 321 257 q 333 204 339 221 q 313 180 328 188 q 281 178 297 172 q 257 199 264 183 q 238 222 253 207 q 200 257 228 232 q 149 306 165 288 q 114 379 117 343 q 161 463 113 428 q 331 550 257 529 q 363 547 347 556 q 383 522 378 539 q 379 490 388 506 q 354 471 371 475 m 611 503 q 561 449 589 478 l 558 444 q 550 437 554 442 q 540 426 546 432 q 531 417 535 421 q 524 410 526 413 q 494 371 497 381 q 496 367 494 369 q 508 347 499 360 q 601 260 529 321 q 615 231 614 249 q 606 201 617 214 q 577 186 594 188 q 547 196 560 185 q 444 294 469 263 q 414 388 404 343 q 433 431 418 408 q 463 467 443 446 q 466 470 464 468 q 471 475 468 472 q 476 481 474 478 q 482 487 479 483 q 488 493 485 490 q 493 498 490 496 q 497 502 496 500 q 500 506 499 504 l 501 507 q 547 558 528 535 q 576 572 560 571 q 606 562 593 574 q 621 533 619 550 q 611 503 622 515 z "},"":{"ha":924,"x_min":40,"x_max":778,"o":"m 753 493 q 768 401 756 469 q 778 346 775 367 q 776 179 794 242 q 757 154 772 163 q 725 151 742 146 q 700 171 708 156 q 696 203 692 186 q 696 333 708 246 q 686 386 693 353 q 675 447 678 431 q 549 431 622 432 q 376 438 489 429 q 360 439 371 438 q 214 447 260 447 q 90 436 139 449 q 59 441 74 432 q 40 467 44 450 q 45 498 36 483 q 71 517 54 513 q 214 531 129 532 q 367 522 264 531 q 383 521 378 521 q 547 514 490 513 q 681 536 629 515 q 722 531 703 546 q 753 493 750 522 z "},"":{"ha":1146,"x_min":43,"x_max":1003,"o":"m 400 694 q 397 654 399 679 q 392 514 394 599 q 394 514 393 514 q 429 521 403 515 q 522 540 489 532 q 632 590 613 564 q 632 601 636 594 q 579 654 622 624 q 478 696 538 685 q 400 694 432 704 m 604 900 q 588 893 596 894 q 335 807 442 865 q 176 668 229 749 q 210 240 61 490 q 442 81 300 88 q 783 179 653 72 q 921 426 899 274 q 863 707 942 578 q 613 896 778 847 q 604 900 607 897 m 307 254 q 308 511 303 301 q 314 658 311 600 q 317 708 315 690 q 319 726 318 719 q 326 747 322 742 q 342 761 329 753 q 494 778 403 794 q 628 722 571 763 q 708 635 690 678 q 699 540 732 583 q 629 489 676 511 q 625 486 626 488 q 721 368 678 440 q 769 242 764 296 q 761 210 772 224 q 733 196 750 197 q 702 205 715 194 q 688 233 689 215 q 633 352 682 281 q 542 443 583 424 q 526 456 532 447 q 444 439 496 449 q 413 432 419 433 q 410 432 411 432 q 390 428 400 426 q 390 261 388 290 q 381 231 392 244 q 353 217 369 218 q 322 226 336 215 q 307 254 308 238 m 636 976 q 935 750 833 918 q 1003 415 1028 596 q 836 114 976 229 q 439 -3 681 -12 q 138 197 251 6 q 44 475 51 343 q 107 713 36 607 q 290 877 169 810 q 572 975 410 944 q 600 969 586 978 q 636 976 617 982 z "},"":{"ha":601,"x_min":-31,"x_max":464,"o":"m 3 939 q 243 951 94 958 q 297 950 261 951 q 422 946 382 946 q 451 933 439 946 q 464 903 464 921 q 451 874 464 886 q 422 863 439 863 q 293 867 379 863 q 240 868 257 868 q 19 857 101 875 q -12 863 3 854 q -30 890 -26 872 q -24 922 -33 907 q 3 939 -14 936 z "},"":{"ha":613,"x_min":74,"x_max":463,"o":"m 278 976 q 310 976 294 982 q 454 849 414 935 q 462 688 492 769 q 353 571 432 606 q 164 569 267 533 q 74 675 96 594 q 74 817 56 740 q 143 940 94 894 q 278 976 201 996 m 260 894 q 199 879 226 904 q 155 797 168 851 q 154 697 142 742 q 192 649 164 658 q 318 647 264 622 q 383 717 365 668 q 379 814 401 765 q 286 896 354 867 q 260 894 274 892 z "},"":{"ha":911,"x_min":50,"x_max":774,"o":"m 364 171 q 357 374 350 253 q 361 428 358 394 q 99 406 204 421 q 67 413 81 403 q 51 441 53 424 q 59 472 49 458 q 86 489 69 486 q 367 511 200 504 q 368 569 368 542 q 360 693 369 639 q 367 724 357 710 q 394 740 378 738 q 425 733 411 743 q 442 707 439 724 q 451 569 453 646 q 450 515 451 542 q 736 504 640 519 q 763 488 753 501 q 771 456 774 474 q 753 429 768 439 q 722 422 739 419 q 444 432 633 436 q 440 369 442 390 q 446 185 433 257 q 438 153 449 167 q 411 136 428 139 q 381 144 394 133 q 364 171 367 154 m 106 103 q 260 114 174 113 q 413 114 311 115 l 415 114 q 572 114 521 113 q 726 126 658 117 q 757 118 743 128 q 773 91 771 108 q 765 60 775 74 q 738 43 754 46 q 575 31 665 33 q 414 31 521 29 l 411 31 q 261 31 310 32 q 117 21 181 29 q 85 28 99 18 q 69 56 72 39 q 78 87 67 74 q 106 103 89 100 z "},"":{"ha":608,"x_min":-10,"x_max":471,"o":"m 38 793 q 114 919 46 874 q 246 954 172 958 q 365 897 324 949 q 383 747 414 836 q 308 622 361 683 q 206 525 271 581 q 196 517 203 522 q 238 514 215 517 q 350 500 285 511 l 399 492 q 435 486 422 488 q 462 470 451 483 q 470 440 472 457 q 455 412 468 422 q 424 403 442 401 q 383 410 410 406 q 336 418 347 415 q 232 432 275 428 q 65 394 100 442 q 32 378 53 378 q 7 386 18 378 q -10 419 -10 399 q -3 443 -10 433 q 40 492 15 467 q 94 540 61 513 q 123 565 99 544 q 151 589 147 585 q 244 676 213 640 q 304 774 288 726 q 300 844 321 821 q 240 871 282 868 q 160 850 194 874 q 121 785 125 826 q 106 757 119 768 q 75 747 92 746 q 47 762 58 749 q 38 793 36 775 z "},"":{"ha":542,"x_min":3,"x_max":396,"o":"m 11 796 q 119 957 35 911 q 278 968 194 997 q 347 926 318 954 q 386 864 375 899 q 333 697 413 778 q 314 678 321 685 q 306 671 310 674 q 378 601 351 643 q 396 472 419 536 q 269 358 369 401 q 145 333 210 332 q 24 361 81 333 q 3 385 8 368 q 5 417 -3 401 q 29 438 13 432 q 61 436 46 443 q 236 433 144 394 q 318 501 304 464 q 308 556 326 526 q 253 604 288 588 q 228 611 239 611 q 222 611 224 611 q 199 604 211 604 q 164 622 176 604 q 157 646 157 633 q 175 681 157 668 q 250 733 238 722 q 257 739 254 736 q 274 756 264 744 q 306 839 318 801 q 250 889 296 874 q 160 883 201 906 q 93 779 108 856 q 76 753 90 763 q 44 747 61 743 q 17 765 26 750 q 11 796 8 779 z "},"":{"ha":458,"x_min":110,"x_max":318,"o":"m 113 849 q 181 946 125 872 q 225 1000 207 981 q 244 1019 236 1014 q 264 1029 254 1026 q 288 1029 276 1033 q 313 1010 304 1025 q 318 978 322 996 q 299 953 314 961 q 290 949 294 950 l 286 944 q 247 896 271 928 q 207 840 226 868 q 186 810 189 814 q 163 789 179 794 q 131 792 146 783 q 110 817 115 800 q 113 849 104 833 z "},"":{"ha":867,"x_min":13,"x_max":729,"o":"m 304 860 q 296 857 300 858 q 186 813 236 839 q 108 726 133 785 q 94 604 83 668 q 153 499 107 539 q 292 447 206 451 q 296 447 293 447 q 301 843 301 738 q 304 860 301 851 m 686 892 q 668 892 679 892 q 657 892 667 892 q 644 893 647 893 q 617 894 631 893 q 617 892 617 893 q 613 689 614 800 q 610 442 611 606 q 606 118 608 226 q 593 -211 601 -64 q 578 -239 592 -228 q 548 -249 565 -250 q 519 -235 531 -249 q 510 -206 508 -222 q 522 119 518 -60 q 526 442 525 228 q 529 690 528 607 q 533 894 531 801 q 492 892 513 893 q 369 876 426 888 q 385 843 385 864 q 377 308 385 704 q 365 -225 369 -89 q 351 -255 364 -243 q 322 -266 339 -267 q 292 -253 304 -265 q 282 -222 281 -240 q 294 365 286 -69 q 288 364 292 364 q 97 436 172 369 q 13 589 31 496 q 33 762 -4 679 q 147 886 69 844 q 271 938 204 917 q 486 975 369 967 q 647 976 557 981 q 661 975 650 976 l 671 975 q 688 975 682 975 q 717 963 706 975 q 728 933 729 950 q 716 903 728 915 q 686 892 704 892 z "},"":{"ha":392,"x_min":67,"x_max":253,"o":"m 167 797 q 171 797 169 797 q 210 782 193 793 q 239 740 235 765 q 229 694 244 717 q 222 675 228 685 q 186 642 211 654 q 140 631 164 629 q 86 661 103 631 q 67 719 68 693 q 83 772 65 750 q 85 828 83 808 q 110 925 92 886 q 146 972 125 956 q 211 996 175 996 q 241 983 229 996 q 253 954 253 971 q 241 925 253 938 q 211 913 229 913 q 185 889 197 913 q 168 818 172 863 q 167 810 168 817 q 167 797 167 804 z "},"":{"ha":403,"x_min":100,"x_max":263,"o":"m 122 860 q 100 900 104 876 q 113 951 96 928 q 128 976 117 965 q 158 993 140 988 q 171 1000 164 997 q 251 981 222 1021 q 263 917 269 956 q 243 868 258 889 q 249 807 249 847 q 228 714 249 767 q 196 665 214 682 q 119 654 160 632 q 100 681 104 664 q 104 711 96 697 q 144 732 117 735 q 150 746 147 738 q 163 783 157 763 q 165 799 164 792 q 165 804 165 803 l 165 807 q 165 835 165 824 q 135 847 147 838 q 122 860 128 853 z "},"":{"ha":603,"x_min":47,"x_max":463,"o":"m 126 790 q 142 792 135 792 l 143 792 q 146 792 144 792 q 158 789 153 790 q 181 772 172 783 q 190 742 192 760 q 188 731 190 736 q 188 728 188 729 q 179 697 188 714 q 138 653 164 667 q 92 647 115 640 q 54 675 69 653 q 47 711 43 692 q 49 717 47 714 q 51 735 49 726 q 47 750 49 742 q 64 875 35 810 q 139 972 90 933 q 169 981 153 982 q 197 965 186 979 q 206 935 208 951 q 190 907 204 918 q 145 853 163 885 q 126 790 128 821 m 369 797 q 393 790 382 796 q 424 736 422 772 q 404 684 424 707 q 354 657 385 661 q 315 663 333 653 q 286 674 299 665 q 267 732 254 694 q 276 750 269 742 q 285 806 276 776 q 326 899 297 857 q 406 971 360 950 q 438 972 421 978 q 461 949 454 965 q 462 917 468 933 q 439 894 456 901 q 369 797 393 874 z "},"":{"ha":567,"x_min":26,"x_max":428,"o":"m 57 708 q 90 751 69 722 q 133 822 117 789 q 149 863 144 844 q 125 851 139 857 q 97 849 114 847 q 79 850 89 849 q 75 850 78 850 l 74 851 q 47 861 58 853 q 28 888 35 869 q 26 894 26 890 q 36 942 18 921 q 58 960 44 951 q 63 961 60 961 q 64 964 64 963 q 115 994 85 989 q 161 997 142 1000 q 204 964 193 990 q 208 946 208 956 q 235 881 235 921 q 208 786 235 840 q 117 651 168 706 q 88 638 104 639 q 58 650 71 638 q 45 679 46 663 q 57 708 44 696 m 274 725 q 336 807 319 761 q 344 853 344 829 q 328 854 336 853 q 311 857 319 854 q 272 890 283 865 q 272 938 263 913 q 289 965 278 951 q 338 997 313 992 q 410 976 381 1008 q 428 931 429 957 q 426 922 428 926 q 422 906 425 914 q 425 890 424 899 q 414 778 435 835 q 325 660 389 710 q 294 651 311 649 q 266 667 276 653 q 258 697 256 681 q 274 725 260 714 z "},"":{"ha":1090,"x_min":61,"x_max":951,"o":"m 847 728 q 625 913 742 901 q 440 817 526 922 q 361 678 392 758 q 436 675 396 676 q 599 663 492 671 q 713 653 676 656 q 740 639 729 651 q 750 609 751 626 q 736 581 749 592 q 706 569 724 569 q 592 579 669 572 q 431 592 486 588 q 336 594 381 594 q 328 549 331 572 q 321 475 322 511 q 394 476 356 476 q 515 471 433 475 q 674 465 618 465 q 703 453 692 465 q 715 423 715 440 q 703 394 715 406 q 674 382 692 382 q 511 388 615 382 q 393 392 431 392 q 326 392 357 393 q 371 249 338 314 q 492 135 411 172 q 656 110 569 100 q 799 174 742 121 q 869 321 861 231 q 884 349 871 338 q 915 358 897 360 q 943 344 932 357 q 951 314 954 331 q 856 113 940 192 q 665 28 778 42 q 457 60 556 14 q 297 211 350 108 q 243 386 256 290 q 113 361 176 379 q 81 365 96 357 q 61 390 65 374 q 65 422 57 407 q 90 442 74 438 q 238 469 163 463 q 244 561 239 515 q 251 594 247 578 q 117 582 179 592 q 86 589 100 579 q 69 616 72 599 q 76 647 67 633 q 104 664 86 661 q 272 678 182 676 q 375 869 310 789 q 633 996 490 1010 q 918 771 792 981 q 922 739 926 756 q 903 713 918 722 q 872 708 889 704 q 847 728 856 713 z "},"":{"ha":1389,"x_min":0,"x_max":0,"o":""},"":{"ha":1175,"x_min":221,"x_max":1031,"o":"m 468 390 q 368 301 410 353 q 313 214 329 251 q 301 133 292 165 q 376 82 319 79 q 501 131 435 85 q 507 133 504 132 q 501 147 503 140 q 468 390 472 347 m 751 454 q 550 432 651 469 q 582 197 557 360 q 751 454 683 300 m 801 596 q 821 622 806 613 q 853 626 836 631 q 880 607 871 622 q 885 574 889 592 q 865 510 876 542 q 1010 378 967 467 q 1030 194 1054 290 q 922 32 1006 99 q 758 -44 863 -17 q 726 -40 742 -49 q 706 -14 710 -31 q 710 19 701 3 q 736 39 719 35 q 869 99 824 63 q 946 213 929 147 q 933 339 963 279 q 835 429 903 399 q 713 217 786 315 q 549 58 639 119 q 382 -4 463 1 q 283 19 326 -7 q 221 106 240 46 q 233 249 199 171 q 301 354 256 297 q 460 486 365 436 q 460 664 454 583 q 292 663 382 663 q 261 675 274 663 q 249 706 249 688 q 261 736 249 724 q 292 749 274 749 q 472 750 389 749 q 517 896 486 829 q 540 919 524 913 q 573 919 557 926 q 596 894 589 911 q 594 863 603 878 q 560 753 572 811 q 979 793 789 763 q 1012 785 997 796 q 1029 756 1026 774 q 1021 724 1032 739 q 993 707 1010 710 q 547 667 790 676 q 544 521 540 600 q 783 535 665 560 q 801 596 793 565 z "},"":{"ha":1272,"x_min":118,"x_max":1133,"o":"m 424 494 q 274 356 328 426 q 219 200 219 286 q 236 132 219 146 q 343 132 268 104 q 451 193 401 153 q 439 263 444 225 q 424 494 424 363 m 778 603 q 510 546 643 613 q 524 275 507 389 q 525 264 524 269 q 778 603 694 438 m 842 768 q 863 794 847 786 q 895 798 878 803 q 921 778 913 793 q 925 746 929 763 q 900 669 914 707 q 913 665 901 668 q 928 662 925 663 q 943 658 931 661 q 960 652 956 654 q 975 647 964 650 q 992 640 986 643 q 1008 633 999 638 q 1024 623 1018 628 q 1038 613 1031 618 q 1053 601 1046 607 q 1133 414 1125 533 q 1103 198 1140 299 q 981 27 1067 97 q 772 -56 894 -43 q 740 -46 754 -57 q 725 -17 726 -35 q 735 15 724 1 q 764 31 746 29 q 981 151 906 44 q 1047 408 1057 258 q 994 538 1042 493 q 982 548 989 543 q 966 557 975 553 q 951 564 957 561 q 933 571 946 567 q 915 576 919 575 q 892 582 910 578 q 871 588 875 586 q 867 589 868 589 q 549 165 768 382 q 582 100 563 122 q 592 68 593 86 q 576 39 590 50 q 544 29 563 28 q 515 44 526 31 q 479 106 494 69 q 372 50 428 71 q 178 68 249 6 q 147 115 157 86 q 135 158 136 143 q 133 200 133 174 q 154 317 133 261 q 213 418 175 372 q 288 497 250 464 q 374 564 325 531 q 425 597 399 582 q 444 818 431 711 q 343 822 408 819 q 164 824 221 826 q 133 835 146 822 q 118 865 119 847 q 129 895 117 882 q 158 910 142 908 q 347 908 219 913 q 458 904 419 904 q 499 1069 476 1010 q 522 1094 506 1086 q 554 1094 538 1101 q 578 1072 571 1088 q 579 1039 586 1056 q 546 908 561 992 q 1007 988 711 921 q 1040 982 1025 992 q 1058 955 1054 972 q 1053 923 1063 938 q 1026 904 1043 908 q 532 821 711 833 q 514 643 519 735 q 814 686 664 704 q 842 768 831 726 z "},"":{"ha":1236,"x_min":243,"x_max":1097,"o":"m 243 743 q 258 773 244 761 q 289 783 271 785 q 319 769 307 782 q 329 738 331 756 q 407 197 310 417 q 465 99 435 135 q 501 71 488 72 l 506 74 q 513 85 508 76 q 540 199 532 119 q 556 228 542 217 q 588 238 569 239 q 617 222 606 236 q 626 190 628 208 q 588 42 617 93 q 492 -15 551 -22 q 399 44 443 -10 q 329 161 361 89 q 243 743 222 400 m 832 618 q 828 650 824 633 q 848 676 832 667 q 881 681 864 685 q 907 660 897 676 q 1097 133 1061 390 q 1088 101 1099 115 q 1060 85 1078 88 q 1028 94 1042 83 q 1011 122 1014 104 q 832 618 979 363 z "},"":{"ha":1356,"x_min":140,"x_max":1215,"o":"m 196 944 q 222 964 204 960 q 254 959 239 968 q 274 933 269 950 q 268 900 278 915 q 226 651 210 803 q 283 426 236 563 q 385 210 329 289 q 438 154 413 169 q 464 150 453 144 q 511 213 485 160 q 563 372 538 265 q 581 399 567 389 q 613 404 596 408 q 640 385 631 400 q 646 353 650 371 q 500 72 592 114 q 392 81 447 47 q 314 160 353 104 q 201 397 251 250 q 140 643 151 543 q 196 944 121 824 m 868 833 q 859 865 857 847 q 875 893 861 882 q 906 902 889 904 q 935 886 924 900 q 1106 593 1042 751 q 1215 236 1169 435 q 1210 204 1219 219 q 1184 185 1201 189 q 1151 190 1167 181 q 1132 217 1136 199 q 1026 558 1088 408 q 868 833 965 708 z "},"":{"ha":1117,"x_min":258,"x_max":971,"o":"m 421 782 q 396 803 404 788 q 392 835 388 818 q 413 861 397 853 q 446 865 428 869 q 854 807 632 811 q 884 794 872 807 q 896 763 896 781 q 883 733 896 744 q 851 721 869 721 q 421 782 618 726 m 363 448 q 347 441 363 448 q 314 428 331 435 q 281 428 297 421 q 258 453 265 436 q 259 485 251 469 q 283 508 267 501 q 329 526 294 513 q 384 548 364 540 q 435 565 404 556 q 493 579 467 575 q 635 585 542 589 q 801 558 728 581 q 940 474 894 529 q 971 303 997 403 q 799 115 947 211 q 588 1 719 64 q 555 -1 572 -7 q 530 22 538 6 q 528 55 522 38 q 551 79 535 72 q 751 188 678 139 q 888 325 872 265 q 874 419 903 383 q 775 476 844 456 q 631 499 714 496 q 507 493 549 503 q 458 483 485 490 q 414 468 432 475 q 363 448 396 461 z "},"":{"ha":1219,"x_min":181,"x_max":1081,"o":"m 347 965 q 320 985 329 969 q 315 1017 311 1000 q 335 1044 319 1035 q 367 1049 350 1053 q 900 976 676 976 q 931 964 918 976 q 943 933 943 951 q 931 903 943 915 q 900 890 918 890 q 347 965 667 890 m 238 558 q 204 559 221 551 q 181 583 188 567 q 181 615 174 599 q 204 639 189 632 q 380 678 258 660 q 628 700 501 696 q 872 689 774 704 q 1040 610 1001 668 q 1081 450 1078 554 q 889 124 1086 274 q 558 -50 756 22 q 525 -49 542 -57 q 502 -25 508 -42 q 503 8 496 -8 q 528 31 511 25 q 836 192 714 99 q 994 447 999 315 q 968 563 992 526 q 858 604 950 589 q 631 614 768 618 q 395 593 510 610 q 238 558 281 576 z "},"":{"ha":1251,"x_min":210,"x_max":1111,"o":"m 414 797 q 390 821 397 804 q 391 853 383 838 q 415 876 399 869 q 447 875 432 883 q 508 853 476 863 q 563 839 540 844 q 625 828 585 833 q 682 822 665 824 q 749 817 699 821 q 814 813 799 814 q 844 797 832 811 q 854 766 856 783 q 839 737 853 749 q 808 726 825 725 q 744 731 794 728 q 674 736 693 735 q 613 743 656 738 q 544 755 571 749 q 482 772 518 761 q 414 797 446 782 m 350 518 q 321 535 332 521 q 313 567 310 550 q 330 596 315 585 q 361 604 344 607 q 452 599 428 599 q 541 608 476 600 q 640 618 606 615 q 690 621 679 621 q 694 619 692 621 q 743 626 713 622 l 749 628 q 765 633 764 633 q 796 638 782 639 q 826 622 814 636 q 839 589 839 608 q 835 569 839 579 q 832 565 833 568 q 829 563 831 564 q 828 560 829 561 q 824 556 826 558 q 813 543 819 551 q 775 503 799 529 q 657 381 724 450 q 589 310 621 344 q 611 319 600 315 q 724 322 683 344 q 775 190 782 290 q 773 160 775 181 q 771 133 771 140 q 771 103 768 110 q 799 78 775 86 q 879 68 828 67 q 1058 96 956 69 q 1092 91 1076 100 q 1111 65 1107 82 q 1106 32 1115 47 q 1081 13 1097 17 q 882 -18 967 -15 q 769 -3 814 -19 q 688 78 704 21 q 685 140 681 100 q 687 167 685 147 q 690 196 689 186 q 682 247 693 242 l 681 247 q 666 245 678 247 q 639 238 654 243 q 536 189 597 224 q 363 75 438 133 q 328 40 353 68 q 274 -7 299 7 q 254 -12 265 -12 q 225 -3 238 -12 q 210 24 213 7 q 213 44 208 35 q 214 50 213 47 q 218 57 215 53 q 224 64 219 60 q 239 82 229 71 q 286 135 263 111 q 400 242 344 193 q 594 440 424 263 q 683 533 642 489 q 676 533 681 533 q 646 532 668 533 q 576 526 621 531 q 503 517 532 521 q 428 513 475 514 q 350 518 381 513 z "},"":{"ha":1388,"x_min":142,"x_max":1249,"o":"m 393 1000 q 368 1022 376 1006 q 366 1054 360 1038 q 388 1079 372 1071 q 421 1081 404 1088 q 936 971 713 978 q 966 958 954 971 q 978 926 978 944 q 965 897 978 908 q 933 885 951 885 q 393 1000 697 892 m 256 649 q 225 661 238 649 q 213 692 213 674 q 225 722 213 710 q 256 735 238 735 q 342 736 299 735 q 438 742 385 738 q 519 750 490 747 q 616 760 549 753 q 701 768 683 767 q 715 769 704 768 q 745 774 725 771 q 779 778 765 776 q 829 783 811 782 q 847 786 840 785 q 853 786 851 786 l 858 786 q 865 785 863 786 q 875 782 871 785 q 896 763 889 776 q 890 711 908 738 q 874 689 885 701 q 829 650 858 674 q 783 615 810 635 q 757 594 757 596 q 519 379 638 497 q 575 401 549 393 q 729 374 672 429 q 782 240 771 333 q 806 142 793 161 q 972 65 846 74 q 1199 82 1057 58 q 1231 74 1217 85 q 1249 46 1246 64 q 1241 13 1251 28 q 1213 -4 1231 -1 q 965 -21 1061 -28 q 731 97 794 -8 q 720 119 725 107 q 713 142 715 132 q 707 166 710 151 q 703 188 704 181 q 699 210 701 194 q 697 229 697 226 q 668 313 689 293 q 600 318 647 333 q 471 250 546 303 q 251 60 386 190 q 249 58 250 58 q 246 53 249 57 q 239 43 243 49 q 192 8 219 14 q 144 31 160 1 q 142 60 138 44 q 146 71 143 65 q 149 75 147 74 q 151 79 150 76 q 158 88 154 82 q 179 114 165 97 q 193 131 186 122 q 204 144 200 140 l 208 150 q 232 183 217 163 q 253 213 247 204 q 304 278 281 251 q 701 661 499 494 q 708 666 704 663 q 720 675 713 669 q 733 685 728 681 q 710 682 713 682 q 637 675 690 681 q 558 667 583 669 q 484 660 532 664 q 405 653 436 656 q 333 650 374 651 q 256 649 292 649 z "},"":{"ha":1233,"x_min":214,"x_max":1094,"o":"m 443 17 q 446 28 444 19 q 450 85 451 47 q 443 156 449 111 q 438 214 438 201 q 436 283 436 247 q 375 244 403 265 q 300 142 308 194 q 347 42 290 88 q 443 17 399 -1 m 451 833 q 463 865 451 851 q 493 878 475 878 q 524 866 511 878 q 538 836 538 854 q 536 649 540 756 q 690 689 606 660 q 723 687 707 694 q 744 663 739 679 q 742 630 750 646 q 718 608 735 614 q 533 561 617 574 q 531 522 532 546 q 526 413 528 446 q 671 444 599 435 q 813 444 743 453 q 926 408 882 436 q 1035 281 999 364 q 1064 115 1071 197 q 994 -28 1054 22 q 819 -62 926 -85 q 714 3 750 -49 q 668 126 682 47 q 660 185 665 143 q 652 238 656 219 q 658 270 649 256 q 686 288 668 285 q 719 282 704 292 q 736 254 733 272 q 746 196 740 235 q 754 140 751 157 q 783 53 764 81 q 836 21 800 29 q 939 39 903 8 q 978 124 972 65 q 957 244 983 183 q 882 336 931 306 q 743 362 838 364 q 547 328 649 360 q 524 321 535 325 q 524 217 522 265 q 529 165 524 208 q 535 89 535 118 q 531 8 538 40 q 481 -61 518 -44 q 381 -69 428 -81 q 292 -25 333 -58 q 228 56 251 8 q 214 156 206 104 q 324 314 228 242 q 439 379 372 350 q 444 526 440 429 q 446 553 446 544 q 353 556 421 551 q 269 554 300 558 q 238 564 251 553 q 222 592 224 575 q 231 624 219 610 q 258 640 242 638 q 357 642 297 644 q 444 639 422 638 q 450 639 447 639 q 451 833 454 750 m 847 686 q 832 715 833 697 q 842 747 831 733 q 871 763 853 761 q 903 753 889 764 q 1085 568 1006 667 q 1094 537 1096 554 q 1078 508 1092 519 q 1047 499 1064 497 q 1018 515 1029 501 q 847 686 944 606 z "},"":{"ha":1375,"x_min":101,"x_max":1235,"o":"m 428 424 q 213 282 271 360 q 219 135 153 204 q 299 85 251 101 q 390 78 346 69 q 428 96 417 82 q 442 138 439 110 q 442 183 443 168 q 438 231 442 199 q 433 286 435 264 q 428 424 431 344 m 396 1078 q 408 1108 396 1096 q 439 1121 421 1121 q 469 1108 457 1121 q 482 1078 482 1096 q 493 893 482 1011 q 495 867 493 886 q 497 838 497 847 q 744 894 633 856 q 777 893 761 901 q 799 868 793 885 q 797 835 806 851 q 772 814 789 819 q 504 751 651 771 q 507 701 506 725 q 511 543 510 644 q 553 554 532 550 q 805 588 672 589 q 1018 542 938 588 q 1107 467 1067 514 q 1168 368 1147 419 q 1153 142 1219 240 q 967 21 1094 56 l 956 18 q 943 15 946 15 q 931 12 940 14 q 916 10 921 10 q 902 8 911 10 q 886 8 893 7 q 870 11 879 10 q 853 15 861 13 q 836 22 844 18 q 715 175 753 65 q 689 354 688 257 q 702 383 689 371 q 733 396 715 396 q 763 383 750 396 q 775 351 775 369 q 797 204 774 271 q 875 100 824 126 q 902 94 892 93 q 944 104 913 96 q 1081 189 1042 131 q 1088 335 1122 250 q 1042 411 1072 375 q 976 467 1011 447 q 804 502 915 501 q 574 471 693 503 q 514 454 543 464 q 519 289 517 357 q 523 242 519 278 q 528 185 526 207 q 528 128 529 164 q 496 43 522 76 q 404 -8 464 3 q 271 4 339 -19 q 157 75 203 28 q 110 149 125 108 q 101 240 94 190 q 143 335 108 289 q 426 515 224 440 q 421 699 424 639 q 418 742 419 719 q 179 742 296 733 q 149 757 161 743 q 139 788 138 771 q 154 817 140 806 q 185 828 168 829 q 413 828 296 819 q 409 857 411 838 q 407 885 407 876 q 396 1078 396 1007 m 942 936 q 929 966 929 949 q 942 997 929 983 q 972 1010 954 1010 q 1003 997 989 1010 q 1054 949 1022 978 q 1108 899 1086 919 q 1144 860 1129 879 q 1235 665 1200 792 q 1231 633 1239 649 q 1205 613 1222 617 q 1172 617 1188 608 q 1151 643 1156 625 q 1078 804 1122 751 q 1046 840 1064 822 q 997 884 1028 857 q 942 936 967 911 z "},"":{"ha":1415,"x_min":89,"x_max":1275,"o":"m 457 1075 q 472 1105 458 1093 q 503 1115 485 1117 q 533 1101 521 1114 q 543 1069 544 1088 q 542 994 542 1047 q 539 913 542 942 q 524 811 533 863 q 768 733 693 814 q 814 662 792 707 q 842 582 836 617 q 845 457 849 540 q 828 293 842 374 q 788 135 813 199 q 706 25 754 51 q 558 3 650 -6 q 429 26 517 7 q 403 44 413 29 q 397 77 393 60 q 415 104 400 94 q 449 110 431 114 q 567 89 529 92 q 664 100 632 83 q 707 167 686 113 q 743 307 729 222 q 759 461 756 383 q 756 568 763 539 q 736 624 753 590 q 704 675 719 658 q 503 724 653 731 q 473 623 490 674 q 431 513 456 572 q 391 421 406 454 q 343 316 376 388 q 301 225 310 244 q 236 110 289 197 q 189 8 200 50 q 169 -17 185 -8 q 137 -22 154 -26 q 110 -3 119 -18 q 106 31 101 13 q 163 156 119 83 q 224 261 213 238 q 263 348 233 283 q 307 444 293 413 q 344 529 321 476 q 383 626 367 582 q 411 715 399 671 q 320 699 365 708 q 209 674 275 690 q 140 658 143 658 q 108 664 122 654 q 89 691 93 674 q 94 723 85 708 q 121 742 104 738 q 181 756 132 744 q 262 775 231 768 q 343 791 293 782 q 435 806 393 800 q 453 921 447 864 q 456 994 456 946 q 457 1075 456 1050 m 969 793 q 950 819 954 801 q 955 851 946 836 q 981 871 964 867 q 1014 865 999 875 q 1102 795 1063 836 q 1167 714 1142 754 q 1214 619 1192 674 q 1248 524 1236 564 q 1275 425 1260 483 q 1270 392 1279 407 q 1244 372 1261 376 q 1211 377 1226 368 q 1192 403 1196 386 q 1158 524 1174 475 q 1116 626 1142 572 q 1054 722 1090 681 q 969 793 1018 763 z "},"":{"ha":1425,"x_min":72,"x_max":1283,"o":"m 444 1094 q 462 1122 447 1113 q 494 1128 476 1132 q 522 1110 513 1125 q 528 1078 532 1096 q 458 811 506 960 q 622 804 553 817 q 769 719 724 783 q 821 556 808 667 q 822 343 833 456 q 774 139 808 224 q 657 7 729 33 q 579 -6 624 -6 q 497 -1 535 -7 q 428 14 460 4 q 403 35 411 19 q 399 68 394 51 q 420 93 404 85 q 453 97 436 101 q 543 80 496 83 q 626 88 590 76 q 694 172 664 101 q 736 351 725 244 q 736 546 747 454 q 700 669 725 635 q 604 719 674 706 q 440 724 539 732 q 429 722 435 722 q 399 630 421 694 q 364 529 376 565 q 333 429 357 507 q 295 316 308 351 q 258 219 282 281 q 208 108 235 157 q 151 13 182 58 q 123 -6 140 -3 q 91 1 106 -10 q 73 28 76 11 q 79 60 69 46 q 132 148 108 103 q 178 251 156 193 q 213 344 201 310 q 250 455 225 378 q 283 557 275 532 q 335 708 289 576 q 126 658 231 690 q 94 663 110 654 q 73 688 78 671 q 76 720 68 704 q 101 742 85 736 q 365 801 236 782 q 444 1094 419 969 m 921 793 q 904 822 907 804 q 913 853 901 839 q 941 871 924 868 q 974 863 958 874 q 999 844 981 857 q 1033 819 1017 832 q 1063 796 1050 807 q 1179 617 1126 736 q 1257 393 1232 497 q 1252 361 1261 376 q 1226 342 1243 346 q 1193 347 1208 338 q 1174 374 1178 356 q 1103 577 1150 469 q 1004 732 1056 685 q 981 752 993 743 q 951 772 968 761 q 921 793 935 783 m 1013 1022 q 1005 1055 1001 1038 q 1023 1083 1008 1072 q 1055 1090 1038 1093 q 1082 1072 1072 1086 q 1132 993 1104 1040 q 1151 958 1136 986 q 1176 915 1167 931 q 1181 883 1185 900 q 1161 856 1176 865 q 1128 851 1146 847 q 1102 871 1111 856 q 1077 915 1093 886 q 1057 950 1061 943 q 1013 1022 1032 994 m 1128 1060 q 1115 1090 1115 1072 q 1128 1121 1115 1108 q 1158 1133 1140 1133 q 1189 1121 1176 1133 q 1282 988 1240 1068 q 1283 954 1289 971 q 1262 930 1278 938 q 1229 928 1246 922 q 1204 949 1213 933 q 1128 1060 1171 1018 z "},"":{"ha":1246,"x_min":144,"x_max":1107,"o":"m 190 528 q 159 538 172 526 q 144 568 146 550 q 155 599 143 586 q 185 614 167 613 q 674 678 392 626 q 617 817 643 746 q 206 781 444 793 q 174 792 188 779 q 160 822 161 804 q 171 852 158 839 q 200 867 183 865 q 589 900 426 878 q 543 1075 557 996 q 549 1108 539 1093 q 577 1126 560 1122 q 609 1119 594 1129 q 626 1092 624 1108 q 675 913 642 1011 q 992 985 844 939 q 1024 981 1008 989 q 1045 956 1040 972 q 1042 923 1050 939 q 1017 901 1033 907 q 704 829 871 857 q 761 694 731 760 q 924 726 818 706 q 1056 751 1029 747 q 1088 746 1074 756 q 1106 718 1103 736 q 1100 685 1110 700 q 1072 668 1090 671 q 946 642 1039 661 q 801 614 853 624 q 821 581 811 596 q 931 410 876 483 q 933 407 931 408 q 939 402 935 406 q 946 397 943 399 q 964 375 958 386 q 968 340 974 357 q 946 311 963 321 q 874 324 910 290 l 861 335 q 824 347 854 338 q 785 357 793 356 q 646 372 714 369 q 508 360 578 374 q 392 315 438 346 q 315 171 299 250 q 354 106 322 136 q 443 60 386 75 q 563 38 503 42 q 693 47 624 35 q 810 70 763 58 q 942 107 857 82 q 975 103 960 111 q 995 77 990 94 q 992 44 1000 60 q 967 24 983 29 q 831 -14 878 -1 q 706 -40 783 -26 q 558 -48 628 -53 q 418 -24 489 -43 q 293 45 343 -1 q 231 154 243 92 q 247 278 217 217 q 342 385 276 339 q 489 444 401 426 q 650 458 576 461 q 799 443 724 456 q 804 442 801 442 q 746 536 775 488 q 713 597 729 565 q 190 528 410 542 z "},"":{"ha":1450,"x_min":135,"x_max":1311,"o":"m 175 538 q 145 552 157 539 q 135 583 133 565 q 149 613 136 601 q 181 624 163 625 q 287 624 229 621 q 385 634 344 628 q 497 651 426 640 q 604 668 568 663 q 681 678 636 672 q 625 801 653 732 q 404 786 546 793 q 207 774 263 779 q 175 784 189 772 q 160 813 161 796 q 170 844 158 831 q 199 860 182 858 q 395 872 264 865 q 592 885 526 879 q 563 963 582 910 q 533 1043 543 1017 q 534 1076 526 1060 q 558 1099 542 1092 q 591 1098 575 1106 q 614 1074 607 1090 q 647 985 625 1046 q 681 894 669 925 q 971 968 849 915 q 1004 968 988 975 q 1028 944 1021 961 q 1028 911 1035 928 q 1004 888 1021 894 q 714 811 881 836 q 771 689 743 743 q 829 696 804 693 q 1049 733 961 713 q 1081 728 1065 738 q 1100 702 1096 719 q 1095 669 1104 685 q 1068 650 1086 654 q 840 611 976 628 q 819 608 831 610 q 864 549 840 576 q 929 461 883 525 q 968 407 954 428 q 981 386 976 394 q 987 375 985 379 q 989 367 989 371 q 989 343 992 354 q 917 299 975 300 q 847 307 890 297 q 782 322 828 311 q 746 331 751 331 q 713 333 739 331 q 676 335 686 335 q 641 338 665 336 q 604 339 617 339 q 570 339 592 339 q 534 338 549 339 q 501 334 519 336 q 468 329 483 332 q 365 281 403 315 q 318 179 326 246 q 317 138 315 163 q 321 107 318 113 q 353 83 328 93 q 417 65 365 78 q 470 53 443 58 q 528 47 497 49 q 580 44 558 46 q 638 47 601 43 q 690 51 674 50 q 748 58 706 51 q 801 65 790 64 q 862 75 813 67 q 919 85 911 83 q 952 77 938 88 q 969 49 967 67 q 962 16 972 31 q 933 -1 951 1 q 876 -10 921 -3 q 815 -20 831 -18 q 759 -28 800 -22 q 698 -35 718 -35 q 641 -39 678 -36 q 578 -41 604 -42 q 520 -38 553 -40 q 457 -31 488 -36 q 394 -18 426 -26 q 321 3 339 -4 q 243 68 265 26 q 231 135 232 90 q 232 190 229 167 q 450 414 257 372 q 492 421 471 418 q 540 424 514 424 q 583 426 565 425 q 630 424 600 426 q 672 422 660 422 q 715 419 683 422 q 751 417 747 417 q 803 406 765 415 q 865 392 847 394 q 875 389 871 390 q 860 410 868 399 q 797 493 815 472 q 725 596 760 540 q 615 582 657 589 q 513 567 585 578 q 397 549 440 556 q 291 539 354 543 q 175 538 228 535 m 1019 1063 q 1008 1094 1007 1076 q 1023 1124 1010 1111 q 1053 1135 1036 1136 q 1083 1121 1071 1133 q 1130 1067 1114 1086 q 1166 1015 1146 1049 q 1197 943 1186 981 q 1193 910 1201 926 q 1168 890 1185 894 q 1135 893 1151 885 q 1114 918 1119 901 q 1083 988 1103 958 q 1019 1063 1063 1017 m 1154 1069 q 1142 1100 1142 1082 q 1154 1131 1142 1118 q 1185 1143 1167 1143 q 1215 1131 1203 1143 q 1281 1044 1258 1088 q 1311 939 1303 1000 q 1303 908 1314 922 q 1274 890 1292 893 q 1242 899 1257 888 q 1225 928 1228 910 q 1203 1005 1219 974 q 1154 1069 1188 1036 z "},"":{"ha":1069,"x_min":285,"x_max":931,"o":"m 811 1074 q 842 1088 824 1088 q 873 1076 860 1088 q 886 1046 886 1064 q 875 1015 886 1028 q 468 636 692 819 q 450 622 463 632 q 432 608 438 613 q 396 578 410 590 q 368 536 367 549 l 369 533 q 375 526 371 532 q 385 513 379 519 q 440 451 404 488 q 611 289 501 389 q 788 131 678 228 q 917 15 897 35 q 931 -14 931 4 q 919 -45 931 -32 q 889 -58 907 -58 q 858 -46 871 -58 q 729 68 839 -28 q 554 225 619 164 q 378 392 442 326 q 318 458 340 431 q 285 518 289 494 q 335 639 272 576 q 379 676 353 656 q 397 690 385 681 q 413 703 408 699 q 811 1074 633 882 z "},"":{"ha":1267,"x_min":274,"x_max":1128,"o":"m 790 1096 q 820 1111 803 1110 q 851 1101 838 1113 q 867 1072 865 1089 q 857 1040 868 1054 q 792 975 839 1018 q 674 867 746 932 q 560 763 603 803 q 406 604 457 664 q 364 546 376 569 q 358 532 360 538 q 374 514 364 524 q 431 456 393 490 q 606 296 496 392 q 911 40 818 111 q 927 11 925 29 q 919 -21 929 -7 q 890 -37 908 -35 q 858 -29 872 -39 q 549 231 764 44 q 371 393 438 329 q 310 456 332 431 q 274 510 279 489 q 289 588 264 542 q 340 658 306 618 q 500 825 393 724 q 618 933 547 869 q 731 1036 689 996 q 790 1096 774 1076 m 833 756 q 821 786 821 768 q 834 816 821 804 q 865 828 847 828 q 894 814 883 828 q 1025 663 989 715 q 1031 631 1035 649 q 1013 603 1028 613 q 981 597 999 593 q 953 615 963 600 q 833 756 922 663 m 947 853 q 935 884 935 867 q 948 914 935 901 q 978 926 961 926 q 1008 914 996 926 q 1121 776 1068 851 q 1127 744 1131 761 q 1109 716 1124 726 q 1077 709 1094 706 q 1049 726 1060 713 q 947 853 1001 797 z "},"":{"ha":1340,"x_min":194,"x_max":1199,"o":"m 242 1064 q 261 1091 246 1082 q 294 1096 276 1100 q 320 1076 311 1092 q 325 1044 329 1061 q 293 863 304 956 q 281 654 282 769 q 283 472 281 539 q 292 267 285 406 q 294 229 292 254 q 361 417 325 317 q 383 441 367 433 q 417 442 400 449 q 441 419 433 436 q 442 386 449 403 q 333 64 375 206 l 335 49 q 332 19 336 32 q 294 -15 322 -8 q 253 -3 269 -21 q 244 7 247 1 q 242 15 243 11 q 239 25 240 19 q 235 49 238 33 q 222 119 229 78 q 206 264 207 224 q 197 469 199 404 q 195 655 194 535 q 208 873 196 775 q 242 1064 219 971 m 504 692 q 476 708 486 694 q 467 740 465 722 q 483 769 469 758 q 515 778 497 779 q 864 761 701 754 q 858 1068 868 924 q 869 1099 857 1086 q 899 1114 881 1113 q 930 1103 917 1115 q 944 1074 943 1092 q 950 768 953 929 q 1139 818 1067 783 q 1172 819 1156 825 q 1197 798 1189 814 q 1199 765 1204 782 q 1178 740 1193 749 q 947 682 1088 697 q 943 576 946 632 q 940 509 942 557 q 936 440 938 461 q 931 376 935 419 q 924 310 928 333 q 911 247 919 286 q 893 184 903 208 q 868 125 883 160 q 833 64 853 90 q 789 8 814 38 q 733 -49 764 -22 q 701 -60 719 -61 q 672 -45 683 -58 q 661 -14 660 -32 q 675 15 663 4 q 723 64 701 39 q 760 110 744 89 q 790 163 776 132 q 812 213 803 193 q 828 268 821 232 q 838 322 835 304 q 845 383 842 340 q 850 444 849 426 q 853 513 851 463 q 857 582 856 563 q 861 675 860 631 q 504 692 694 668 z "},"":{"ha":1442,"x_min":158,"x_max":1303,"o":"m 231 1065 q 253 1090 238 1082 q 286 1090 269 1097 q 310 1067 303 1083 q 311 1035 318 1051 q 253 728 272 936 q 244 393 233 521 q 269 233 250 322 q 281 278 275 264 q 361 450 307 356 q 387 470 369 465 q 419 467 404 475 q 440 441 435 458 q 436 408 444 424 q 361 250 386 319 q 340 139 357 236 q 328 72 333 96 q 307 15 319 32 q 265 -6 290 -6 q 222 21 238 -6 q 213 63 215 35 q 210 88 211 74 q 208 112 208 103 q 206 126 207 121 q 158 385 168 278 q 167 739 146 521 q 231 1065 188 957 m 883 778 q 872 1041 872 1024 q 885 1072 872 1058 q 915 1085 897 1085 q 945 1072 932 1085 q 958 1042 958 1060 q 969 783 958 1019 q 1124 811 1050 792 q 1157 806 1142 815 q 1176 780 1172 797 q 1172 747 1181 763 q 1146 728 1163 732 q 972 697 1063 707 q 974 592 974 640 q 904 143 974 286 q 880 103 894 124 q 854 69 865 82 q 821 33 843 56 q 792 4 799 11 q 757 -28 785 -3 l 729 -51 q 697 -62 715 -64 q 667 -48 679 -61 q 657 -17 656 -35 q 671 13 658 1 q 697 35 675 17 q 724 60 718 54 q 748 82 731 65 q 773 107 765 99 q 792 130 781 115 q 813 156 804 144 q 826 182 821 168 q 888 592 888 306 q 886 692 888 639 q 819 690 857 690 q 760 688 806 689 q 695 687 715 688 q 639 685 675 686 q 573 681 603 683 q 511 672 543 678 q 480 681 494 669 q 463 709 465 692 q 471 741 460 726 q 500 758 482 756 q 565 766 532 763 q 635 771 597 769 q 693 773 672 772 q 760 774 714 774 q 818 776 806 775 q 883 778 854 776 m 1033 1033 q 1029 1067 1025 1050 q 1049 1092 1033 1083 q 1082 1097 1065 1101 q 1108 1078 1099 1093 q 1168 903 1161 986 q 1158 871 1169 885 q 1128 856 1146 857 q 1097 866 1111 854 q 1082 894 1083 878 q 1033 1033 1076 960 m 1179 1051 q 1181 1084 1172 1068 q 1206 1106 1189 1100 q 1238 1104 1222 1113 q 1260 1079 1254 1096 q 1303 926 1297 976 q 1293 894 1304 908 q 1265 878 1282 881 q 1233 888 1247 876 q 1217 915 1219 899 q 1179 1051 1213 957 z "},"":{"ha":1247,"x_min":201,"x_max":1108,"o":"m 303 864 q 272 876 285 864 q 260 907 260 889 q 272 938 260 925 q 303 950 285 950 q 779 961 650 950 q 879 969 810 964 l 921 974 q 933 975 929 974 q 938 975 936 975 l 939 975 l 940 975 l 942 975 l 944 975 q 950 974 946 975 q 960 971 956 974 q 983 944 978 963 q 974 890 990 918 q 946 858 964 875 q 871 801 919 833 q 790 751 839 781 q 735 718 740 722 q 702 712 719 708 q 675 731 685 715 q 669 763 665 746 q 688 790 672 781 q 742 824 693 794 q 824 872 792 853 q 833 879 828 876 q 788 875 804 876 q 303 864 653 864 m 363 539 q 396 542 379 547 q 421 522 413 538 q 424 489 429 506 q 404 464 419 472 q 348 412 376 449 q 303 329 319 375 q 306 181 265 229 q 374 144 317 165 q 1060 138 563 74 q 1092 128 1078 139 q 1108 100 1106 118 q 1099 68 1110 82 q 1071 51 1089 54 q 898 32 974 39 q 713 20 822 25 q 509 26 604 15 q 343 64 414 38 q 239 125 265 93 q 205 199 214 157 q 201 281 196 242 q 222 358 207 319 q 281 466 243 417 q 363 539 319 515 z "},"":{"ha":1354,"x_min":204,"x_max":1214,"o":"m 307 889 q 277 904 289 890 q 267 935 265 918 q 282 965 268 953 q 313 975 296 976 q 749 961 521 958 q 883 969 799 961 q 936 974 906 971 q 951 976 950 975 q 956 976 954 976 l 958 976 l 963 976 q 968 976 965 976 q 979 972 974 975 q 1004 933 1004 961 q 990 900 1004 915 q 976 886 985 893 q 942 860 964 876 q 840 796 908 838 q 672 690 685 700 q 642 679 660 678 q 612 694 624 681 q 601 725 600 707 q 617 754 603 743 q 796 869 633 771 q 808 878 803 874 q 749 875 774 875 q 307 889 518 872 m 322 526 q 352 539 335 539 q 382 526 369 539 q 394 495 394 513 q 381 465 394 478 q 290 260 275 363 q 360 182 296 215 q 536 132 424 149 q 899 122 704 107 q 972 133 925 124 q 1053 147 1031 144 q 1085 138 1071 149 q 1101 110 1099 128 q 1092 78 1103 92 q 1064 61 1082 64 q 988 49 1044 58 q 904 36 936 39 q 524 47 701 21 q 321 106 397 65 q 204 249 218 158 q 322 526 183 394 m 921 706 q 910 736 910 718 q 923 766 910 754 q 954 778 936 778 q 985 764 972 778 q 1007 740 988 760 q 1033 713 1026 719 q 1054 687 1039 706 q 1076 655 1069 668 q 1092 622 1083 642 q 1107 581 1101 601 q 1102 547 1111 563 q 1076 528 1093 532 q 1043 533 1058 524 q 1024 558 1028 542 q 1013 588 1019 574 q 1003 610 1007 601 q 986 634 999 618 q 969 654 974 650 q 946 679 965 658 q 921 706 926 700 m 1031 786 q 1015 815 1017 797 q 1025 847 1014 833 q 1054 863 1036 861 q 1086 853 1072 864 q 1099 841 1089 850 q 1113 830 1110 832 q 1126 819 1117 828 q 1140 808 1136 811 q 1151 797 1143 804 q 1164 784 1160 789 q 1175 771 1168 779 q 1187 756 1182 763 q 1197 742 1192 750 q 1208 724 1203 733 q 1214 691 1218 708 q 1194 665 1210 674 q 1162 660 1179 656 q 1136 679 1144 664 q 1104 719 1122 700 q 1076 749 1086 739 q 1031 786 1065 758 z "},"":{"ha":1246,"x_min":140,"x_max":1104,"o":"m 625 1063 q 631 1094 621 1079 q 658 1113 640 1110 q 690 1107 675 1117 q 708 1079 706 1097 q 782 900 725 1003 q 797 872 789 888 q 1047 936 972 904 q 1079 938 1063 944 q 1103 915 1096 931 q 1104 882 1111 899 q 1081 858 1097 865 q 843 793 1006 825 q 882 715 867 750 q 910 647 890 697 q 938 586 926 608 q 972 513 943 575 q 1006 444 992 469 q 1008 443 1007 444 q 1014 438 1010 442 q 1019 432 1018 433 q 1036 407 1031 419 q 1019 350 1049 374 q 1004 342 1013 344 q 990 342 996 340 l 986 342 q 978 344 982 343 q 969 347 975 344 q 950 356 963 350 q 925 367 943 358 q 896 382 907 376 q 788 426 815 419 q 582 442 693 453 q 399 381 471 432 q 330 305 354 349 q 306 218 306 261 q 408 81 306 122 q 669 54 496 43 q 947 99 821 63 q 979 94 964 103 q 999 69 994 86 q 996 36 1004 51 q 969 15 988 21 q 675 -32 835 -22 q 375 0 482 -43 q 259 90 299 32 q 219 218 219 149 q 254 345 219 283 q 349 450 289 407 q 495 514 411 494 q 655 531 579 533 q 807 510 731 528 q 893 478 836 503 q 860 547 867 535 q 831 615 847 572 q 804 679 811 664 q 754 776 785 721 q 632 758 694 767 q 179 728 319 714 q 150 743 161 729 q 140 775 139 757 q 156 804 142 793 q 188 814 169 815 q 621 843 318 801 q 708 856 665 849 q 707 858 707 857 q 625 1063 643 972 z "},"":{"ha":1356,"x_min":164,"x_max":1215,"o":"m 907 1057 q 890 1085 893 1068 q 899 1117 888 1103 q 927 1135 910 1132 q 960 1126 944 1138 q 988 1106 965 1122 q 1003 1093 997 1099 q 1010 1086 1006 1090 q 1024 1072 1014 1082 q 1043 1053 1033 1063 q 1056 1022 1056 1040 q 1043 992 1056 1004 q 1013 979 1031 979 q 982 992 994 979 q 963 1011 971 1003 q 951 1023 954 1019 q 946 1029 949 1026 q 936 1036 943 1031 q 907 1057 914 1053 m 1101 1039 q 1096 1043 1101 1039 q 1079 1061 1092 1047 q 1067 1092 1067 1075 q 1080 1122 1067 1110 q 1110 1135 1093 1135 q 1140 1122 1128 1135 q 1159 1103 1149 1113 q 1175 1087 1169 1093 q 1185 1078 1181 1081 q 1213 1026 1189 1072 q 1215 994 1219 1011 q 1194 969 1210 976 q 1160 966 1178 961 q 1135 988 1143 971 q 1128 1002 1131 996 q 1123 1012 1125 1008 q 1120 1017 1121 1015 q 1119 1021 1119 1019 q 1117 1022 1118 1022 l 1117 1024 q 1113 1028 1115 1026 q 1101 1039 1110 1031 m 207 714 q 176 726 189 714 q 164 757 164 739 q 176 788 164 775 q 207 800 189 800 q 290 799 233 800 q 385 798 346 797 q 463 804 425 799 q 565 824 490 808 q 676 842 635 838 q 685 842 681 842 q 626 1076 626 1010 q 639 1107 626 1094 q 669 1119 651 1119 q 700 1107 688 1119 q 713 1076 713 1094 q 774 850 713 1021 q 881 864 839 856 q 961 888 910 871 q 1049 917 1025 910 q 1081 912 1065 921 q 1101 886 1097 903 q 1097 853 1106 869 q 1071 833 1088 838 q 989 807 1050 828 q 897 781 933 788 q 806 767 858 772 q 829 703 814 742 q 855 637 844 664 q 871 592 865 610 q 938 458 894 525 q 981 404 958 425 q 988 397 983 401 l 992 394 q 997 388 996 390 q 1004 376 1001 382 q 1001 342 1010 358 q 975 319 993 325 q 963 318 968 318 q 953 319 958 318 q 889 356 922 325 q 857 383 863 381 q 607 431 767 436 q 411 375 490 426 q 331 222 325 318 q 356 145 333 175 q 426 89 378 115 q 697 47 546 22 q 839 79 740 54 q 994 113 938 104 q 1027 104 1013 115 q 1044 76 1042 93 q 1036 44 1047 58 q 1008 26 1025 29 q 860 -4 954 19 q 711 -37 758 -31 q 385 14 529 -67 q 285 97 321 50 q 244 217 249 144 q 364 446 235 363 q 604 517 464 513 q 819 493 731 521 q 790 564 801 529 q 754 658 781 589 q 715 758 728 728 q 685 756 699 757 q 583 739 647 751 q 474 718 506 722 q 389 712 433 713 q 285 713 344 711 q 207 714 226 714 z "},"":{"ha":1276,"x_min":275,"x_max":1138,"o":"m 306 1031 q 321 1060 307 1049 q 353 1069 335 1071 q 382 1054 371 1068 q 392 1022 393 1040 q 361 567 363 706 q 429 167 360 261 q 693 82 521 43 q 842 145 769 99 q 963 251 914 192 q 1051 463 1032 339 q 1069 491 1054 481 q 1101 499 1083 501 q 1130 481 1119 496 q 1138 449 1140 467 q 1029 199 1114 303 q 888 72 972 126 q 711 -3 803 18 q 517 1 610 -26 q 360 117 425 29 q 275 567 272 233 q 306 1031 276 710 z "},"":{"ha":1283,"x_min":272,"x_max":1144,"o":"m 310 1031 q 324 1060 311 1047 q 355 1071 338 1072 q 385 1056 372 1069 q 396 1025 397 1043 q 376 807 393 976 q 358 560 361 653 q 440 156 349 271 q 711 67 536 36 q 811 113 753 74 q 926 210 869 151 q 1018 328 982 268 q 1058 429 1054 388 q 1075 457 1061 446 q 1106 466 1089 468 q 1135 450 1124 464 q 1144 418 1146 436 q 1094 288 1138 358 q 988 151 1050 217 q 856 38 925 85 q 725 -19 786 -8 q 529 -8 621 -36 q 374 103 438 21 q 272 563 263 242 q 290 815 275 658 q 310 1031 307 983 m 726 946 q 713 976 713 958 q 724 1008 713 994 q 754 1021 736 1021 q 785 1010 772 1021 q 832 967 794 1000 q 896 908 869 935 q 942 853 922 881 q 949 820 953 838 q 931 792 946 803 q 899 785 917 782 q 872 803 882 789 q 833 849 854 828 q 778 901 813 871 q 726 946 743 931 m 889 1035 q 888 1067 882 1050 q 909 1091 893 1083 q 942 1093 925 1099 q 967 1071 958 1088 q 1006 1003 979 1046 q 1051 926 1038 951 q 1053 894 1058 911 q 1033 869 1049 876 q 999 866 1017 861 q 974 888 982 871 q 933 957 963 910 q 889 1035 903 1004 z "},"":{"ha":1299,"x_min":106,"x_max":1160,"o":"m 736 518 q 604 626 696 617 q 504 603 547 633 q 447 528 461 572 q 446 435 432 485 q 507 357 460 386 q 626 363 557 325 q 683 407 658 379 q 719 464 708 435 q 736 518 728 490 m 731 1060 q 738 1092 728 1078 q 767 1110 749 1107 q 799 1102 785 1113 q 817 1074 814 1092 q 838 919 831 986 q 967 917 869 918 q 1117 917 1064 917 q 1147 904 1135 917 q 1160 874 1160 892 q 1147 843 1160 856 q 1117 831 1135 831 q 968 831 1064 831 q 844 833 872 832 q 825 522 856 658 q 839 468 833 496 q 836 291 853 382 q 779 139 819 200 q 723 72 754 101 q 651 18 692 42 q 583 -18 610 -6 q 507 -51 556 -31 q 492 -58 496 -56 q 458 -58 475 -65 q 435 -35 442 -51 q 435 -1 428 -18 q 458 22 442 15 q 536 56 513 44 q 599 88 560 67 q 662 132 638 108 q 707 186 686 156 q 758 361 751 254 q 667 286 719 314 q 460 285 554 225 q 385 362 413 315 q 354 458 358 408 q 366 556 350 507 q 415 642 382 604 q 499 699 447 679 q 613 713 551 719 q 757 643 700 703 q 758 833 765 729 q 618 831 682 832 q 505 824 575 829 q 383 815 435 819 q 265 812 332 811 q 143 821 199 813 q 114 838 125 824 q 106 870 103 853 q 123 899 108 888 q 154 907 138 910 q 269 898 208 899 q 378 901 331 897 q 497 910 426 904 q 615 917 567 915 q 750 919 678 918 q 731 1060 743 981 z "},"":{"ha":1426,"x_min":65,"x_max":1286,"o":"m 718 494 q 667 574 701 536 q 579 625 619 625 q 494 596 533 625 q 435 524 454 567 q 425 441 415 483 q 476 369 435 399 q 585 354 513 344 q 697 439 661 364 q 718 494 710 464 m 739 1089 q 756 1117 742 1106 q 788 1125 771 1128 q 817 1108 806 1122 q 825 1075 828 1093 q 822 901 818 1029 q 1167 897 1015 901 q 1197 884 1185 897 q 1208 853 1208 871 q 1195 823 1208 835 q 1164 811 1182 811 q 825 815 1014 815 q 825 636 828 706 q 808 500 821 558 q 781 231 847 372 q 663 60 739 139 q 501 -67 588 -18 q 469 -70 486 -75 q 443 -50 451 -65 q 440 -17 435 -35 q 460 8 444 0 q 601 119 535 50 q 703 267 667 189 q 726 332 718 300 q 596 268 674 279 q 426 300 490 256 q 358 378 381 332 q 335 469 335 424 q 356 558 336 514 q 445 667 385 624 q 579 711 506 710 q 731 632 657 713 q 738 624 735 628 q 739 640 739 632 q 739 814 742 710 q 460 810 689 814 q 108 806 232 806 q 78 818 90 806 q 65 849 65 831 q 78 879 65 867 q 108 892 90 892 q 460 896 231 892 q 736 900 690 900 q 739 1089 731 1035 m 1015 1067 q 1009 1099 1006 1082 q 1028 1126 1013 1117 q 1060 1133 1043 1136 q 1088 1114 1078 1129 q 1161 972 1128 1053 q 1161 939 1168 956 q 1138 915 1154 922 q 1104 915 1121 908 q 1081 939 1088 922 q 1015 1067 1050 1013 m 1157 1053 q 1147 1085 1146 1067 q 1163 1114 1149 1103 q 1194 1124 1176 1125 q 1224 1108 1213 1122 q 1260 1064 1258 1065 q 1283 1013 1261 1061 q 1285 979 1292 996 q 1263 955 1279 963 q 1229 953 1246 947 q 1206 976 1213 960 q 1198 994 1201 986 q 1192 1006 1194 1003 q 1190 1012 1190 1010 q 1188 1015 1189 1014 q 1188 1018 1188 1017 q 1184 1022 1186 1019 q 1175 1032 1182 1024 q 1157 1053 1168 1040 z "},"":{"ha":1349,"x_min":31,"x_max":1210,"o":"m 872 1028 q 889 1056 875 1046 q 921 1065 903 1067 q 949 1049 939 1063 q 958 1017 960 1035 q 956 779 954 985 q 1164 786 1076 781 q 1195 776 1182 788 q 1210 746 1208 764 q 1199 715 1211 728 q 1169 700 1188 701 q 954 693 1081 694 q 954 679 954 686 q 942 483 953 557 q 886 342 926 379 q 732 315 826 283 q 619 376 700 326 q 600 402 604 385 q 605 435 596 419 q 631 454 614 450 q 664 449 649 458 q 760 397 736 406 q 828 403 804 382 q 857 496 846 421 q 868 681 867 564 q 868 692 868 686 q 847 692 858 692 q 531 682 638 689 q 403 669 478 679 q 403 529 400 594 q 433 278 407 376 q 518 132 464 169 q 613 104 544 114 q 765 96 672 96 q 930 100 828 96 q 1056 104 1032 104 q 1086 92 1074 104 q 1099 61 1099 79 q 1086 31 1099 43 q 1056 18 1074 18 q 930 14 1032 18 q 765 10 828 10 q 600 19 667 10 q 471 60 513 31 q 350 256 389 115 q 317 526 321 364 q 317 658 314 588 q 306 657 311 658 q 74 639 161 639 q 43 651 56 639 q 31 682 31 664 q 43 713 31 700 q 74 725 56 725 q 296 743 156 725 q 319 746 306 744 q 342 1015 324 822 q 357 1044 343 1033 q 389 1054 371 1056 q 418 1039 407 1053 q 428 1007 429 1025 q 407 757 411 825 q 525 768 475 765 q 847 778 635 775 q 869 778 858 778 q 872 1028 868 989 z "},"":{"ha":1450,"x_min":40,"x_max":1308,"o":"m 871 997 q 872 1016 871 997 q 874 1053 872 1035 q 888 1083 875 1071 q 919 1093 901 1094 q 949 1078 938 1092 q 960 1047 961 1065 q 957 992 958 1029 q 953 896 956 956 q 949 792 951 836 q 1124 793 1022 793 q 1154 781 1142 793 q 1167 750 1167 768 q 1154 719 1167 732 q 1124 707 1142 707 q 944 706 1018 707 q 944 690 944 697 q 928 483 938 560 q 914 407 921 436 q 885 350 904 365 q 733 324 833 304 q 608 368 668 336 q 588 393 593 376 q 592 426 583 410 q 617 447 600 442 q 650 443 633 451 q 750 408 697 418 q 825 413 803 397 q 831 428 828 419 q 842 494 836 453 q 858 694 851 567 q 858 706 858 700 q 514 689 668 701 q 403 676 467 685 q 401 464 401 531 q 400 397 401 442 q 399 320 399 351 q 404 260 400 289 q 456 138 414 178 q 561 99 483 111 q 740 88 633 86 q 1071 124 924 92 q 1104 118 1089 128 q 1123 91 1119 108 q 1117 58 1126 74 q 1090 40 1107 43 q 742 1 933 6 q 546 14 628 0 q 397 76 443 31 q 318 249 333 138 q 313 317 314 281 q 314 401 313 353 q 315 464 315 449 q 317 664 315 532 q 304 661 310 663 q 85 638 165 640 q 54 649 67 638 q 41 679 42 661 q 52 710 40 697 q 82 724 64 722 q 290 747 157 726 q 318 751 296 747 q 317 1025 319 917 q 328 1056 317 1043 q 358 1069 340 1069 q 390 1058 376 1069 q 403 1028 403 1046 q 404 764 406 921 q 508 775 463 771 q 863 792 664 788 q 867 897 865 836 q 871 997 869 958 m 1040 982 q 1037 1015 1032 997 q 1057 1040 1042 1032 q 1090 1044 1072 1049 q 1115 1024 1107 1039 q 1169 932 1139 983 q 1174 899 1178 917 q 1154 873 1169 882 q 1122 868 1139 864 q 1094 888 1104 872 q 1040 982 1064 939 m 1161 1060 q 1160 1092 1153 1075 q 1183 1116 1167 1108 q 1215 1117 1199 1124 q 1239 1093 1232 1110 q 1274 1018 1244 1082 q 1308 939 1297 971 q 1308 906 1315 922 q 1283 883 1300 889 q 1250 884 1267 876 q 1228 908 1233 892 q 1196 982 1217 938 q 1161 1060 1167 1046 z "},"":{"ha":1347,"x_min":96,"x_max":1208,"o":"m 349 926 q 317 936 331 925 q 301 965 303 947 q 310 996 299 982 q 338 1013 321 1010 q 774 1042 501 1031 q 863 1050 813 1043 q 865 1051 864 1051 q 872 1056 867 1053 q 881 1060 878 1058 q 910 1067 897 1067 q 957 1035 944 1067 q 954 988 967 1013 q 938 961 949 976 q 893 911 922 940 q 814 836 869 888 q 426 563 639 675 q 698 602 518 571 q 971 644 878 633 q 1075 651 976 644 q 1096 651 1086 651 q 1129 658 1117 657 q 1159 662 1147 663 q 1179 657 1171 661 q 1208 615 1208 646 q 1190 581 1208 593 q 1181 575 1186 576 q 1172 572 1176 574 q 1163 571 1168 572 q 1142 569 1156 569 q 1107 567 1129 568 q 1079 560 1096 564 q 940 518 999 539 q 661 382 747 449 q 582 283 599 333 q 603 167 564 229 q 744 76 643 99 q 940 65 800 65 q 971 53 958 65 q 983 22 983 40 q 971 -8 983 4 q 940 -21 958 -21 q 728 -7 792 -21 q 528 122 589 22 q 500 311 471 219 q 608 450 525 386 q 719 518 654 485 q 278 468 426 468 q 246 482 258 468 q 149 454 194 464 q 115 460 131 450 q 97 487 100 469 q 103 519 93 504 q 129 538 113 535 q 450 674 276 569 q 756 900 624 778 q 818 958 803 943 q 776 956 788 956 q 349 926 508 946 z "},"":{"ha":1383,"x_min":78,"x_max":1243,"o":"m 329 933 q 298 941 313 931 q 280 969 283 951 q 287 1001 276 986 q 315 1019 297 1015 q 375 1026 342 1024 q 429 1031 408 1029 q 490 1033 450 1032 q 543 1036 531 1035 q 691 1040 596 1039 q 814 1042 786 1040 l 815 1042 q 831 1047 817 1043 q 899 1025 876 1058 q 896 953 918 994 q 864 906 886 932 q 806 842 843 881 q 369 568 683 718 q 404 574 388 571 q 667 597 497 588 q 924 619 846 610 q 993 629 942 621 q 1072 640 1044 638 q 1147 646 1118 644 q 1168 646 1160 646 q 1178 644 1174 644 q 1196 636 1188 642 q 1213 600 1214 622 q 1194 567 1211 579 q 1143 549 1175 553 q 1117 546 1118 546 q 1038 526 1096 540 q 953 503 981 511 q 876 481 926 496 q 796 451 826 465 q 729 417 765 438 q 665 374 693 397 q 600 189 561 286 q 663 109 617 144 q 775 58 708 74 q 974 58 849 42 q 1006 49 992 60 q 1022 21 1019 39 q 1013 -11 1024 3 q 985 -28 1003 -25 q 756 -25 844 -44 q 609 42 672 -7 q 519 157 546 90 q 513 302 490 226 q 610 440 536 378 q 729 515 660 482 q 672 511 721 515 q 418 488 507 501 q 328 474 372 482 q 247 460 285 467 q 196 450 210 453 q 133 443 153 443 q 99 454 113 444 q 78 504 74 472 q 132 553 85 543 q 149 556 144 556 l 150 556 q 227 593 178 568 q 299 629 276 618 q 744 903 629 785 q 793 956 776 935 q 716 954 765 954 q 626 953 667 954 q 549 950 585 951 q 329 933 374 942 m 940 818 q 928 848 928 831 q 940 878 928 865 q 970 892 953 892 q 1001 879 988 892 q 1115 754 1071 811 q 1124 723 1126 740 q 1108 694 1122 706 q 1077 685 1094 683 q 1049 701 1060 688 q 940 818 1007 754 m 1068 919 q 1063 952 1058 935 q 1082 978 1067 969 q 1115 983 1097 988 q 1140 964 1132 979 q 1239 803 1226 828 q 1242 769 1247 786 q 1222 744 1238 753 q 1189 741 1206 736 q 1164 761 1172 746 q 1068 919 1151 785 z "},"":{"ha":1331,"x_min":75,"x_max":1190,"o":"m 418 1071 q 437 1097 422 1088 q 469 1103 451 1107 q 496 1084 486 1099 q 501 1051 506 1069 q 476 889 489 994 q 471 839 472 846 q 658 868 575 847 q 692 863 676 872 q 711 837 707 854 q 706 804 715 819 q 681 785 697 789 q 460 753 583 760 q 453 717 457 733 q 360 346 422 550 q 289 140 324 222 q 204 -1 244 36 q 174 -14 192 -14 q 144 -1 157 -14 q 132 30 132 13 q 146 60 132 47 q 208 174 172 86 q 278 371 242 251 q 369 733 338 571 q 372 749 371 740 q 240 747 325 747 q 119 746 156 747 q 88 758 101 746 q 75 788 75 771 q 88 819 75 806 q 117 832 100 832 q 246 833 156 833 q 383 835 336 833 q 392 899 385 840 q 418 1071 404 1008 m 707 551 q 674 552 690 544 q 651 576 657 560 q 652 610 644 593 q 676 632 660 626 q 812 666 736 654 q 937 679 888 678 q 1071 681 986 681 q 1101 668 1089 681 q 1114 638 1114 656 q 1101 607 1114 619 q 1071 594 1089 594 q 941 593 989 594 q 826 581 893 592 q 707 551 760 571 m 660 383 q 690 396 672 396 q 719 383 707 396 q 732 352 732 369 q 718 322 732 335 q 650 213 667 272 q 672 132 635 158 q 811 93 715 101 q 988 97 893 88 q 1139 118 1082 106 q 1172 113 1157 122 q 1190 85 1186 103 q 1185 53 1194 68 q 1158 35 1175 39 q 995 10 1096 19 q 804 8 894 0 q 622 61 685 18 q 567 235 536 124 q 660 383 590 318 z "},"":{"ha":1357,"x_min":114,"x_max":1215,"o":"m 389 1079 q 410 1104 394 1096 q 443 1108 426 1113 q 468 1087 460 1103 q 472 1054 476 1071 q 444 910 456 1000 q 441 877 443 899 q 438 844 439 856 q 636 886 553 860 q 669 883 653 890 q 690 858 685 875 q 687 824 694 840 q 661 803 679 808 q 425 757 563 772 q 424 751 425 754 q 406 647 421 732 q 377 494 390 561 q 350 367 364 428 q 208 -3 290 111 q 181 -20 199 -17 q 149 -13 164 -24 q 131 15 135 -3 q 139 47 128 32 q 267 386 210 147 q 336 750 283 463 q 149 758 225 744 q 122 776 132 761 q 115 808 111 790 q 133 835 118 825 q 165 842 147 846 q 350 836 236 829 q 355 880 351 851 q 360 919 358 908 q 389 1079 371 1018 m 668 568 q 636 578 650 567 q 621 607 622 589 q 631 639 619 625 q 660 654 642 653 q 832 668 690 657 q 1050 692 974 679 q 1083 683 1068 694 q 1100 655 1097 672 q 1092 623 1103 638 q 1064 606 1081 608 q 843 583 988 594 q 668 568 699 571 m 653 393 q 684 403 667 404 q 713 388 701 401 q 724 356 725 374 q 708 326 722 339 q 642 217 658 285 q 671 126 628 157 q 819 89 718 94 q 1010 100 910 85 q 1158 136 1110 115 q 1191 138 1175 144 q 1215 114 1207 131 q 1215 81 1222 97 q 1192 58 1208 65 q 1024 15 1133 32 q 815 3 914 -3 q 622 56 689 10 q 558 236 531 119 q 653 393 581 332 m 879 1015 q 870 1047 868 1029 q 886 1075 872 1064 q 917 1084 900 1086 q 946 1068 935 1082 q 1050 917 1010 989 q 1053 884 1058 901 q 1033 858 1049 867 q 1001 855 1018 850 q 975 875 983 860 q 879 1015 938 940 m 1019 1063 q 1008 1094 1007 1076 q 1023 1124 1010 1111 q 1053 1135 1036 1136 q 1083 1121 1071 1133 q 1192 981 1154 1044 q 1196 948 1200 965 q 1176 922 1192 931 q 1144 917 1161 913 q 1117 936 1126 921 q 1019 1063 1083 992 z "},"":{"ha":1261,"x_min":122,"x_max":1110,"o":"m 478 1082 q 494 1111 481 1100 q 526 1120 508 1122 q 554 1104 543 1118 q 564 1074 565 1090 q 524 857 553 969 q 769 851 636 849 q 1004 881 901 854 q 1038 876 1022 885 q 1057 849 1053 867 q 1052 817 1061 832 q 1026 797 1043 801 q 953 781 990 788 q 874 772 917 775 q 804 766 831 768 q 726 765 778 764 q 656 765 674 765 q 578 768 639 765 q 508 771 518 771 q 500 771 504 771 q 408 515 463 646 q 385 454 404 506 q 507 508 439 483 q 660 544 572 533 q 831 546 747 556 q 1003 493 928 536 q 1110 368 1079 450 q 1088 176 1146 271 q 938 47 1029 82 q 724 3 865 21 q 506 -7 582 -15 q 360 29 449 -1 q 335 51 343 35 q 333 83 328 67 q 355 108 339 100 q 388 110 371 115 q 514 79 467 83 q 713 88 582 72 q 907 128 844 104 q 1012 217 974 153 q 1029 338 1050 281 q 821 461 990 442 q 671 459 749 469 q 538 428 593 449 q 363 343 432 388 q 360 340 361 342 l 356 336 q 350 329 351 331 q 326 311 339 317 q 269 324 294 297 q 261 338 264 331 q 258 350 258 346 l 258 354 q 258 361 258 357 q 260 367 260 364 q 263 374 261 369 q 269 394 265 381 q 292 453 278 417 q 328 549 321 531 q 411 772 376 664 q 158 790 244 775 q 130 809 140 794 q 123 841 119 824 q 141 869 126 858 q 172 876 156 879 q 435 858 253 861 q 478 1082 467 976 z "},"":{"ha":1363,"x_min":125,"x_max":1222,"o":"m 165 793 q 135 808 147 794 q 125 840 124 822 q 140 869 126 857 q 171 879 154 881 q 311 867 221 875 q 440 856 401 858 q 475 1056 463 951 q 492 1083 478 1072 q 523 1092 506 1094 q 551 1076 540 1090 q 561 1044 563 1063 q 528 849 549 943 q 956 876 785 833 q 989 872 974 881 q 1008 845 1004 863 q 1003 813 1013 828 q 978 793 994 797 q 507 764 789 746 q 439 560 479 661 q 417 503 432 540 q 394 447 403 467 q 464 482 438 474 q 821 518 650 546 q 1000 448 924 503 q 1106 293 1076 393 q 1072 107 1136 185 q 917 8 1022 44 q 735 -28 833 -19 q 565 -29 638 -36 q 501 -19 536 -26 q 428 -1 467 -11 q 373 13 390 10 q 346 32 356 17 q 340 65 336 47 q 358 92 343 82 q 392 97 374 101 q 453 82 417 92 q 518 66 489 72 q 574 57 547 60 q 728 58 639 50 q 889 90 817 65 q 1006 161 971 118 q 1022 268 1042 204 q 808 433 983 406 q 492 401 657 457 q 397 347 465 392 q 351 317 360 322 q 332 307 340 310 q 318 301 325 303 q 281 311 296 297 q 261 360 257 329 q 272 388 263 374 q 282 401 274 390 l 285 404 q 358 590 292 421 q 419 771 394 681 q 297 782 383 774 q 165 793 210 790 m 904 1042 q 898 1074 894 1057 q 917 1101 901 1092 q 949 1108 932 1111 q 976 1089 967 1104 q 990 1069 983 1079 q 998 1056 996 1058 q 1003 1049 1000 1053 q 1008 1042 1006 1046 q 1015 1034 1011 1039 q 1029 1018 1019 1029 q 1050 993 1039 1007 q 1060 961 1061 979 q 1044 932 1058 943 q 1013 922 1031 921 q 983 938 994 924 q 967 958 975 949 q 954 972 958 967 q 946 982 950 978 q 939 990 942 986 q 935 995 936 993 q 930 1002 933 997 q 924 1010 926 1007 q 916 1024 922 1014 q 904 1042 910 1033 m 1051 1032 q 1036 1061 1038 1043 q 1046 1093 1035 1079 q 1075 1108 1057 1107 q 1107 1099 1093 1110 q 1218 965 1181 1036 q 1222 932 1226 949 q 1201 907 1217 915 q 1168 903 1185 899 q 1143 924 1151 908 q 1051 1032 1113 981 z "},"":{"ha":1189,"x_min":192,"x_max":1047,"o":"m 256 469 q 223 465 240 461 q 197 485 206 469 q 192 517 188 500 q 211 544 196 535 q 394 620 279 585 q 622 667 508 656 q 739 672 678 675 q 853 656 800 668 q 953 610 907 643 q 1024 531 999 578 q 1047 354 1063 458 q 1025 276 1040 314 q 992 210 1010 239 q 945 153 975 181 q 892 106 915 125 q 830 65 869 86 q 767 33 790 44 q 699 6 743 22 q 635 -17 654 -11 q 572 -37 615 -24 q 538 -35 554 -43 q 517 -10 522 -28 q 520 23 513 7 q 544 43 528 39 q 628 72 596 60 q 707 102 661 83 q 782 138 753 121 q 845 179 811 154 q 901 231 879 204 q 939 292 922 257 q 961 368 956 328 q 949 489 972 443 q 833 572 917 549 q 631 582 750 594 q 420 538 525 571 q 256 469 315 506 z "},"":{"ha":1289,"x_min":89,"x_max":1149,"o":"m 150 696 q 117 694 135 689 q 92 715 100 699 q 90 748 85 731 q 111 774 94 765 q 326 850 196 817 q 592 894 457 883 q 1075 789 928 919 q 1149 575 1140 731 q 1129 401 1154 458 q 865 161 1072 269 q 536 43 700 75 q 503 49 518 39 q 485 76 489 58 q 492 109 482 94 q 519 126 501 124 q 825 238 672 157 q 1051 435 1006 332 q 1063 569 1068 474 q 1017 725 1057 690 q 847 799 957 778 q 597 808 736 819 q 349 767 471 799 q 150 696 226 736 z "},"":{"ha":1440,"x_min":86,"x_max":1299,"o":"m 140 693 q 107 697 122 689 q 87 723 92 706 q 90 756 82 740 q 115 776 99 771 q 474 863 351 846 q 765 864 601 879 q 1053 781 971 846 q 1156 568 1151 704 q 1061 282 1161 386 q 962 204 1019 238 q 814 129 904 171 q 489 21 643 50 q 456 26 471 17 q 438 54 442 36 q 444 87 435 72 q 472 104 454 101 q 778 207 617 133 q 915 276 864 247 q 999 340 965 306 q 1069 565 1074 419 q 1000 714 1067 661 q 758 779 938 763 q 485 776 603 793 q 140 693 369 761 m 1001 1024 q 991 1054 990 1036 q 1004 1084 992 1072 q 1035 1095 1017 1096 q 1065 1082 1053 1094 q 1174 893 1142 999 q 1169 860 1178 875 q 1144 840 1161 844 q 1111 843 1126 835 q 1090 868 1096 851 q 1001 1024 1065 956 m 1118 1083 q 1107 1114 1106 1096 q 1122 1144 1108 1132 q 1153 1154 1135 1156 q 1182 1139 1171 1153 q 1297 951 1246 1067 q 1299 918 1306 935 q 1276 894 1292 901 q 1243 893 1260 886 q 1219 915 1226 900 q 1118 1083 1172 1019 z "},"":{"ha":1304,"x_min":101,"x_max":1163,"o":"m 149 794 q 117 805 131 793 q 101 834 103 817 q 112 865 100 851 q 140 881 124 879 q 447 899 231 888 q 779 922 663 910 q 898 933 817 926 q 1022 946 979 940 q 1030 947 1024 946 q 1048 949 1036 947 q 1069 953 1060 951 q 1103 957 1092 956 q 1117 958 1111 958 q 1126 958 1122 958 q 1142 954 1135 957 q 1163 932 1156 946 q 1160 894 1171 913 q 1153 886 1157 890 q 1149 881 1150 882 l 1146 879 l 1143 878 l 1140 876 q 1138 876 1139 876 q 1136 874 1138 875 q 1128 871 1133 874 q 1101 861 1125 869 q 1021 828 1054 842 q 889 771 904 781 q 711 623 786 703 q 608 464 636 543 q 757 147 544 285 q 956 67 844 90 q 983 49 974 64 q 990 16 993 33 q 971 -11 986 -1 q 939 -17 956 -21 q 710 75 811 8 q 530 272 574 164 q 526 493 486 379 q 645 678 561 589 q 839 842 729 768 q 788 836 811 839 q 455 813 672 824 q 149 794 238 803 z "},"":{"ha":1381,"x_min":93,"x_max":1242,"o":"m 140 807 q 108 817 122 806 q 93 846 94 828 q 103 878 92 864 q 132 893 114 892 q 506 932 335 911 q 658 940 563 939 q 806 944 765 942 q 833 947 810 944 q 902 955 857 950 q 978 963 947 960 q 1089 974 1050 969 q 1125 976 1113 976 q 1136 978 1132 978 q 1139 978 1138 978 l 1142 978 q 1149 978 1144 978 q 1158 975 1154 976 q 1185 935 1185 963 q 1151 888 1185 899 q 1121 883 1139 883 q 1114 885 1119 885 q 1106 885 1108 885 l 1106 886 q 1053 869 1101 885 q 857 785 914 824 q 682 597 767 721 q 636 289 558 418 q 929 104 708 168 q 954 83 946 99 q 958 51 963 68 q 938 25 953 33 q 904 21 922 17 q 563 244 653 96 q 610 647 456 422 q 807 854 704 783 q 813 858 810 857 l 811 858 q 660 854 768 856 q 517 846 568 853 q 140 807 343 825 m 943 674 q 929 704 931 686 q 940 735 928 722 q 971 749 953 747 q 1001 738 989 750 q 1113 614 1081 664 q 1118 581 1122 599 q 1099 554 1114 564 q 1067 549 1085 544 q 1040 567 1050 553 q 943 674 1014 608 m 1075 756 q 1069 787 1065 769 q 1087 815 1072 804 q 1119 822 1101 825 q 1147 803 1136 818 q 1235 672 1219 697 q 1241 640 1244 657 q 1222 613 1238 622 q 1190 606 1207 603 q 1163 625 1172 610 q 1075 756 1147 650 z "},"":{"ha":1243,"x_min":236,"x_max":1104,"o":"m 992 786 q 1023 776 1010 788 q 1038 747 1036 765 q 1029 716 1040 729 q 1000 700 1018 703 q 665 601 822 682 q 392 386 508 519 q 317 271 336 321 q 329 178 294 211 q 451 132 358 150 q 667 107 536 114 q 1061 101 761 101 q 1092 89 1079 101 q 1104 58 1104 76 q 1092 28 1104 40 q 1061 15 1079 15 q 661 21 758 15 q 435 47 525 29 q 271 114 317 71 q 236 300 193 188 q 328 442 261 367 q 507 604 408 535 q 474 745 490 669 q 440 917 458 821 q 414 1058 422 1013 q 419 1090 410 1075 q 447 1109 429 1106 q 479 1103 464 1113 q 497 1075 494 1093 q 523 942 507 1029 q 553 785 539 856 q 583 653 568 715 q 992 786 772 763 z "},"":{"ha":1338,"x_min":253,"x_max":1199,"o":"m 968 779 q 1001 775 985 783 q 1022 750 1017 767 q 1018 717 1026 733 q 993 696 1010 701 q 817 640 881 663 q 678 583 754 618 q 541 501 603 547 q 410 386 479 454 q 331 281 357 335 q 325 186 301 221 q 431 138 346 158 q 635 110 510 118 q 1014 111 810 100 q 1045 101 1032 113 q 1060 71 1058 89 q 1049 40 1061 53 q 1019 25 1038 26 q 629 24 810 13 q 410 54 497 32 q 256 136 294 82 q 253 318 201 211 q 349 447 286 385 q 543 606 447 543 q 531 621 535 611 q 422 1065 431 861 q 434 1096 422 1083 q 464 1109 446 1108 q 494 1098 482 1110 q 508 1068 507 1086 q 611 654 517 879 q 613 646 613 650 q 968 779 725 706 m 856 1000 q 846 1031 844 1014 q 861 1060 847 1049 q 892 1071 875 1072 q 922 1056 910 1069 q 1025 910 985 981 q 1028 877 1033 894 q 1008 851 1024 860 q 976 848 993 843 q 950 868 958 853 q 856 1000 914 931 m 1028 1056 q 1024 1088 1019 1071 q 1044 1114 1029 1106 q 1077 1117 1060 1122 q 1103 1097 1094 1113 q 1129 1057 1113 1081 q 1157 1014 1151 1024 q 1199 904 1192 958 q 1189 872 1200 886 q 1160 856 1178 858 q 1129 865 1143 854 q 1113 893 1115 876 q 1085 969 1108 929 q 1058 1008 1079 976 q 1028 1056 1039 1036 z "},"":{"ha":1371,"x_min":89,"x_max":1232,"o":"m 853 260 q 681 266 769 279 q 539 204 593 253 q 501 149 503 172 q 534 74 497 107 q 639 30 571 42 q 766 35 707 18 q 850 92 825 53 q 856 244 875 133 q 853 260 854 251 m 425 1072 q 442 1100 428 1089 q 474 1108 457 1111 q 503 1091 492 1106 q 511 1058 514 1076 q 456 836 497 972 q 658 878 571 844 q 691 877 675 885 q 714 853 707 869 q 713 820 721 836 q 689 797 706 804 q 428 747 578 754 q 303 422 372 582 q 175 174 233 263 q 148 155 165 158 q 115 161 131 151 q 97 188 100 171 q 103 221 93 206 q 219 446 156 300 q 336 747 283 592 q 129 758 263 747 q 99 774 111 760 q 89 805 88 788 q 104 834 90 822 q 135 844 118 846 q 365 832 283 832 q 425 1072 413 982 m 840 806 q 813 825 822 810 q 808 858 804 840 q 828 884 813 875 q 860 889 843 893 q 1174 760 1057 843 q 1191 732 1188 750 q 1184 700 1194 714 q 1156 683 1174 686 q 1124 690 1138 679 q 840 806 1021 764 m 831 617 q 847 645 833 635 q 879 653 861 656 q 908 638 897 651 q 917 606 918 624 q 907 444 903 508 q 926 329 908 415 q 1036 288 986 313 q 1092 251 1063 274 q 1138 212 1121 228 q 1184 163 1154 196 q 1219 125 1214 131 q 1232 94 1232 111 q 1219 64 1232 76 q 1188 51 1206 51 q 1158 64 1171 51 q 1119 106 1147 76 q 1077 149 1090 136 q 1041 181 1064 163 q 997 210 1018 200 q 944 233 972 222 q 922 47 963 111 q 796 -45 881 -21 q 625 -56 711 -69 q 547 -33 585 -49 q 478 9 510 -17 q 428 73 446 35 q 415 157 411 111 q 481 268 421 214 q 835 350 610 383 q 821 439 822 408 q 831 617 817 511 z "},"":{"ha":1289,"x_min":122,"x_max":1150,"o":"m 269 1089 q 300 1102 282 1101 q 331 1091 318 1103 q 344 1061 343 1079 q 333 1031 344 1043 q 236 731 271 964 q 208 378 210 557 q 243 142 207 275 q 253 181 247 158 q 272 251 263 214 q 288 320 281 289 q 296 356 294 351 q 315 383 300 374 q 348 388 331 392 q 374 368 365 383 q 379 336 383 353 q 371 300 378 332 q 355 231 364 268 q 336 158 346 193 q 307 53 319 93 q 292 14 299 29 q 265 -22 281 -12 q 221 -24 243 -36 q 208 -14 214 -19 q 203 -6 206 -11 q 197 4 200 -1 q 188 31 193 15 q 160 119 172 71 q 122 378 121 264 q 151 743 124 564 q 269 1089 190 1003 m 547 804 q 517 819 529 806 q 507 851 506 833 q 522 880 508 868 q 553 890 536 892 q 827 876 718 874 q 1099 911 936 879 q 1131 906 1117 915 q 1149 878 1146 896 q 1143 845 1153 860 q 1115 828 1133 831 q 829 790 946 793 q 547 804 713 788 m 636 526 q 669 531 651 535 q 695 511 686 526 q 700 478 704 496 q 681 451 696 461 q 657 438 668 444 q 642 430 646 432 q 633 424 638 428 q 606 389 624 417 q 569 272 576 344 q 589 182 563 201 q 822 142 653 136 q 1079 178 968 144 q 1113 174 1097 182 q 1133 148 1128 165 q 1129 115 1138 131 q 1104 94 1121 100 q 825 56 982 60 q 539 113 625 50 q 483 281 471 161 q 533 436 493 374 q 581 493 560 476 q 636 526 583 494 z "},"":{"ha":1432,"x_min":110,"x_max":1293,"o":"m 290 607 q 206 392 221 524 q 196 260 194 297 q 225 160 197 189 q 271 137 246 136 q 328 157 296 138 q 440 272 385 193 q 454 292 447 282 q 290 607 347 439 m 1068 196 q 1039 215 1053 207 q 860 289 925 293 q 749 250 783 285 q 731 156 714 218 q 776 86 743 108 q 851 72 804 67 q 953 106 899 76 q 1068 196 1022 143 m 658 764 q 600 758 629 763 q 360 669 460 736 q 503 372 408 513 q 658 764 579 511 m 753 1057 q 774 1082 758 1074 q 807 1084 790 1090 q 832 1062 824 1078 q 833 1029 840 1046 q 775 849 811 964 q 947 796 875 838 q 1107 648 1039 744 q 1197 440 1175 551 q 1181 218 1218 329 q 1190 211 1186 215 q 1275 144 1267 151 q 1293 116 1290 133 q 1285 84 1296 99 q 1256 67 1274 69 q 1225 75 1239 64 q 1138 143 1214 83 l 1136 144 q 993 29 1079 75 q 907 -6 950 7 q 815 -15 864 -18 q 729 14 767 -11 q 647 133 669 54 q 689 313 617 244 q 854 375 747 369 q 1088 288 949 381 q 1108 274 1097 281 q 1078 525 1140 393 q 906 721 1017 657 q 749 764 842 757 q 641 462 694 590 q 510 222 588 333 q 375 85 446 131 q 272 50 321 51 q 161 101 210 50 q 110 257 113 154 q 119 403 108 301 q 256 694 142 586 q 263 701 258 699 q 229 967 229 833 q 242 997 229 985 q 272 1010 254 1010 q 303 997 290 1010 q 315 967 315 985 q 338 757 315 861 q 588 843 446 821 q 686 851 638 851 q 753 1057 726 985 z "},"":{"ha":1397,"x_min":74,"x_max":1258,"o":"m 1017 192 q 986 214 1001 204 q 767 269 860 300 q 721 233 729 257 q 726 181 713 211 q 772 120 740 147 q 833 89 803 93 q 956 106 908 76 q 1017 192 994 132 m 154 236 q 131 213 147 221 q 98 213 114 206 q 74 236 82 219 q 74 269 67 253 q 89 307 78 278 q 100 335 96 325 q 144 397 111 357 q 300 553 197 465 q 299 600 299 592 q 294 687 297 629 q 290 768 292 744 q 133 744 243 760 q 101 753 115 743 q 85 782 88 764 q 94 814 83 800 q 122 831 104 828 q 289 854 238 846 q 308 1069 288 979 q 327 1096 313 1086 q 359 1101 342 1106 q 386 1083 376 1097 q 392 1050 396 1068 q 375 871 375 974 q 440 888 408 879 q 473 883 457 892 q 493 858 489 875 q 489 824 497 840 q 463 804 481 808 q 376 783 421 793 q 381 703 378 757 q 385 621 383 649 q 522 717 454 674 q 772 832 660 803 q 1004 817 914 871 q 1108 651 1085 768 q 1115 594 1113 625 q 1120 528 1118 563 q 1124 481 1122 493 q 1115 224 1138 329 q 1246 96 1164 181 q 1258 65 1258 82 q 1245 35 1258 47 q 1215 22 1232 22 q 1185 35 1197 22 q 1086 133 1121 101 q 1001 35 1054 68 q 819 3 928 -14 q 716 53 764 13 q 647 147 668 94 q 640 264 621 210 q 739 350 664 325 q 1035 286 872 396 q 1038 283 1036 285 q 1038 472 1047 364 q 1035 525 1036 492 q 1031 585 1033 558 q 1024 635 1028 611 q 960 742 1008 714 q 794 750 900 778 q 568 643 694 722 q 388 514 478 588 q 436 50 397 219 q 431 17 440 32 q 403 -1 421 3 q 372 4 386 -6 q 353 31 357 14 q 304 440 315 196 q 211 344 244 385 q 178 296 185 310 q 169 275 174 290 q 154 236 157 246 z "},"":{"ha":1353,"x_min":125,"x_max":1210,"o":"m 651 915 q 608 908 631 913 q 373 808 481 883 q 228 624 265 732 q 222 602 225 614 q 217 582 219 590 q 214 559 215 574 q 212 538 213 544 q 211 514 211 532 q 211 492 211 496 q 211 466 211 488 q 211 442 211 444 q 239 274 211 324 q 310 203 272 214 q 376 219 339 196 q 451 293 415 243 q 508 396 488 343 q 572 594 540 474 q 594 672 579 621 q 617 754 608 724 q 635 828 625 785 q 649 907 644 871 q 651 915 650 911 m 731 921 q 735 896 736 908 q 719 810 729 857 q 700 732 708 764 q 677 648 692 700 q 656 572 663 596 q 589 363 622 447 q 519 240 564 301 q 422 146 475 179 q 288 119 353 103 q 164 232 215 140 q 125 442 125 301 q 125 469 125 444 q 125 499 125 493 q 126 527 125 506 q 128 560 126 549 q 131 589 129 571 q 138 622 133 607 q 147 651 142 638 q 253 817 179 743 q 413 933 326 890 q 592 992 499 975 q 929 961 807 1033 q 1165 729 1100 860 q 1209 580 1197 664 q 1210 413 1221 496 q 1058 128 1182 215 q 722 19 936 42 q 690 29 704 18 q 675 58 676 40 q 685 90 674 76 q 714 106 696 104 q 1008 197 906 125 q 1124 424 1103 264 q 1124 567 1133 496 q 1088 690 1114 639 q 885 886 1035 799 q 731 921 825 922 z "},"":{"ha":1369,"x_min":115,"x_max":1231,"o":"m 906 240 q 894 244 900 243 q 624 271 708 322 q 582 235 593 253 q 571 186 571 217 q 608 105 572 136 q 704 69 643 74 q 819 86 765 64 q 894 149 872 108 q 906 240 904 168 m 246 1068 q 275 1084 257 1082 q 307 1076 293 1086 q 323 1047 321 1065 q 315 1015 325 1029 q 222 682 258 942 q 201 311 190 447 q 228 178 203 286 q 239 208 232 192 q 262 274 247 232 q 279 325 276 317 q 307 400 300 386 q 331 423 314 417 q 365 422 349 429 q 387 397 381 414 q 385 364 393 379 q 360 296 379 353 q 342 247 357 289 q 319 181 328 204 q 278 69 294 107 q 260 29 268 44 q 250 14 256 19 q 222 -7 239 -3 q 181 4 199 -12 q 169 18 174 10 q 165 34 167 25 q 160 63 163 43 q 150 131 151 118 q 138 181 146 146 q 124 247 131 215 q 115 303 118 278 q 136 693 103 450 q 246 1068 175 975 m 883 1061 q 901 1089 886 1079 q 933 1095 915 1099 q 961 1077 951 1092 q 967 1044 971 1063 q 947 807 944 924 q 1082 843 976 814 q 1114 839 1099 847 q 1134 813 1129 831 q 1131 781 1139 796 q 1104 760 1122 765 q 953 719 990 728 q 960 657 956 699 q 981 453 975 513 q 992 296 989 363 q 1218 140 1135 224 q 1231 110 1231 128 q 1218 79 1231 92 q 1188 67 1206 67 q 1157 79 1169 67 q 990 199 1097 139 q 969 107 986 138 q 855 7 932 39 q 696 -17 778 -25 q 549 42 611 -10 q 485 186 486 94 q 508 279 483 242 q 579 346 532 317 q 903 335 694 414 q 896 446 901 382 q 875 647 890 504 q 868 704 871 682 q 835 701 851 703 q 650 700 792 699 q 478 690 543 703 q 447 698 461 688 q 428 726 432 708 q 435 758 425 743 q 464 776 446 772 q 651 786 536 789 q 829 788 789 785 q 861 790 844 789 q 861 793 861 792 q 883 1061 857 925 z "},"":{"ha":1436,"x_min":100,"x_max":1294,"o":"m 869 246 q 714 275 788 278 q 627 256 667 274 q 568 214 588 239 q 593 92 528 161 q 642 74 604 79 q 736 74 685 67 q 825 97 789 81 q 863 129 857 113 q 869 246 874 164 m 232 1064 q 260 1080 243 1078 q 292 1072 278 1082 q 309 1044 307 1061 q 301 1011 311 1026 q 203 671 231 918 q 186 282 186 519 q 201 144 186 257 q 233 231 207 158 q 307 403 274 342 q 333 423 315 418 q 365 419 350 428 q 385 394 381 411 q 382 361 390 376 q 314 201 351 306 q 246 31 269 79 q 243 24 244 28 q 239 6 240 10 q 224 -21 232 -11 q 172 -36 201 -43 q 144 -17 154 -32 q 140 -7 142 -12 q 136 7 138 -1 q 129 38 133 18 q 117 126 124 72 q 100 282 100 250 q 117 681 100 525 q 232 1064 147 951 m 494 692 q 465 709 476 694 q 457 741 454 724 q 474 769 460 758 q 506 778 489 781 q 833 763 676 753 q 833 772 833 768 q 828 1022 835 942 q 838 1054 826 1040 q 867 1069 850 1068 q 899 1059 885 1071 q 914 1031 913 1047 q 919 772 921 946 l 919 771 q 1153 829 1050 786 q 1186 829 1169 836 q 1210 806 1203 822 q 1210 772 1217 789 q 1186 749 1203 756 q 918 683 1067 701 q 925 522 918 589 q 936 427 926 497 q 950 317 946 357 q 951 304 951 310 q 1186 147 1058 253 q 1201 118 1200 136 q 1192 86 1203 100 q 1163 71 1181 72 q 1131 81 1144 69 q 957 204 1036 158 q 943 101 957 139 q 864 21 926 51 q 747 -12 814 -4 q 628 -11 683 -21 q 529 33 561 0 q 468 156 475 93 q 500 267 461 218 q 590 334 533 310 q 711 361 647 358 q 861 340 783 364 q 850 428 858 367 q 839 514 842 490 q 832 676 833 583 q 494 692 669 667 m 1033 1063 q 1039 1095 1029 1081 q 1066 1114 1049 1110 q 1098 1108 1083 1118 q 1117 1082 1113 1099 q 1147 1008 1124 1051 q 1192 924 1185 942 q 1193 892 1200 908 q 1170 867 1186 875 q 1138 867 1154 860 q 1114 890 1121 874 q 1072 967 1107 903 q 1033 1063 1043 1019 m 1143 1089 q 1149 1122 1139 1107 q 1177 1140 1160 1136 q 1209 1133 1194 1143 q 1226 1106 1224 1122 q 1242 1047 1232 1075 q 1269 980 1253 1018 q 1294 917 1285 942 q 1294 883 1301 900 q 1269 860 1286 867 q 1236 862 1253 854 q 1213 886 1219 869 q 1190 944 1207 903 q 1160 1021 1172 986 q 1143 1089 1149 1056 z "},"":{"ha":1450,"x_min":125,"x_max":1301,"o":"m 899 257 q 733 282 814 282 q 556 197 579 282 q 572 103 539 140 q 672 54 604 65 q 803 67 742 43 q 885 140 865 92 q 899 257 903 182 m 1274 1089 q 1301 1054 1292 1074 q 1292 943 1329 999 q 1237 894 1271 913 q 1158 878 1203 876 q 1075 907 1114 879 q 1031 965 1042 931 q 1030 1031 1021 1000 q 1061 1086 1039 1063 q 1147 1135 1096 1126 q 1257 1111 1197 1144 q 1274 1089 1269 1103 m 1156 1049 q 1125 1029 1138 1044 q 1125 976 1096 997 q 1180 965 1154 960 q 1219 992 1206 971 q 1225 1015 1229 1006 q 1171 1043 1215 1033 q 1156 1049 1163 1044 m 229 1054 q 251 1079 235 1071 q 283 1083 267 1088 q 308 1062 300 1078 q 313 1029 317 1046 q 211 257 171 572 q 219 190 215 224 q 310 397 256 297 q 335 417 318 413 q 367 414 351 422 q 388 389 383 406 q 385 356 393 372 q 289 124 326 246 q 268 57 271 65 q 267 51 267 54 q 267 42 267 49 q 265 28 267 35 q 236 -33 261 -14 q 192 -40 217 -50 q 172 -22 179 -35 q 164 -6 167 -15 q 160 18 163 3 q 155 49 158 26 q 149 83 151 71 q 125 246 135 168 q 229 1054 83 579 m 878 1067 q 899 1092 883 1083 q 931 1095 914 1100 q 957 1075 949 1090 q 961 1042 965 1060 q 936 806 935 950 q 1140 836 1036 817 q 1173 830 1158 840 q 1191 802 1188 819 q 1184 770 1194 785 q 1157 753 1174 756 q 940 719 1046 731 q 956 542 944 657 q 969 413 968 428 q 975 362 971 396 q 981 321 979 328 q 1025 300 1006 311 q 1072 269 1047 289 q 1111 236 1097 250 q 1151 196 1125 222 q 1185 164 1178 169 q 1197 134 1197 151 q 1185 103 1197 117 q 1155 90 1172 90 q 1124 103 1138 90 q 1090 136 1114 113 q 1054 172 1067 160 q 1022 199 1042 183 q 986 224 1003 214 q 965 107 985 156 q 840 -10 929 24 q 658 -31 750 -44 q 507 46 561 -15 q 472 222 443 118 q 513 294 485 264 q 578 339 540 324 q 653 361 615 354 q 733 368 692 368 q 890 349 808 368 q 883 404 885 386 q 871 530 883 414 q 854 713 858 646 q 501 717 678 700 q 472 732 483 718 q 463 764 461 746 q 478 793 464 782 q 510 803 492 804 q 851 799 681 786 q 878 1067 847 961 z "},"":{"ha":1442,"x_min":119,"x_max":1303,"o":"m 160 890 q 130 906 142 892 q 119 937 118 919 q 135 966 121 954 q 165 976 149 978 q 425 990 322 964 q 496 1010 429 992 q 539 1022 524 1018 q 553 1026 549 1025 q 559 1028 557 1028 q 563 1029 561 1028 q 568 1029 565 1029 q 578 1028 572 1029 q 610 1003 600 1024 q 611 974 615 988 q 607 965 610 969 q 604 960 606 963 q 601 956 603 958 q 596 950 599 954 q 581 933 592 946 q 531 882 543 894 q 431 767 456 801 q 319 563 365 675 q 265 346 272 450 q 469 29 247 104 q 683 49 579 -7 q 782 129 742 81 q 841 234 822 178 q 871 358 860 290 q 881 493 882 425 q 881 635 881 561 q 878 681 881 656 q 873 725 875 707 q 866 774 871 743 q 858 822 861 804 q 856 849 857 832 q 854 869 856 864 l 853 874 q 850 881 853 875 q 846 890 847 888 q 842 921 840 907 q 857 953 843 939 q 890 965 871 965 q 918 956 906 965 q 929 946 924 953 q 946 926 938 939 q 978 876 958 908 q 997 843 988 861 q 1015 812 1007 825 q 1024 797 1022 799 q 1058 746 1038 771 q 1094 703 1078 721 q 1140 661 1110 686 q 1184 624 1169 636 q 1236 583 1199 613 q 1286 543 1274 554 q 1302 515 1300 532 q 1293 483 1304 497 q 1265 467 1282 469 q 1233 476 1247 465 q 1178 518 1228 481 q 1113 569 1129 556 q 1062 615 1097 583 q 1003 676 1026 647 q 958 739 979 706 q 967 635 967 679 q 967 520 969 582 q 963 397 965 458 q 943 274 960 336 q 902 157 926 211 q 832 55 878 103 q 725 -26 786 7 q 442 -51 588 -100 q 278 47 340 -18 q 194 187 215 111 q 179 353 172 263 q 239 593 188 469 q 361 817 290 717 q 433 904 382 847 q 160 890 321 878 z "},"":{"ha":1425,"x_min":110,"x_max":1285,"o":"m 157 882 q 125 892 139 881 q 110 922 111 904 q 120 953 108 939 q 149 968 132 967 q 283 968 190 971 q 406 971 364 965 q 481 988 426 974 q 499 992 488 989 q 515 997 511 996 q 528 1000 524 999 q 533 1001 532 1000 q 540 1001 538 1001 q 550 1000 544 1001 q 578 982 568 997 q 583 942 590 964 q 575 924 581 933 q 556 897 568 913 q 497 832 536 874 q 396 725 400 729 q 309 576 343 653 q 263 422 275 500 q 274 268 250 343 q 358 138 297 193 q 467 67 421 79 q 625 90 533 47 q 828 263 778 164 q 874 539 869 346 q 857 789 876 664 q 842 904 846 868 q 839 929 839 921 q 839 939 839 935 q 842 951 839 946 q 857 972 846 965 q 904 975 881 989 q 912 969 908 972 q 917 963 915 965 l 918 961 q 919 958 919 960 q 922 956 921 957 q 922 951 922 954 q 928 942 925 949 q 943 910 932 933 q 965 860 964 863 q 1071 692 1007 782 q 1153 603 1096 653 q 1253 511 1236 529 q 1265 481 1265 499 q 1252 451 1265 464 q 1222 439 1239 439 q 1192 453 1204 439 q 1096 539 1176 467 q 999 642 1032 596 q 954 711 975 676 q 960 536 961 625 q 946 358 957 431 q 906 225 935 285 q 661 13 842 99 q 442 -17 540 -44 q 300 74 378 3 q 204 208 236 133 q 172 356 172 283 q 194 507 172 429 q 249 650 215 585 q 326 775 282 715 q 431 888 335 786 q 417 885 422 886 q 281 882 368 879 q 157 882 193 885 m 994 972 q 982 1003 982 985 q 994 1033 982 1021 q 1025 1046 1007 1046 q 1056 1033 1043 1046 q 1115 962 1094 994 q 1154 878 1136 929 q 1153 845 1161 861 q 1128 823 1144 829 q 1095 825 1111 817 q 1074 850 1079 833 q 1042 915 1058 890 q 994 972 1026 940 m 1103 1040 q 1089 1069 1090 1051 q 1099 1101 1088 1088 q 1129 1115 1111 1114 q 1161 1104 1147 1117 q 1281 954 1235 1039 q 1284 922 1289 939 q 1264 896 1279 904 q 1231 892 1249 888 q 1206 913 1214 897 q 1103 1040 1167 985 z "},"":{"ha":1438,"x_min":119,"x_max":1292,"o":"m 1119 1049 q 1115 1046 1118 1047 q 1088 1001 1093 1033 q 1095 938 1081 967 q 1136 906 1110 910 q 1180 915 1157 901 q 1211 953 1203 929 q 1207 993 1218 974 q 1135 1040 1189 1021 q 1119 1049 1126 1043 m 160 894 q 131 909 143 896 q 119 940 118 922 q 134 969 121 957 q 165 981 147 982 q 418 1000 286 974 q 431 1003 421 1001 q 458 1009 442 1006 q 488 1015 475 1013 q 532 1025 517 1022 q 549 1028 543 1026 q 558 1028 554 1028 q 568 1026 564 1028 q 600 1001 590 1024 q 574 931 617 960 q 565 924 568 926 q 560 922 561 922 q 558 921 560 922 q 428 767 485 843 q 338 601 379 704 q 282 399 296 499 q 401 103 250 163 q 560 80 481 69 q 703 127 639 90 q 810 231 767 164 q 861 381 853 299 q 856 779 882 594 q 829 915 843 867 q 828 917 829 917 q 826 922 828 918 q 819 935 824 926 q 811 963 811 950 q 824 998 810 983 q 858 1013 838 1013 q 903 988 888 1013 q 913 961 910 976 l 914 946 q 988 807 947 872 q 1233 540 1068 679 q 1249 510 1247 528 q 1238 479 1250 493 q 1209 464 1226 465 q 1178 474 1192 463 q 950 710 1036 593 q 947 372 964 550 q 902 217 939 289 q 808 97 865 146 q 680 20 750 49 q 528 -8 610 -8 q 371 22 447 -8 q 270 89 311 46 q 213 183 229 132 q 192 294 197 235 q 196 410 186 354 q 258 634 211 521 q 358 819 304 747 q 439 917 394 867 q 435 917 436 917 q 160 894 292 888 m 1225 1122 q 1248 1102 1240 1117 q 1251 1071 1256 1088 q 1279 1038 1268 1056 q 1292 925 1313 985 q 1226 842 1275 874 q 1119 819 1176 810 q 1021 894 1051 832 q 1003 1018 990 956 q 1074 1121 1017 1090 q 1225 1122 1138 1157 z "},"":{"ha":1372,"x_min":92,"x_max":1232,"o":"m 396 967 q 371 988 379 972 q 369 1021 363 1004 q 391 1046 375 1038 q 424 1047 407 1054 q 495 1022 450 1039 q 567 994 540 1004 q 633 974 594 985 q 706 958 671 964 q 818 947 744 951 q 864 946 839 946 q 873 944 868 944 q 879 944 878 944 q 883 944 882 944 q 885 944 883 944 q 888 944 886 944 q 892 943 889 944 q 899 942 894 943 q 910 935 904 939 q 925 899 926 921 q 915 875 924 885 q 911 869 914 872 q 907 867 908 868 q 904 864 906 865 q 902 863 903 864 q 901 863 901 863 q 899 861 900 863 q 890 857 896 860 q 863 843 869 847 q 807 815 821 824 q 700 739 744 781 q 643 646 649 689 q 679 521 638 600 q 735 431 697 489 q 779 361 772 372 q 851 190 842 258 q 774 21 864 86 q 667 -27 729 -11 q 550 -33 606 -43 q 508 -19 531 -29 q 473 -1 485 -8 q 438 24 461 7 l 414 40 q 395 69 399 51 q 402 101 392 86 q 430 119 413 115 q 461 113 447 122 q 490 92 469 107 q 519 72 511 78 q 540 60 526 67 q 567 53 554 54 q 647 57 603 46 q 724 90 692 68 q 765 179 772 126 q 706 317 760 229 q 660 387 700 325 q 604 479 621 449 q 557 657 549 583 q 640 801 567 731 q 728 868 678 836 q 692 872 707 871 q 597 894 643 881 q 481 935 551 908 q 396 967 410 961 m 271 499 q 294 521 278 514 q 327 520 311 528 q 350 496 343 513 q 349 463 357 479 q 319 378 338 438 q 285 283 300 317 q 251 220 271 253 q 206 147 232 188 q 170 92 179 107 q 144 72 161 76 q 111 77 126 68 q 92 103 96 86 q 97 136 88 121 q 134 195 108 156 q 176 263 160 235 q 207 319 193 292 q 238 403 219 347 q 271 499 257 467 m 969 471 q 960 502 958 485 q 975 531 961 519 q 1006 542 989 543 q 1036 526 1024 540 q 1232 119 1178 358 q 1226 87 1236 101 q 1199 68 1217 72 q 1167 74 1182 64 q 1149 100 1153 83 q 969 471 1099 318 z "},"":{"ha":1428,"x_min":78,"x_max":1288,"o":"m 365 974 q 342 997 349 981 q 342 1029 335 1013 q 366 1053 350 1046 q 399 1051 382 1060 q 507 1008 467 1024 q 605 977 547 992 q 714 958 663 963 q 806 957 743 956 q 825 957 811 957 q 843 957 839 957 q 857 957 853 957 q 863 957 860 957 q 871 956 867 957 q 881 951 875 954 q 903 921 899 942 q 878 865 907 889 q 843 842 867 854 q 807 824 840 840 q 754 796 774 807 q 628 636 636 726 q 668 522 624 590 q 718 454 685 496 q 774 382 767 393 q 854 222 843 289 q 782 42 869 122 q 676 -19 738 1 q 557 -32 615 -40 q 407 29 490 -22 q 388 55 392 38 q 392 88 383 72 q 419 107 401 103 q 451 101 436 111 q 568 54 519 61 q 650 63 607 49 q 724 106 693 78 q 769 208 778 154 q 706 331 761 254 q 650 400 697 340 q 596 474 615 444 q 542 644 535 568 q 710 869 556 779 q 714 872 713 871 q 708 872 711 872 q 583 894 649 876 q 476 927 518 911 q 365 974 435 943 m 253 504 q 274 531 258 522 q 306 534 289 539 q 332 514 324 529 q 336 482 340 499 q 332 468 333 474 q 332 464 332 465 q 319 386 332 449 q 301 321 314 354 q 267 247 289 288 q 233 188 244 207 q 190 122 221 168 q 157 71 160 76 q 130 52 147 56 q 97 58 113 49 q 78 85 82 68 q 85 118 75 103 q 119 172 89 125 q 160 234 150 218 q 190 286 169 250 q 220 349 210 322 q 236 403 231 376 q 239 424 238 414 q 236 432 238 428 q 236 440 236 436 q 236 446 236 443 q 236 449 236 447 q 238 450 238 449 l 238 450 q 239 454 238 451 q 239 457 239 456 q 253 504 243 471 m 986 804 q 980 837 976 819 q 999 864 983 854 q 1031 870 1014 874 q 1058 851 1049 867 q 1101 793 1071 832 q 1149 729 1133 753 q 1155 697 1158 714 q 1136 669 1151 679 q 1103 663 1121 660 q 1076 682 1086 667 q 1033 740 1064 703 q 986 804 1001 781 m 1154 844 q 1144 856 1154 844 q 1124 883 1135 868 q 1117 915 1114 897 q 1135 944 1121 933 q 1167 951 1149 954 q 1194 933 1185 947 q 1222 897 1201 924 q 1257 849 1242 871 q 1283 806 1272 826 q 1287 772 1292 789 q 1266 747 1282 756 q 1233 744 1250 739 q 1208 764 1217 749 q 1185 801 1197 783 q 1154 844 1174 819 m 972 471 q 964 503 961 486 q 981 532 967 521 q 1013 540 996 543 q 1042 524 1031 538 q 1088 452 1067 489 q 1130 371 1110 415 q 1161 298 1150 326 q 1193 215 1172 269 q 1221 140 1214 160 q 1220 108 1228 124 q 1196 85 1213 92 q 1163 85 1179 78 q 1140 110 1147 93 q 1112 186 1132 132 q 1081 267 1092 240 q 1052 334 1071 293 q 1015 408 1033 375 q 972 471 996 440 z "},"":{"ha":1392,"x_min":101,"x_max":1244,"o":"m 779 928 q 786 932 783 931 l 788 933 q 779 928 781 938 m 1119 888 q 1032 868 1064 910 q 1019 824 1017 853 q 1050 774 1022 796 q 1111 755 1081 750 q 1158 785 1142 760 q 1164 837 1174 810 q 1119 888 1154 864 m 1160 964 q 1183 953 1172 960 q 1201 932 1196 944 q 1244 867 1232 901 q 1231 738 1271 799 q 1126 669 1193 682 q 994 707 1060 657 q 934 815 940 753 q 964 921 928 878 q 1079 981 1007 978 q 1125 985 1101 996 q 1160 964 1143 975 m 396 963 q 371 984 379 968 q 367 1017 363 1000 q 388 1042 372 1033 q 421 1046 404 1050 q 491 1023 446 1038 q 563 1000 536 1008 q 627 982 589 992 q 697 967 665 972 q 781 956 708 964 q 783 956 782 956 q 790 957 785 956 q 799 958 796 958 q 828 958 815 961 q 865 915 860 949 q 853 876 868 894 q 839 864 847 871 q 808 843 831 857 q 726 785 753 807 q 621 622 618 700 q 642 544 622 581 q 701 464 663 508 q 724 440 707 458 q 750 411 742 421 q 774 383 758 401 q 798 350 789 364 q 817 317 807 336 q 833 278 828 297 q 844 140 858 203 q 783 32 831 76 q 676 -28 740 -11 q 543 -33 613 -44 q 511 -26 526 -31 q 481 -12 496 -21 q 455 1 465 -4 q 428 18 444 7 q 405 34 411 29 q 382 52 399 39 q 363 68 365 65 q 347 96 349 78 q 355 128 344 114 q 383 144 365 142 q 415 135 401 146 q 432 122 419 132 q 449 109 444 113 q 464 97 453 106 q 480 86 475 89 q 494 77 485 83 q 510 68 504 71 q 525 62 517 65 q 541 56 533 58 q 557 53 549 54 q 724 94 663 33 q 753 250 785 153 q 740 278 747 264 q 726 303 732 293 q 706 330 719 314 q 687 353 693 346 q 663 381 681 361 q 638 407 644 400 q 564 508 592 458 q 535 619 536 557 q 672 853 531 740 q 707 878 688 865 q 683 881 685 881 q 606 898 647 888 q 537 917 565 908 q 463 942 508 926 q 396 963 417 957 m 256 503 q 277 528 261 519 q 310 531 293 536 q 335 510 326 526 q 339 478 343 494 q 181 86 276 279 q 156 65 172 71 q 123 67 139 60 q 101 92 107 75 q 103 125 96 108 q 256 503 196 311 m 974 488 q 979 520 969 506 q 1006 539 989 535 q 1038 533 1024 543 q 1057 507 1053 524 q 1097 422 1065 471 q 1156 322 1144 349 q 1208 76 1199 224 q 1198 45 1210 58 q 1168 31 1186 32 q 1137 41 1150 29 q 1122 71 1124 53 q 1078 286 1114 203 q 1025 375 1068 308 q 974 488 985 438 z "},"":{"ha":1401,"x_min":71,"x_max":1263,"o":"m 150 390 q 125 370 142 375 q 92 374 108 365 q 72 399 76 382 q 75 432 67 415 q 149 546 97 474 q 260 683 201 618 q 389 807 331 764 q 528 853 468 867 q 690 738 596 839 q 808 596 742 683 q 1000 387 893 482 q 1244 196 1107 292 q 1262 169 1258 186 q 1255 137 1265 151 q 1227 119 1244 122 q 1194 126 1210 115 q 942 324 1053 224 q 739 543 831 424 q 628 679 675 628 q 508 769 551 760 q 439 738 489 774 q 324 626 389 700 q 220 497 269 565 q 150 390 171 428 z "},"":{"ha":1351,"x_min":76,"x_max":1213,"o":"m 156 396 q 128 376 146 381 q 96 381 111 372 q 76 408 81 390 q 81 440 72 425 q 239 657 131 525 q 344 772 297 728 q 443 843 403 831 q 504 847 463 849 q 565 839 546 846 q 761 668 654 808 q 812 599 782 642 q 865 527 842 557 q 907 476 888 497 q 1196 229 1001 376 q 1212 200 1210 218 q 1203 168 1214 182 q 1175 152 1193 154 q 1143 160 1157 150 q 843 418 943 313 q 797 474 822 440 q 741 551 772 507 q 693 617 710 594 q 538 758 601 736 q 501 761 531 760 q 468 760 474 763 q 404 711 449 754 q 306 603 361 669 q 156 396 201 476 m 883 843 q 874 874 872 857 q 889 903 875 892 q 920 914 903 915 q 950 899 938 913 q 1075 733 1036 797 q 1079 701 1083 718 q 1060 674 1075 683 q 1027 669 1044 665 q 1000 689 1010 674 q 883 843 967 746 m 1006 904 q 990 933 992 915 q 1000 965 989 951 q 1029 981 1011 979 q 1061 971 1047 982 q 1206 799 1163 888 q 1207 765 1213 782 q 1185 741 1201 749 q 1153 739 1169 733 q 1128 760 1136 744 q 1006 904 1093 832 z "},"":{"ha":1367,"x_min":67,"x_max":1228,"o":"m 1040 900 q 1025 903 1032 900 q 981 906 997 915 q 957 874 965 897 q 951 821 947 847 q 963 796 956 800 q 986 792 964 794 q 1050 803 1029 788 q 1065 835 1064 814 q 1040 900 1068 874 m 946 985 q 978 997 960 999 q 988 997 985 997 q 997 997 990 997 q 1006 997 1003 997 q 1050 992 1031 999 q 1128 928 1100 976 q 1151 829 1156 879 q 1103 735 1146 768 q 978 706 1054 697 q 913 724 933 711 q 867 807 875 750 q 875 901 860 856 q 939 981 894 957 q 946 985 943 983 m 144 375 q 116 357 133 360 q 84 365 99 354 q 67 394 69 376 q 75 425 64 411 q 269 672 169 554 q 393 810 343 761 q 447 856 425 839 q 511 876 483 879 q 574 840 538 872 q 629 785 597 821 q 681 725 644 767 q 715 686 707 694 q 867 523 769 632 q 1045 336 965 414 q 1208 201 1125 258 q 1227 173 1224 190 q 1220 141 1231 156 q 1192 123 1210 126 q 1161 129 1175 119 q 988 272 1074 189 q 801 467 901 356 q 654 625 701 578 q 615 669 643 636 q 565 726 581 710 q 517 776 536 760 q 503 788 508 783 q 496 785 500 786 q 454 747 479 772 q 335 618 406 701 q 144 375 238 501 z "},"":{"ha":1360,"x_min":131,"x_max":1221,"o":"m 900 226 q 817 250 857 240 q 608 242 672 283 q 561 158 554 207 q 610 81 568 108 q 715 53 651 53 q 826 83 778 54 q 886 156 874 113 q 900 226 896 189 m 232 1082 q 257 1103 240 1099 q 290 1100 274 1108 q 310 1075 306 1092 q 307 1043 315 1058 q 274 965 289 1007 q 250 892 260 924 q 234 804 240 860 q 224 724 228 749 q 219 632 221 699 q 217 549 217 565 q 217 456 217 533 q 217 372 217 379 q 225 207 217 288 q 294 372 251 293 q 319 392 303 388 q 352 389 336 397 q 373 364 368 381 q 369 331 378 347 q 285 100 315 228 q 281 43 285 99 q 250 -40 276 -11 q 199 -50 228 -64 q 181 -33 188 -44 q 174 -19 176 -28 q 168 6 171 -11 q 149 118 161 42 q 131 372 131 243 q 131 455 131 385 q 131 548 131 525 q 133 635 131 571 q 138 731 135 700 q 149 819 142 763 q 167 913 157 875 q 194 997 178 951 q 232 1082 211 1043 m 489 601 q 459 616 471 603 q 449 647 447 629 q 463 677 450 665 q 494 688 476 689 q 851 688 658 676 q 850 883 838 801 q 822 881 836 882 q 746 878 788 879 q 676 879 704 878 q 596 883 647 881 q 525 885 544 885 q 495 898 507 885 q 483 929 483 911 q 497 959 483 947 q 528 971 510 971 q 624 967 535 971 q 720 965 714 964 q 817 967 726 965 q 960 986 872 969 q 1108 1013 1083 1008 q 1140 1004 1125 1015 q 1157 976 1154 993 q 1149 944 1160 958 q 1119 926 1138 929 q 975 901 1097 924 q 940 894 956 897 q 938 693 922 817 q 1146 714 1035 701 q 1178 704 1164 715 q 1194 676 1192 693 q 1185 644 1196 658 q 1157 628 1174 631 q 950 608 1046 615 q 961 547 953 592 q 989 283 990 375 q 1085 233 1044 260 q 1126 202 1106 219 q 1174 158 1146 185 q 1207 128 1201 132 q 1221 98 1219 115 q 1210 67 1222 81 q 1180 53 1197 54 q 1149 64 1163 51 q 1113 98 1139 74 q 1072 136 1088 122 q 1038 161 1056 150 q 982 192 1014 176 q 969 133 978 161 q 874 11 947 54 q 715 -33 800 -32 q 558 10 628 -35 q 475 147 488 56 q 493 243 468 200 q 561 314 518 286 q 836 333 657 375 q 903 315 869 326 q 876 533 900 390 q 864 601 867 592 q 489 601 661 590 z "},"":{"ha":1421,"x_min":119,"x_max":1282,"o":"m 875 250 q 668 276 781 288 q 557 231 599 269 q 533 136 517 192 q 589 73 544 96 q 696 53 633 50 q 805 82 757 54 q 868 151 853 110 q 875 250 878 181 m 210 1047 q 235 1069 218 1064 q 269 1066 253 1074 q 290 1041 285 1058 q 288 1008 294 1024 q 211 650 228 894 q 206 258 199 493 q 213 168 207 231 q 235 249 217 185 q 296 436 271 369 q 318 460 301 453 q 351 462 335 468 q 376 439 368 456 q 376 406 383 422 q 318 224 353 343 q 260 38 281 93 q 257 28 260 36 q 251 10 254 17 q 190 -31 233 -35 q 157 -8 169 -28 q 149 8 153 -1 q 142 39 144 19 q 131 118 136 68 q 119 256 121 207 q 125 656 113 494 q 210 1047 143 918 m 460 583 q 431 600 442 586 q 423 632 421 614 q 439 660 425 650 q 471 669 453 671 q 857 672 625 650 q 857 682 857 678 q 853 729 856 696 q 850 782 851 763 q 849 831 849 801 q 851 886 849 861 q 496 882 764 882 q 465 894 478 882 q 453 925 453 907 q 465 956 453 943 q 496 968 478 968 q 579 968 515 968 q 667 968 643 968 q 746 969 692 968 q 833 971 800 969 q 913 975 867 972 q 1000 982 958 978 q 1032 972 1018 983 q 1047 943 1046 961 q 1038 911 1049 925 q 1008 896 1026 897 q 939 890 975 893 q 935 841 936 868 q 935 796 935 814 q 939 741 936 778 q 943 688 942 704 q 943 682 943 685 q 1037 693 976 686 q 1115 703 1097 700 q 1147 693 1133 704 q 1163 665 1161 682 q 1154 633 1165 647 q 1126 617 1143 619 q 1046 608 1108 615 q 949 596 983 600 q 958 306 954 471 q 999 281 978 294 q 1034 258 1019 268 q 1074 228 1049 249 q 1109 201 1100 208 q 1149 169 1118 194 q 1186 139 1179 143 q 1201 110 1200 128 q 1192 78 1203 92 q 1163 63 1181 64 q 1131 72 1144 61 q 961 203 1006 174 q 949 124 961 156 q 851 10 922 50 q 699 -33 781 -31 q 544 0 615 -36 q 450 111 474 36 q 499 293 418 217 q 660 363 561 353 q 871 343 774 374 q 863 586 868 479 q 460 583 622 564 m 1040 1058 q 1041 1091 1033 1075 q 1065 1114 1049 1107 q 1098 1113 1082 1121 q 1121 1089 1114 1106 q 1182 900 1171 956 q 1176 867 1186 882 q 1149 849 1167 853 q 1116 856 1131 846 q 1099 883 1101 865 q 1040 1058 1089 932 m 1157 1074 q 1158 1106 1150 1090 q 1183 1128 1167 1122 q 1216 1126 1200 1135 q 1238 1101 1232 1118 q 1282 935 1267 1021 q 1274 903 1285 918 q 1247 885 1264 889 q 1215 892 1229 882 q 1196 921 1200 903 q 1157 1074 1183 999 z "},"":{"ha":1450,"x_min":124,"x_max":1310,"o":"m 892 235 q 706 285 789 286 q 631 266 665 285 q 575 217 596 247 q 579 85 532 153 q 644 42 601 54 q 736 40 686 29 q 825 77 788 50 q 875 139 863 104 q 892 235 889 179 m 1189 1010 q 1169 981 1174 997 q 1169 965 1167 971 q 1185 958 1172 960 q 1213 963 1201 956 q 1226 979 1224 971 q 1226 983 1225 979 q 1218 995 1228 988 q 1189 1010 1208 1003 m 217 1086 q 244 1105 226 1101 q 276 1099 261 1108 q 295 1072 292 1089 q 289 1039 299 1054 q 213 669 235 957 q 210 260 193 417 q 219 175 211 240 q 222 182 221 178 q 318 393 283 347 q 347 411 329 408 q 378 403 364 414 q 396 374 393 392 q 388 343 399 357 q 303 151 360 306 q 264 53 276 79 q 244 18 254 31 q 228 0 236 7 q 185 -7 207 -12 q 161 11 169 -1 q 157 19 158 15 q 155 26 156 22 q 153 36 154 31 q 149 61 151 44 q 139 132 144 88 q 124 251 128 218 q 126 676 107 415 q 217 1086 151 986 m 507 593 q 482 615 490 599 q 480 647 474 631 q 502 672 486 664 q 535 674 518 681 q 825 668 601 650 q 847 669 836 668 q 846 874 835 793 q 501 897 633 854 q 477 917 485 901 q 474 951 469 933 q 495 976 479 968 q 529 978 511 983 q 684 955 592 958 q 863 961 776 951 q 1028 989 949 971 q 1060 983 1046 993 q 1079 956 1075 974 q 1074 924 1083 939 q 1047 906 1064 910 q 935 885 993 893 q 933 679 919 808 q 1124 714 1069 696 q 1156 713 1140 721 q 1178 688 1172 704 q 1176 655 1185 671 q 1151 633 1168 639 q 944 593 1089 611 q 954 519 947 572 q 978 285 976 363 q 1069 232 1000 274 q 1174 174 1135 192 q 1194 149 1189 165 q 1192 116 1200 132 q 1168 94 1185 100 q 1135 96 1151 89 q 1025 157 1093 117 q 1003 171 1022 160 q 974 189 983 182 q 956 111 968 146 q 878 10 935 50 q 753 -44 822 -31 q 616 -40 683 -58 q 510 35 549 -22 q 469 156 469 97 q 504 265 469 214 q 590 341 536 313 q 706 371 643 369 q 890 331 792 372 q 869 507 886 390 q 858 585 860 571 q 832 582 844 583 q 507 593 590 563 m 1221 1110 q 1253 1100 1239 1111 q 1268 1071 1267 1089 q 1268 1064 1268 1068 q 1310 958 1325 1022 q 1260 892 1299 917 q 1174 872 1221 867 q 1096 921 1121 879 q 1086 1003 1074 957 q 1133 1074 1097 1044 q 1221 1110 1169 1104 z "},"":{"ha":1310,"x_min":147,"x_max":1171,"o":"m 663 261 q 482 294 542 303 q 346 253 399 285 q 292 165 289 219 q 338 74 294 110 q 450 35 382 39 q 574 60 518 31 q 649 147 629 90 q 663 261 664 193 m 636 1088 q 654 1116 640 1106 q 686 1123 668 1126 q 715 1106 704 1119 q 722 1074 725 1092 q 708 897 708 996 q 1119 940 936 903 q 1151 935 1136 944 q 1170 908 1167 925 q 1164 875 1174 890 q 1136 857 1154 860 q 711 811 947 817 q 724 639 714 747 q 1025 669 785 644 q 1056 660 1043 671 q 1072 631 1069 649 q 1063 599 1074 613 q 1033 583 1051 586 q 732 553 794 558 q 743 394 740 458 q 745 357 743 382 q 747 321 747 332 q 825 289 785 307 q 1005 195 919 246 q 1136 103 1090 144 q 1150 73 1149 90 q 1139 42 1151 56 q 1109 28 1126 29 q 1078 39 1092 26 q 960 122 1039 75 q 789 210 881 169 q 749 228 768 219 q 729 119 746 167 q 618 -13 700 31 q 444 -51 536 -57 q 281 10 351 -44 q 206 163 210 65 q 301 328 201 267 q 471 381 369 368 q 660 353 542 389 q 657 392 658 376 q 646 547 654 449 q 636 546 640 547 q 243 564 365 531 q 217 585 225 569 q 213 617 208 600 q 233 643 218 635 q 265 647 249 651 q 631 632 375 617 q 638 633 635 632 q 625 811 628 742 q 189 825 551 811 q 159 839 171 826 q 148 869 147 851 q 161 899 149 888 q 192 911 174 911 q 624 897 550 897 q 636 1088 622 1004 z "},"":{"ha":1376,"x_min":104,"x_max":1238,"o":"m 472 511 q 403 501 436 508 q 247 416 308 485 q 190 261 186 347 q 221 153 194 183 q 251 135 235 136 q 289 147 267 133 q 367 235 339 178 q 472 511 419 347 m 972 807 q 988 836 974 825 q 1019 846 1001 847 q 1049 831 1038 844 q 1058 799 1060 817 q 1054 657 1053 746 q 1054 508 1056 546 q 1047 443 1053 475 q 1221 328 1138 392 q 1237 299 1235 317 q 1228 267 1239 281 q 1200 251 1218 253 q 1168 258 1182 249 q 1028 354 1100 311 q 750 -37 967 151 q 719 -49 738 -50 q 690 -34 701 -47 q 679 -3 678 -21 q 694 26 681 15 q 950 397 900 208 q 563 511 750 500 q 444 199 504 322 q 399 130 428 164 q 335 74 369 96 q 246 49 289 46 q 154 97 193 51 q 104 256 110 150 q 181 472 97 379 q 386 588 265 565 q 499 599 442 597 q 526 694 503 613 q 563 818 550 775 q 614 953 576 861 q 531 949 582 951 q 401 940 486 946 q 292 933 317 935 q 260 944 274 932 q 246 974 247 956 q 256 1005 244 992 q 286 1019 268 1018 q 397 1026 313 1021 q 525 1035 481 1032 q 632 1040 594 1039 q 667 1042 654 1042 q 679 1040 674 1042 q 686 1040 683 1040 q 696 1038 692 1039 q 718 1017 710 1031 q 710 950 733 985 q 704 941 707 944 q 701 936 701 938 q 699 934 700 935 q 699 932 699 933 q 646 793 657 831 q 588 596 642 782 q 967 486 772 581 q 968 511 968 499 q 968 656 969 547 q 972 807 967 750 z "},"":{"ha":1347,"x_min":83,"x_max":1208,"o":"m 379 599 q 315 594 350 607 q 251 550 281 582 q 212 466 217 511 q 238 372 207 421 q 326 360 267 332 q 378 399 357 374 q 403 447 400 424 q 397 524 408 476 q 379 599 379 594 m 115 813 q 88 832 97 817 q 83 865 79 847 q 103 891 88 882 q 135 896 118 900 q 368 867 246 869 q 385 1044 372 956 q 402 1072 388 1061 q 434 1081 417 1083 q 463 1063 451 1078 q 471 1031 474 1049 q 454 868 458 950 q 692 911 583 875 q 726 908 710 915 q 747 883 742 900 q 744 849 751 865 q 719 828 736 833 q 453 782 596 789 q 458 649 453 714 q 467 638 463 644 q 485 611 475 626 q 508 563 503 581 q 520 495 519 531 q 515 433 521 460 q 496 370 510 406 q 472 317 482 335 q 444 265 463 299 q 438 251 439 257 q 392 147 397 179 q 414 92 386 114 q 555 42 460 56 q 757 43 650 28 q 938 103 865 60 q 1025 208 1010 147 q 1008 301 1035 251 q 978 353 1000 318 q 942 413 953 390 q 940 445 935 428 q 960 470 944 463 q 994 473 976 478 q 1019 451 1011 468 q 1050 400 1028 433 q 1085 342 1075 361 q 1108 189 1126 263 q 1038 72 1093 122 q 915 -4 982 22 q 769 -42 849 -31 q 542 -44 660 -61 q 361 25 425 -26 q 307 163 293 78 q 353 278 315 206 q 290 263 321 264 q 225 276 258 261 q 168 322 192 290 q 127 425 133 371 q 138 524 121 479 q 188 607 154 569 q 271 669 222 646 q 369 688 319 692 q 367 781 367 733 q 115 813 235 783 m 878 865 q 863 894 864 876 q 872 926 861 913 q 901 942 883 940 q 933 932 919 943 q 1014 874 950 918 q 1101 806 1071 836 q 1135 767 1118 789 q 1173 718 1153 746 q 1200 682 1193 690 q 1208 650 1210 668 q 1192 622 1206 632 q 1160 613 1178 611 q 1131 629 1142 615 q 1102 669 1121 643 q 1069 713 1083 694 q 1040 744 1056 731 q 965 803 1015 768 q 878 865 899 849 z "},"":{"ha":1344,"x_min":139,"x_max":1207,"o":"m 357 660 q 242 488 289 592 q 219 233 178 343 q 283 166 243 171 q 383 203 322 161 q 506 317 444 244 q 364 642 422 475 q 357 660 360 651 m 725 801 q 665 796 703 800 q 429 718 526 781 q 444 671 436 694 q 563 394 493 533 q 572 413 568 404 q 676 643 653 568 q 725 801 703 726 m 781 1024 q 799 1051 783 1042 q 831 1058 814 1061 q 858 1039 849 1054 q 864 1007 868 1024 q 836 882 851 946 q 875 871 856 878 q 1063 749 981 835 q 1182 556 1144 663 q 1206 408 1204 481 q 1176 262 1208 336 q 1082 131 1144 188 q 1039 97 1061 113 q 990 70 1017 82 q 943 50 963 58 q 890 33 924 42 q 842 20 857 24 q 792 9 828 17 q 747 0 756 1 q 715 6 729 -4 q 696 33 700 15 q 701 65 692 50 q 728 83 711 79 q 775 94 735 85 q 825 105 815 103 q 867 116 835 107 q 913 131 900 125 q 951 147 926 136 q 992 169 975 157 q 1024 194 1008 181 q 1115 351 1096 260 q 1100 528 1133 442 q 1001 688 1069 617 q 847 790 933 760 q 814 799 831 796 q 760 618 789 713 q 650 374 733 535 q 559 247 621 318 q 431 131 497 176 q 272 81 343 72 q 139 203 181 92 q 164 524 85 346 q 329 750 226 664 q 293 1010 282 913 q 310 1039 296 1028 q 341 1048 324 1050 q 369 1032 358 1046 q 379 1001 381 1018 q 404 803 371 928 q 657 882 513 865 q 749 889 715 889 q 781 1024 767 958 z "},"":{"ha":1246,"x_min":156,"x_max":1108,"o":"m 488 1078 q 505 1106 490 1094 q 537 1114 519 1117 q 565 1097 554 1111 q 574 1064 576 1082 q 536 807 540 843 q 550 806 543 806 q 875 811 738 789 q 908 803 893 814 q 925 774 922 792 q 917 742 928 757 q 889 725 906 728 q 542 719 740 703 q 525 721 533 721 q 510 540 514 624 q 507 508 508 524 q 776 494 703 500 q 805 479 793 493 q 815 448 817 465 q 800 419 814 431 q 768 408 786 407 q 506 422 696 414 q 514 253 504 324 q 574 93 531 129 q 685 56 615 60 q 829 79 756 53 q 955 153 904 107 q 1017 251 1006 200 q 1020 300 1021 276 q 1017 341 1019 324 q 1004 385 1014 358 q 987 428 994 413 q 963 478 979 444 q 961 511 956 494 q 983 535 967 528 q 1015 538 999 543 q 1040 517 1032 532 q 1061 472 1057 482 q 1078 432 1065 463 q 1095 385 1092 401 q 1104 342 1099 369 q 1108 288 1110 314 q 1100 235 1106 263 q 1017 92 1085 154 q 858 -1 949 31 q 741 -28 800 -22 q 623 -22 682 -35 q 521 26 564 -8 q 428 240 450 83 q 419 426 418 319 q 193 446 288 433 q 165 463 175 449 q 156 494 154 476 q 172 523 158 513 q 204 532 186 533 q 421 513 296 519 q 424 544 422 529 q 440 732 429 631 q 203 804 288 756 q 183 830 188 813 q 186 863 178 847 q 212 883 194 878 q 244 879 229 888 q 450 818 315 839 q 488 1078 456 861 z "},"":{"ha":1254,"x_min":207,"x_max":1110,"o":"m 713 863 q 725 894 713 881 q 755 907 738 907 q 785 894 772 907 q 799 865 799 882 q 797 771 799 832 q 796 700 796 710 q 947 696 892 711 q 1052 632 1008 678 q 1110 529 1096 586 q 1102 409 1125 467 q 1017 315 1079 351 q 980 297 999 306 q 937 284 961 289 q 899 276 913 279 q 856 270 886 272 q 820 267 826 268 q 779 267 814 267 l 744 265 q 713 277 726 265 q 700 307 700 289 q 712 338 700 325 q 742 351 724 351 q 771 352 746 351 q 801 353 796 353 q 826 354 806 353 q 855 356 847 356 q 880 359 863 357 q 906 364 897 361 q 928 370 915 367 q 953 379 942 374 q 975 390 964 385 q 1026 507 1046 431 q 989 572 1017 543 q 922 613 961 601 q 596 568 833 639 q 492 535 544 553 q 608 -36 600 251 q 597 -67 608 -54 q 567 -81 585 -81 q 535 -69 549 -81 q 522 -39 522 -57 q 411 504 514 235 q 271 438 319 467 q 238 433 256 429 q 212 453 221 438 q 207 485 203 468 q 226 513 211 503 q 379 583 282 544 q 304 756 351 651 q 302 789 296 772 q 325 813 308 806 q 358 815 342 821 q 382 792 375 808 q 460 614 431 685 q 572 650 517 635 q 710 686 646 672 q 711 768 710 707 q 713 863 713 829 z "},"":{"ha":1325,"x_min":68,"x_max":1186,"o":"m 732 1081 q 749 1108 735 1099 q 782 1115 764 1118 q 810 1097 800 1111 q 815 1064 819 1082 q 815 864 800 981 q 883 871 851 869 q 1107 836 1038 881 q 1186 658 1185 786 q 1042 418 1189 506 q 776 346 929 350 q 745 358 758 346 q 732 388 732 369 q 744 419 732 406 q 774 432 756 432 q 997 492 904 436 q 1100 658 1101 554 q 1060 764 1099 739 q 889 785 1015 793 q 826 779 860 783 q 792 744 821 749 q 744 767 760 738 q 608 738 681 756 q 472 701 542 722 q 499 582 486 646 q 524 440 511 518 q 544 325 538 363 q 583 157 556 274 q 621 -17 610 46 q 613 -48 624 -33 q 585 -66 603 -62 q 553 -59 568 -69 q 535 -31 539 -49 q 499 136 525 28 q 461 308 471 256 q 440 426 453 350 q 415 563 426 503 q 390 676 403 624 q 131 574 211 619 q 98 570 115 565 q 72 590 81 575 q 69 623 64 606 q 89 649 74 640 q 367 760 178 699 q 358 783 363 771 q 315 881 344 822 q 268 983 275 967 q 267 1015 260 999 q 290 1040 274 1032 q 322 1040 306 1047 q 346 1017 339 1033 q 393 918 353 1001 q 439 811 424 854 q 449 785 444 799 q 588 822 519 806 q 729 851 663 840 q 732 1081 713 982 z "},"":{"ha":1232,"x_min":213,"x_max":1074,"o":"m 786 635 q 791 451 799 550 q 750 226 783 351 q 742 194 746 210 q 871 211 815 182 q 985 338 944 250 q 996 494 1025 425 q 890 600 968 556 q 786 635 842 629 m 668 863 q 677 894 667 881 q 706 910 688 908 q 738 902 724 913 q 754 874 751 892 q 775 722 757 853 q 935 675 860 718 q 1074 528 1036 615 q 1063 301 1119 424 q 913 136 1010 188 q 713 113 824 89 q 644 3 686 50 q 531 -93 603 -43 q 498 -101 515 -104 q 470 -83 481 -97 q 463 -51 460 -68 q 481 -24 467 -33 q 575 56 542 19 q 631 140 608 92 q 464 261 531 183 q 453 292 451 274 q 467 322 454 310 q 499 332 481 333 q 528 317 517 331 q 660 221 581 257 q 667 249 663 233 q 705 457 699 367 q 700 631 711 547 q 617 603 658 622 q 490 519 549 572 q 390 403 431 467 q 322 229 344 331 l 322 225 l 324 207 q 317 176 324 189 q 294 153 310 161 q 260 150 279 146 q 233 171 243 154 q 229 178 232 174 q 228 185 229 181 q 226 192 228 188 q 225 208 226 197 q 219 256 222 225 q 217 288 218 269 q 214 317 215 306 q 213 329 213 328 q 306 783 182 594 q 333 802 315 799 q 365 796 350 806 q 384 769 381 786 q 378 736 388 751 q 293 406 286 596 q 318 450 304 429 q 433 584 364 522 q 582 682 501 646 q 689 715 635 706 q 668 863 672 831 m 742 194 q 690 208 717 199 q 660 221 675 214 q 631 140 644 172 l 742 194 z "},"":{"ha":1347,"x_min":143,"x_max":1183,"o":"m 828 828 q 815 531 835 682 q 750 257 794 381 q 876 268 813 254 q 1081 388 1015 300 q 1103 621 1153 485 q 1032 735 1082 678 q 932 813 982 792 q 828 828 894 829 m 707 1065 q 711 1097 703 1082 q 737 1117 719 1113 q 769 1114 754 1122 q 790 1088 785 1106 q 822 914 813 1010 q 965 893 910 915 q 1096 793 1033 864 q 1183 651 1158 722 q 1150 336 1249 469 q 894 185 1065 222 q 714 172 806 164 q 686 119 700 144 q 615 31 654 68 q 515 -49 575 -6 q 483 -57 501 -60 q 455 -40 465 -54 q 447 -7 444 -25 q 465 21 450 11 q 554 92 521 61 q 611 164 588 122 q 626 189 619 176 q 474 266 538 213 q 385 403 410 319 q 389 435 381 419 q 414 456 397 451 q 447 453 431 461 q 468 428 463 444 q 538 327 486 368 q 663 268 589 286 q 728 530 707 383 q 743 819 749 676 q 718 815 731 818 q 504 740 581 790 q 363 603 444 701 q 253 306 271 494 l 253 304 q 256 286 254 300 q 226 219 263 239 q 172 232 196 204 q 167 243 169 238 q 165 250 165 246 q 163 260 164 254 q 157 290 160 272 q 144 396 150 339 q 143 696 131 564 q 185 961 157 832 q 203 989 188 979 q 235 995 218 999 q 263 976 253 992 q 268 944 272 961 q 229 688 242 819 q 224 543 222 622 q 296 658 253 606 q 457 813 388 767 q 703 900 547 871 q 736 906 719 903 q 707 1065 726 994 z "},"":{"ha":1197,"x_min":243,"x_max":1057,"o":"m 619 197 q 489 211 558 213 q 363 168 417 210 q 339 78 314 131 q 394 29 351 51 q 492 3 438 7 q 580 13 546 -3 q 622 57 614 28 q 625 122 628 78 q 623 160 625 135 q 619 197 621 186 m 607 843 q 626 869 611 860 q 658 875 640 879 q 685 856 675 871 q 690 824 694 842 q 674 633 672 739 q 678 633 675 633 q 976 638 842 622 q 1007 628 993 639 q 1023 599 1021 617 q 1014 568 1025 582 q 985 551 1003 554 q 676 547 846 536 q 690 407 679 503 q 703 260 700 311 q 813 206 758 239 q 935 126 868 174 q 1038 57 1003 79 q 1057 31 1053 49 q 1052 -1 1061 14 q 1026 -21 1043 -17 q 993 -15 1008 -25 q 862 72 963 3 q 708 164 761 140 q 711 126 711 140 q 706 35 715 68 q 653 -43 692 -14 q 573 -80 615 -72 q 483 -83 531 -87 q 351 -45 414 -78 q 261 42 288 -12 q 244 119 240 82 q 264 185 247 157 q 310 236 281 214 q 395 281 346 265 q 489 297 444 297 q 614 286 554 299 q 602 415 613 307 q 589 569 592 522 q 589 697 586 615 q 607 843 592 779 z "},"":{"ha":1249,"x_min":171,"x_max":1108,"o":"m 619 264 q 443 290 531 293 q 257 167 263 285 q 265 104 256 124 q 328 56 281 75 q 436 36 375 36 q 542 56 497 36 q 601 107 588 76 q 618 194 615 136 q 619 264 618 196 m 594 1054 q 601 1087 590 1072 q 628 1105 611 1101 q 660 1098 646 1108 q 678 1071 675 1088 q 714 774 706 931 q 863 778 788 767 q 1044 817 939 790 q 1078 812 1063 821 q 1097 785 1093 803 q 1092 753 1101 768 q 1067 733 1083 738 q 951 706 996 715 q 840 690 906 697 q 718 686 775 683 q 708 322 724 517 q 835 260 772 296 q 981 168 897 224 q 1089 96 1064 113 q 1108 69 1104 86 q 1103 37 1113 51 q 1076 18 1093 22 q 1044 24 1058 14 q 937 93 1010 44 q 810 174 864 142 q 704 231 756 207 q 704 190 704 206 q 679 71 700 117 q 583 -20 651 10 q 436 -50 514 -50 q 289 -22 358 -50 q 190 63 219 7 q 171 169 168 104 q 200 270 174 228 q 269 334 226 313 q 353 365 311 356 q 440 376 394 375 q 625 353 532 379 q 632 699 638 536 q 607 719 615 704 q 603 749 599 733 q 628 781 607 771 q 594 1054 618 925 z "},"":{"ha":1246,"x_min":238,"x_max":1108,"o":"m 461 979 q 440 1005 444 988 q 442 1038 435 1022 q 467 1059 450 1054 q 500 1057 485 1064 q 561 1024 519 1046 q 617 996 603 1003 q 664 974 632 989 q 714 952 696 958 q 762 937 732 946 q 822 922 792 928 q 889 911 851 917 q 917 894 906 908 q 925 862 928 879 q 908 833 922 844 q 875 825 893 822 q 802 838 835 832 q 737 855 769 844 q 683 872 704 865 q 628 895 663 879 q 580 918 594 911 q 522 948 565 925 q 461 979 479 971 m 304 832 q 320 861 307 850 q 351 870 333 872 q 381 855 369 868 q 390 824 392 842 q 376 706 385 767 q 353 566 367 646 q 335 450 340 486 q 347 457 340 453 q 451 514 439 510 q 689 571 564 556 q 940 544 851 590 q 1063 438 1019 503 q 1108 299 1107 372 q 1065 158 1108 224 q 942 51 1022 93 q 636 1 833 -3 q 338 38 489 4 q 310 56 319 40 q 303 88 300 71 q 322 115 307 106 q 354 121 338 125 q 638 88 500 90 q 903 129 814 83 q 992 204 963 160 q 1022 297 1022 249 q 992 391 1022 346 q 901 467 961 436 q 699 485 836 501 q 482 433 585 471 q 389 382 476 431 q 331 350 351 360 q 307 339 317 343 q 293 335 299 336 q 257 342 274 332 q 238 411 224 365 q 242 422 240 418 q 244 427 243 426 q 244 428 244 428 q 244 431 244 429 q 272 603 249 454 q 304 832 296 753 z "},"":{"ha":1167,"x_min":285,"x_max":1026,"o":"m 365 1107 q 390 1128 374 1122 q 423 1126 407 1133 q 444 1101 439 1118 q 443 1068 450 1085 q 371 694 374 931 q 476 879 417 803 q 624 1001 542 963 q 801 1003 707 1040 q 963 863 907 960 q 1026 644 1018 767 q 1010 422 1036 535 q 935 229 985 310 q 771 60 875 131 q 550 -43 667 -11 q 517 -39 533 -47 q 497 -13 501 -31 q 501 20 493 4 q 528 40 510 36 q 721 129 631 68 q 863 274 811 190 q 926 442 904 343 q 942 638 949 540 q 890 816 933 742 q 768 922 847 890 q 544 826 656 968 q 463 688 499 765 q 408 544 426 610 q 390 447 393 486 q 390 444 390 446 q 392 438 390 443 q 394 425 393 432 q 381 363 400 386 q 363 349 374 353 q 322 351 342 339 q 301 379 307 360 q 296 408 299 389 l 292 486 q 285 631 285 599 q 299 888 283 771 q 365 1107 315 1006 z "},"":{"ha":1307,"x_min":143,"x_max":1165,"o":"m 783 53 q 607 263 713 231 q 488 251 551 281 q 432 182 429 226 q 507 63 436 97 q 690 38 575 26 q 783 53 736 42 m 331 926 q 301 940 313 926 q 289 971 289 953 q 302 1001 289 989 q 333 1013 315 1013 q 783 1036 478 1008 q 810 1038 788 1036 q 831 1040 822 1039 l 833 1042 q 843 1046 838 1043 q 911 1038 883 1064 q 928 976 935 1015 q 915 940 925 960 q 881 899 906 922 q 835 863 863 883 q 805 840 822 853 q 776 817 788 826 q 757 803 764 808 q 692 738 733 783 q 618 665 644 688 q 566 621 594 643 q 501 570 538 599 q 447 528 465 542 q 610 578 524 556 q 864 603 713 606 q 1019 556 949 601 q 1129 440 1090 511 q 1165 343 1156 394 q 1163 238 1175 292 q 1115 138 1150 183 q 941 15 1061 68 q 699 -49 821 -37 q 467 -15 558 -61 q 346 176 354 43 q 374 271 343 232 q 453 331 406 310 q 544 353 496 350 q 632 346 592 357 q 865 78 779 300 q 1046 190 997 126 q 1083 292 1082 236 q 1054 399 1085 349 q 974 483 1025 450 q 864 517 924 515 q 632 494 724 519 q 306 375 449 446 q 263 344 301 374 q 183 313 221 313 q 151 326 164 313 q 143 372 132 347 q 154 389 146 382 q 169 403 158 393 q 225 449 207 433 q 273 492 242 464 q 330 542 304 519 q 379 583 356 564 q 461 647 394 596 q 563 729 528 699 q 628 796 585 749 q 701 869 674 846 q 720 883 707 874 q 751 907 733 893 q 782 931 769 921 q 808 951 799 943 q 792 950 797 951 q 331 926 481 922 z "},"":{"ha":1422,"x_min":89,"x_max":1281,"o":"m 168 217 q 143 195 160 200 q 110 199 126 190 q 90 224 94 207 q 93 256 85 240 q 306 506 143 351 q 313 722 307 539 q 313 761 313 740 q 167 750 235 757 q 135 760 149 749 q 119 789 121 771 q 129 821 118 807 q 158 836 140 835 q 313 847 229 843 q 326 1068 310 992 q 344 1096 329 1086 q 377 1102 360 1106 q 404 1083 394 1099 q 410 1051 414 1068 q 399 853 396 982 q 443 856 419 854 q 474 844 461 857 q 489 815 488 832 q 478 784 490 797 q 449 769 465 771 q 400 767 422 768 q 399 719 400 742 q 397 658 399 704 q 394 586 394 611 q 679 806 560 729 q 824 872 763 858 q 997 824 932 897 q 1042 636 1047 767 q 1014 408 1039 578 q 996 200 993 265 q 1033 101 999 121 q 1122 133 1071 79 q 1200 258 1172 185 q 1223 283 1207 275 q 1256 283 1239 290 q 1280 260 1272 276 q 1281 228 1288 244 q 1185 74 1246 139 q 989 26 1088 -29 q 910 197 915 69 q 929 421 906 269 q 956 640 953 586 q 933 765 960 736 q 843 788 901 801 q 726 733 796 776 q 418 492 594 650 q 390 467 404 479 q 400 4 383 192 q 390 -28 401 -14 q 360 -43 378 -42 q 329 -33 343 -44 q 314 -4 315 -21 q 303 382 300 163 q 168 217 201 279 z "},"":{"ha":1283,"x_min":178,"x_max":1131,"o":"m 317 910 q 285 922 299 910 q 272 951 272 933 q 284 983 272 969 q 314 996 296 996 q 576 1007 489 1001 q 763 1025 624 1010 q 846 1035 824 1032 q 872 1036 863 1036 q 883 1036 879 1036 q 892 1036 888 1036 q 901 1033 896 1035 q 924 1011 917 1026 q 924 965 933 990 q 910 940 919 954 q 871 892 896 919 q 804 824 850 869 q 483 517 579 603 q 517 528 500 522 q 646 567 590 554 q 767 582 701 579 q 896 565 833 585 q 1021 501 958 544 q 1131 368 1101 444 q 1106 172 1171 260 q 944 56 1056 103 q 750 1 856 18 q 572 -11 644 -17 q 517 -3 547 -8 q 467 8 488 3 q 415 24 447 14 q 369 38 382 35 q 344 58 353 43 q 341 91 336 74 q 361 117 346 108 q 394 121 376 125 q 442 107 410 117 q 490 92 474 97 q 532 82 507 88 q 578 75 557 76 q 736 85 640 69 q 911 135 832 101 q 1036 222 1000 172 q 1050 338 1074 274 q 971 432 1031 390 q 836 489 907 476 q 701 490 765 501 q 544 447 638 479 q 356 353 449 414 q 296 314 317 328 q 257 292 271 299 q 239 283 246 285 q 225 279 232 279 q 178 308 188 279 q 207 376 164 350 q 222 385 221 385 q 267 430 236 399 q 321 485 297 461 q 368 528 344 508 q 743 885 483 629 q 800 943 785 925 q 772 939 792 942 q 582 921 631 924 q 317 910 493 915 z "},"":{"ha":1236,"x_min":182,"x_max":1099,"o":"m 261 164 q 234 144 251 149 q 201 149 217 140 q 182 176 186 158 q 186 208 178 193 q 376 411 242 301 q 375 576 374 499 q 304 574 350 575 q 239 572 258 574 q 209 583 222 571 q 194 613 196 596 q 206 644 193 631 q 236 658 218 657 q 302 660 253 660 q 379 663 351 661 q 394 824 385 750 q 412 851 397 840 q 444 860 426 863 q 472 842 461 857 q 481 810 483 828 q 465 671 471 746 q 488 673 482 672 q 496 674 493 674 q 504 674 500 674 q 517 669 510 672 q 542 629 543 658 q 508 568 540 596 q 496 558 501 563 q 488 551 490 553 q 482 547 485 550 q 461 533 474 536 q 461 476 461 506 q 560 538 511 511 q 810 622 699 615 q 1028 526 951 632 q 1083 417 1065 475 q 1099 306 1101 360 q 1076 201 1096 253 q 1024 108 1057 150 q 947 33 992 65 q 850 -15 901 1 q 738 -31 799 -32 q 615 -7 676 -29 q 591 15 599 -1 q 590 49 583 32 q 613 73 596 65 q 646 74 629 81 q 751 56 700 56 q 847 76 803 56 q 925 126 890 96 q 981 199 960 157 q 1010 287 1003 242 q 1003 382 1017 332 q 958 476 990 432 q 814 536 910 543 q 601 463 722 531 q 463 371 532 425 q 494 -36 469 185 q 485 -67 496 -53 q 456 -83 474 -81 q 425 -74 439 -85 q 408 -44 411 -62 q 381 300 388 139 q 261 164 296 222 z "},"":{"ha":1347,"x_min":93,"x_max":1201,"o":"m 185 250 q 165 224 181 233 q 133 219 150 215 q 106 239 115 224 q 101 272 97 254 q 171 408 121 350 q 296 525 221 467 q 307 767 297 644 q 139 751 222 757 q 108 762 121 750 q 93 792 94 774 q 103 823 92 810 q 133 838 115 836 q 315 854 226 843 q 346 1060 328 975 q 364 1088 349 1078 q 397 1094 379 1097 q 424 1075 414 1090 q 429 1043 433 1060 q 403 867 415 969 q 419 869 411 868 q 422 869 421 869 q 423 870 422 869 q 428 872 424 871 q 439 876 432 874 q 511 856 488 894 q 513 804 525 831 q 494 782 507 793 q 485 775 489 778 q 481 772 482 772 q 480 770 481 771 q 478 769 479 769 q 450 753 468 756 q 418 763 432 751 q 404 779 408 769 q 394 778 400 779 q 383 589 388 685 q 636 729 485 663 q 723 765 686 751 q 814 790 760 778 q 919 797 868 803 q 1018 767 971 790 q 1138 652 1090 729 q 1201 485 1186 575 q 1195 304 1218 392 q 1107 161 1172 217 q 1050 126 1094 151 q 989 92 1006 100 q 639 68 815 7 q 615 90 622 74 q 613 122 607 106 q 634 147 618 139 q 667 149 650 154 q 950 169 810 100 q 1005 199 965 176 q 1051 228 1044 222 q 1113 330 1096 265 q 1117 469 1131 394 q 1067 604 1104 544 q 979 689 1029 664 q 909 710 946 707 q 831 706 872 714 q 753 685 789 697 q 672 651 718 672 q 418 507 517 582 q 382 481 407 500 q 443 10 383 151 q 444 -23 451 -7 q 421 -47 438 -39 q 388 -47 404 -54 q 365 -24 372 -40 q 297 414 304 118 q 185 250 207 336 z "},"":{"ha":1328,"x_min":136,"x_max":1182,"o":"m 988 117 q 868 224 919 192 q 722 236 789 272 q 688 199 693 221 q 699 150 683 178 q 743 94 714 118 q 800 64 772 69 q 915 83 838 56 q 988 117 956 99 m 599 653 q 424 581 506 629 q 290 471 342 533 q 225 347 238 404 q 221 207 213 282 q 263 111 232 126 q 351 136 306 90 q 424 253 394 179 q 497 419 435 278 q 596 647 558 560 q 599 653 597 650 m 326 936 q 294 944 308 933 q 277 972 281 954 q 284 1004 274 990 q 313 1022 294 1018 q 525 1049 374 1032 q 653 1060 603 1057 q 700 1063 682 1063 q 739 1060 726 1063 q 804 999 792 1044 q 806 964 808 985 q 797 931 803 950 q 769 846 789 899 q 735 756 756 807 q 954 708 858 757 q 1031 650 999 685 q 1097 565 1064 615 q 1182 239 1215 388 q 943 3 1146 75 q 781 -19 844 -33 q 689 27 733 -10 q 621 110 644 64 q 604 217 593 167 q 681 311 617 278 q 914 297 793 371 q 1054 171 976 258 q 1099 257 1088 210 q 1025 518 1124 371 q 915 631 968 604 q 699 668 824 678 q 675 613 688 642 q 576 386 638 526 q 504 219 514 246 q 413 75 468 131 q 224 33 322 -14 q 136 196 151 68 q 142 364 125 285 q 224 524 157 442 q 403 669 292 608 q 639 749 515 729 q 689 875 669 822 q 715 954 707 924 q 719 975 718 967 q 714 976 717 976 l 701 976 q 658 975 686 976 q 533 963 610 971 q 326 936 385 946 z "},"":{"ha":1339,"x_min":92,"x_max":1200,"o":"m 528 382 q 588 451 569 421 q 594 510 610 488 q 549 532 579 531 q 488 511 519 533 q 456 465 460 492 q 483 403 451 435 q 528 382 497 389 m 353 979 q 322 991 335 979 q 308 1021 308 1003 q 320 1052 308 1039 q 350 1065 332 1065 q 445 1071 375 1067 q 553 1075 515 1075 q 779 1086 681 1075 q 818 1090 804 1089 q 821 1092 819 1092 q 827 1095 822 1093 q 835 1099 832 1097 q 863 1104 850 1106 q 910 1072 897 1104 q 908 1039 917 1056 q 903 1029 907 1033 q 894 1019 900 1024 q 878 1006 889 1014 q 833 972 861 993 q 763 924 821 964 q 535 757 663 854 q 796 800 682 799 q 979 758 913 803 q 1060 581 1067 701 q 967 425 1056 497 q 783 329 893 367 q 583 292 678 292 q 556 292 569 292 q 546 285 551 289 q 485 238 519 264 q 624 186 569 239 q 674 113 654 157 q 729 178 697 150 q 1006 219 871 299 q 1046 192 1026 207 q 1089 151 1065 176 q 1122 115 1113 126 q 1160 69 1132 104 q 1190 33 1189 35 q 1200 1 1201 19 q 1185 -28 1199 -17 q 1153 -37 1171 -39 q 1124 -22 1135 -36 q 1097 11 1117 -14 q 1068 46 1076 36 q 1043 75 1060 56 q 1015 104 1026 94 q 990 126 1004 114 q 963 146 975 138 q 913 165 938 161 q 856 156 889 168 q 785 111 822 144 q 719 7 746 78 l 719 6 q 718 -12 719 0 q 675 -71 714 -61 q 639 -67 656 -76 q 617 -40 624 -58 q 614 -11 613 -28 q 615 -2 614 -8 q 615 6 615 4 l 615 8 q 563 125 601 88 q 367 124 504 182 q 236 47 297 94 q 200 10 210 19 q 175 -15 186 -4 q 163 -26 167 -22 q 154 -31 158 -29 q 136 -36 146 -36 q 107 -26 119 -36 q 92 3 93 -15 q 96 25 90 14 q 99 31 96 28 q 101 36 100 33 q 176 110 129 72 q 251 182 221 156 q 357 256 269 196 q 450 319 415 294 q 422 342 435 329 q 371 476 361 406 q 436 581 379 539 q 509 614 469 604 q 592 611 549 624 q 664 560 636 599 q 661 407 713 492 q 646 383 654 394 q 756 410 700 390 q 913 492 851 443 q 974 586 971 540 q 932 686 978 657 q 797 714 888 715 q 476 647 654 713 q 369 600 460 642 q 311 572 326 579 q 292 564 299 567 q 283 561 288 563 q 276 560 281 560 q 267 558 272 558 q 229 582 242 558 q 226 615 222 597 q 232 625 229 621 q 238 632 235 629 q 244 639 240 635 q 261 654 250 644 q 311 693 279 668 q 345 719 326 706 q 378 744 364 733 q 393 757 392 756 q 713 993 589 907 q 553 989 642 989 q 447 985 515 989 q 353 979 378 981 z "},"":{"ha":1304,"x_min":142,"x_max":1165,"o":"m 1121 665 q 1152 653 1139 665 q 1165 624 1165 642 q 1153 592 1165 606 q 1124 579 1142 579 q 990 551 1075 578 q 813 481 904 524 q 813 199 833 369 q 796 171 810 182 q 765 162 782 160 q 736 178 747 164 q 726 210 725 192 q 732 439 743 346 q 715 429 724 433 q 525 286 593 358 q 460 154 454 211 q 610 47 465 83 q 858 26 728 19 q 907 32 881 28 q 948 40 933 36 q 999 52 963 43 q 1046 63 1036 61 q 1078 58 1063 67 q 1097 31 1093 49 q 1092 -1 1101 14 q 1065 -21 1083 -17 q 1021 -32 1060 -22 q 966 -45 982 -42 q 919 -53 950 -49 q 864 -60 889 -58 q 589 -36 719 -68 q 374 146 385 14 q 463 344 365 243 q 672 503 539 426 q 711 525 692 514 q 697 553 704 540 q 610 603 667 599 q 415 547 535 608 q 247 428 325 503 q 239 413 246 425 q 218 392 229 399 q 165 388 193 374 q 142 415 147 397 q 143 450 135 432 q 161 475 147 463 q 175 486 164 476 l 179 490 q 219 537 190 503 q 265 593 247 571 q 299 639 283 615 q 421 833 374 751 q 181 847 247 838 q 153 865 164 850 q 144 897 142 879 q 162 925 147 914 q 194 933 176 936 q 276 924 235 926 q 380 921 318 922 q 467 918 442 919 q 536 1079 510 1003 q 558 1103 542 1096 q 590 1106 574 1111 q 615 1084 607 1100 q 617 1051 622 1068 q 561 915 594 986 q 992 938 821 906 q 1024 931 1010 942 q 1042 903 1039 921 q 1035 872 1046 886 q 1008 854 1025 857 q 518 831 821 817 q 400 636 471 744 q 617 689 526 696 q 769 599 715 682 q 788 564 779 582 q 1121 665 997 661 z "}}}
